<svg xmlns="http://www.w3.org/2000/svg" xmlns:xlink="http://www.w3.org/1999/xlink" version="1.1" id="Layer_1" x="0px" y="0px" enable-background="new 0 0 595.28 595.28" xml:space="preserve" viewBox="16.34 124.61 538.25 369.18">
<path id="color_x5F_8" fill="#221F20" d="M531.211,230.188l-0.37-0.254c-0.262,0.381-0.508,0.752-0.768,1.131  c-26.967,39.444-41.139,69.839-48.479,92.975c-4.016,12.659-5.998,23.155-6.905,31.762c-2.478-16.972-6.857-40.944-14.588-72.553  c-6.684-27.331-15.879-60.378-28.518-99.556c-0.106-0.329-0.207-0.649-0.314-0.979l-0.424,0.137l-0.195,0.063l-0.271,0.088  c0.12,0.372,0.234,0.733,0.354,1.104c12.383,38.389,21.455,70.883,28.094,97.865c8.584,34.883,13.111,60.567,15.498,77.905  c-0.59,8.082-0.258,14.297-0.008,18.943c0.083,1.545,0.157,2.927,0.189,4.158c-1.09-7.242-4.363-19.77-13.788-37.883  c-10.788-20.733-29.639-48.786-62.516-84.616c-0.047-0.052-0.093-0.102-0.141-0.154l-0.052,0.048l-0.293,0.269l-0.344,0.316  c0.32,0.348,0.629,0.691,0.946,1.037c31.78,34.754,50.282,62.092,61.022,82.453c12.317,23.349,14.439,37.53,14.713,43.216  c0.03,0.602,0.045,0.934,0.472,0.975c0.021,0.002,0.04,0.003,0.06,0.003c0.373,0,0.467-0.377,0.519-0.586  c0.53-2.176,0.37-5.158,0.148-9.286c-0.193-3.606-0.436-8.165-0.254-13.812c1.937,15.387,1.991,22.778,1.991,22.986l0.936,0.002  c0-0.229-0.067-9.232-2.657-28.083c0.699-9.475,2.689-21.542,7.584-36.67c7.485-23.135,21.778-53.446,48.761-92.731L531.211,230.188  z"/>
<path id="color_x5F_7" fill="#D0AC9A" d="M275.402,370.457c0,0-1.162,4.62,6.038,6.633c7.2,2.013,58.195,7.2,86.712,0  c28.545-7.2,31.124-44.93,31.124-44.93s11.253,7.2,12.671,19.588c1.446,12.388-10.375,27.666-21.6,31.124  c-11.225,3.431-3.458,10.063,0.567,25.342c4.053,15.279,6.066,23.329,11.537,32.259c5.471,8.929,10.035,17.291,9.638,24.491  c-0.425,7.2-0.992,22.479-5.896,25.937c-4.904,3.459-8.646,0.567-8.079-3.458c0.595-4.025,3.458-8.362,3.175-10.941  c-0.283-2.608-2.296-13.267-8.646-16.725c-6.321-3.458-22.762-10.091-22.762-10.091s-4.025,14.995-7.484,19.615  c-3.458,4.592-14.315,11.509-18.68,15.534c-4.365,4.054-15.874,7.512-17.915,4.054c-2.013-3.459,11.537-8.363,15.279-14.4  c3.742-6.066,10.375-27.666,8.646-30.841c-1.729-3.175-6.009-8.079-6.009-8.079l-36.624,3.771c0,0-4.904,15.533,1.446,20.438  c6.321,4.904,15.25,0.879,16.129,4.025c0.85,3.175-2.608,9.241-8.646,10.374c-6.066,1.163-15.562-8.333-18.142-11.791  c-2.608-3.459-8.362-18.171-8.362-18.171s-17.858,36.596-23.924,42.35c-6.038,5.783-16.979,8.079-19.021,1.446  c-2.013-6.633,11.254-5.471,12.104-10.063c0.879-4.62,11.254-27.383,8.646-37.474c-2.58-10.063-13.096-22.904-17.717-34.866  c-4.592-11.935-4.025-17.405-7.484-20.296c-3.458-2.892-8.929,2.296-20.183,1.587c-11.225-0.737-17.858-5.754-19.304-8.646  c-1.417-2.892,6.775-8.504,11.82-10.233c5.046-1.729,12.104-7.483,14.712-13.237c2.579-5.783,8.476-15.704,16.554-15.563  s5.046,1.588,10.233,1.588s11.083,1.417,18.283,7.342c7.2,5.896,15.421,9.354,18.595,10.232c3.146,0.851,2.721,6.463-3.175,9.071  C283.765,370.031,275.402,370.457,275.402,370.457L275.402,370.457z"/>
<path id="color_x5F_6" fill="#9A605B" d="M233.988,385.537c-1.814,3.345-5.443,9.043-10.006,10.488  c-6.576,2.098-15.562-2.494-7.285-9.213c0.227-0.17,0.454-0.34,0.652-0.51c1.446,0.283,2.976,0.481,4.592,0.595  C227.015,387.209,230.927,386.331,233.988,385.537L233.988,385.537z M292.835,358.381L292.835,358.381  c-3.175-0.879-11.395-4.337-18.595-10.232c-7.2-5.925-13.096-7.342-18.283-7.342c-1.446,0-2.239-0.113-2.806-0.284l0,0  c0,0-2.693,5.018,0,11.65c2.693,6.634,6.661,16.13,22.252,18.284c0,0,8.362-0.426,14.258-3.005  C295.557,364.844,295.982,359.231,292.835,358.381L292.835,358.381z"/>
<path id="color_x5F_5" fill="#ffede1" d="M102.659,252.195c0.057-1.758,0.879-3.146,2.041-4.054  c0.737-0.453,1.757-0.907,3.203-1.219c1.077-0.057,2.126,0.17,3.09,0.737c3.26,2.012,3.515,9.07,3.515,9.07s0.113-0.652,0.34-1.729  c0.227,1.049,0.369,2.012,0.453,2.749c0.283,3.373,3.855,6.604,5.924,1.503c2.098-5.103,9.071-5.868,16.753-6.236  c6.831-0.34,16.894,2.324,24.009-0.113c-0.227,0.906-0.397,1.445-0.397,1.445s3.005-1.389,5.896-0.142  c2.92,1.275,2.665,4.677,0,9.212c-2.636,4.508-8.929,4.649-8.929,4.649c-4.394,13.351-15.732,16.242-18.369,16.242  s-6.293-1.134-6.293-1.134s0,4.025,1.757,4.904s2.891,2.126,2.891,2.126c-0.765,8.957-4.535,16.242-10.063,13.351  c-5.556-2.891-6.435-12.954-6.435-12.954l2.013-11.339c-8.305-3.146-12.189-18-12.189-18  C106.061,261.011,102.546,256.617,102.659,252.195L102.659,252.195z M165.985,352.06L165.985,352.06  c-7.54-1.417-77.046-8.22-77.046-8.22l5.669-5.273l-22.507-14.711l-0.397,1.474c0,0-15.364,23.159-14.598,27.326  c0.765,4.167,9.326,8.929,13.209,9.439c3.912,0.51,76.422-0.255,82.828,1.389c6.435,1.644,8.986,7.172,9.638,11.792  c0.652,4.621,4.62,5.584,10.375,5.67c5.754,0.085,7.852-2.835,7.654-9.724C180.612,364.334,173.553,353.506,165.985,352.06  L165.985,352.06z M270.413,297.72L270.413,297.72c-2.268,0.879-3.033,1.049-3.033,1.049s6.86-4.706,8.249-7.229  c1.389-2.522,0.057-4.082-1.956-3.911c-2.013,0.197-8.872,6.235-8.872,6.235s7.058-9.241,6.491-11.509s-4.025-2.721-7.484,2.013  c-3.487,4.706-5.499,7.427-5.499,7.427s6.293-12.273,5.046-13.918c-1.247-1.644-5.102,1.843-7.058,5.103  c-1.928,3.26-6.151,10.885-7.795,12.218c-1.644,1.304-2.013-0.143-1.899-0.397c0.142-0.227,0.765-9.808-2.013-11.707  c-2.75-1.871-3.402,2.211-2.835,4.791c0.567,2.579-1.446,11.14-1.446,15.25c0,4.082,0.198,4.706,0.198,4.706l-33.931,17.121  l-15.052-8.362l-13.266,18.851c0,0,20.778,12.557,29.282,12.557c8.476,0,38.495-33.25,38.495-33.25s7.2,2.013,12.104-1.615  c4.904-3.657,7.285-8.958,11.509-10.205c4.224-1.275,6.661-1.332,6.746-3.401C276.451,297.465,272.681,296.841,270.413,297.72  L270.413,297.72z M31.453,472.249L31.453,472.249l12.189,2.919l1.134-11.055l-12.387-1.701L31.453,472.249z M65.78,458.614  L65.78,458.614l12.189,2.948l0.227-2.154v-9.015l-11.452-1.587L65.78,458.614z"/>
<path id="color_x5F_4" fill="#e66724" d="M81.934,463.299l-7.444-0.297c-0.429-0.823-0.806-1.674-1.125-2.553l4.603,1.113  l0.226-2.145v1.863c0,0,1.314,0.694,3.601,1.853C81.841,463.189,81.888,463.243,81.934,463.299z M517.396,490.249  c-1.087,0.639-8.817,1.112-21.43,1.452V387.946h-20.841c0.5-2.167,0.345-5.115,0.127-9.177c-0.193-3.606-0.436-8.165-0.254-13.812  c1.937,15.387,1.991,22.778,1.991,22.986l0.936,0.002c0-0.229-0.067-9.232-2.657-28.083c0.699-9.475,2.689-21.541,7.583-36.668  l11.557-7.785c0,0,19.191-17.008,22.337-35.008l-6.69-0.369l9.61-4.507l12.415-46.007l-0.869,0.67l-0.37-0.254  c-0.262,0.381-0.508,0.752-0.768,1.131c0,0.001-0.001,0.001-0.001,0.002l-29.315,22.602l0.057,7.427l-4.592-3.373  c0,0-23.528,30.303-21.345,46.743c2.211,16.441,6.066,20.013,6.066,20.013l0.651-0.438c-4.016,12.658-5.998,23.154-6.905,31.761  c-2.478-16.971-6.857-40.943-14.587-72.55l2.359,2.364c0,0,4.479-2.749,9.808-18.453c5.329-15.704-11.906-49.975-11.906-49.975  l-5.158,2.438l1.502-7.285l-25.123-28.645c0-0.001-0.001-0.002-0.001-0.003c-0.106-0.329-0.207-0.649-0.314-0.979l-0.424,0.137  l-0.002,0.001l-0.215-0.246l0.021,0.308l-0.27,0.088c0.12,0.372,0.234,0.733,0.354,1.104c12.383,38.389,21.455,70.883,28.094,97.865  c8.584,34.883,13.111,60.567,15.498,77.905c-0.59,8.082-0.258,14.297-0.008,18.943c0.083,1.545,0.157,2.927,0.189,4.158  c-1.09-7.242-4.363-19.768-13.786-37.88l1.911,0.897c0,0,3.288-4.139,2.92-20.693c-0.369-16.583-28.291-42.889-28.291-42.889  l-4.025,4.025l-1.105-7.342l-33.923-18.612c-0.002-0.002-0.003-0.003-0.005-0.005c-0.047-0.052-0.093-0.102-0.141-0.154  l-0.052,0.048l-0.002,0.002l-0.545-0.299l0.253,0.567l-0.343,0.315c0.32,0.348,0.629,0.691,0.946,1.037  c31.78,34.754,50.282,62.092,61.022,82.453c12.317,23.349,14.439,37.53,14.713,43.216c0.005,0.106,0.012,0.194,0.019,0.283h-20.767  v104.36c-15.317,0.103-32.668,0.143-51.243,0.134c1.203-0.007,2.61-0.467,4.131-1.539c4.904-3.458,5.471-18.737,5.896-25.937  c0.397-7.2-4.167-15.562-9.638-24.491c-5.471-8.93-7.484-16.98-11.537-32.259c-4.025-15.279-11.792-21.911-0.567-25.342  c11.225-3.458,23.046-18.736,21.6-31.124c-1.418-12.388-12.671-19.588-12.671-19.588s-2.579,37.73-31.124,44.93  c-28.517,7.2-79.512,2.013-86.712,0c-7.2-2.013-6.038-6.633-6.038-6.633l0.001,0c0,0,0,0,0,0c0,0,2.324-0.122,5.379-0.61  c2.379-0.38,5.198-0.981,7.724-1.928c0.393-0.147,0.779-0.302,1.155-0.467c5.896-2.608,6.321-8.221,3.174-9.071  c-3.175-0.879-11.395-4.337-18.595-10.232c-7.2-5.925-13.096-7.342-18.283-7.342c-1.446,0-2.239-0.113-2.806-0.284  c0,0-0.006,0.012-0.007,0.015c-1.547-0.426-1.56-1.215-7.422-1.318c-8.078-0.141-13.975,9.78-16.554,15.563  c-2.608,5.754-9.666,11.508-14.712,13.237c-5.045,1.729-13.237,7.341-11.82,10.233c1.235,2.47,6.266,6.481,14.697,8.061  c-0.195,0.166-0.415,0.332-0.636,0.498c-8.277,6.719,0.709,11.311,7.285,9.213c4.562-1.445,8.19-7.139,10.004-10.484  c3.73-0.969,6.24-1.815,8.137-0.229c3.459,2.891,2.892,8.361,7.484,20.296c4.621,11.962,15.137,24.803,17.717,34.866  c2.608,10.091-7.767,32.854-8.646,37.474c-0.85,4.592-14.117,3.43-12.104,10.063c0.608,1.975,2.016,3.143,3.837,3.678  c-42.906-0.344-81.925-0.738-108.664-1.027c3.43-0.753,6.259-1.796,8.518-3.136c3.437-0.354,2.079-0.039,4.672-0.081  c7.822-0.147,14.022-1.391,17.085-2.922c14.301-7.152-10.599-52.476-24.294-78.576c-2.296,0.766-7.994,2.579-15.279,4.507  c0,0,0,0.001,0,0.002c-0.4,0.107-0.821,0.215-1.231,0.323c-0.004,0-0.006,0.001-0.01,0c10.159-2.664,17.598-5.202,17.598-5.202  l1.191-42.463c-3.117-0.234-8.066-0.397-14.011-0.511c8.794,0.165,15.416,0.433,17.156,0.88c6.435,1.644,8.986,7.172,9.638,11.792  c0.652,4.621,4.62,5.584,10.375,5.67c5.754,0.085,7.852-2.835,7.654-9.724c-0.198-6.888-7.257-17.716-14.825-19.162  c-7.54-1.417-38.38-4.451-15.618-1.928l0.709-24.605l23.414,15.308l3.777-5.379c0.191,0.115,20.809,12.552,29.273,12.552  c8.476,0,38.495-33.25,38.495-33.25s7.2,2.013,12.104-1.615c4.904-3.657,7.285-8.958,11.509-10.205  c4.224-1.275,6.661-1.332,6.746-3.401c0.057-2.072-3.713-2.696-5.981-1.817c-2.268,0.879-3.033,1.049-3.033,1.049  s6.86-4.706,8.249-7.229c1.389-2.522,0.057-4.082-1.956-3.911c-2.013,0.197-8.872,6.235-8.872,6.235s7.058-9.241,6.491-11.509  s-4.025-2.721-7.484,2.013c-3.487,4.706-5.499,7.427-5.499,7.427s6.293-12.273,5.046-13.918c-1.247-1.644-5.102,1.843-7.058,5.103  c-1.928,3.26-6.151,10.885-7.795,12.218c-1.644,1.304-2.013-0.143-1.899-0.397c0.142-0.227,0.765-9.808-2.013-11.707  c-2.75-1.871-3.402,2.211-2.835,4.791c0.567,2.579-1.446,11.14-1.446,15.25c0,4.082,0.198,4.706,0.198,4.706l-33.931,17.121  l-15.052-8.362l1.278-1.844c-0.001,0-23.047-18.879-31.919-23.018c-8.872-4.167-26.022-4.422-26.022-4.422  c0.092,0.157,0.205,0.292,0.328,0.414c-1.289-1.287-1.294-4.555-1.294-4.555s3.656,1.134,6.293,1.134s13.975-2.891,18.369-16.242  c0,0,6.293-0.141,8.929-4.649c2.665-4.535,2.92-7.937,0-9.212c-2.891-1.247-5.896,0.142-5.896,0.142s0.167-0.532,0.391-1.424  c0.879-0.297,1.722-0.658,2.501-1.125c7.087-4.252,9.241-17.462,6.605-30.699c-2.636-13.21-11.509-16.611-23.613-14.712  c-12.076,1.87-9.439,16.242-13.408,18.68c-3.94,2.467-10.006,0.397-20.579,6.236c-10.573,5.868-9.695,15.987-9.695,15.987  l-0.624,2.438c0.381-0.813,1.456-2.01,4.352-2.708c-1.236,0.306-2.153,0.711-2.819,1.121c-1.162,0.908-1.984,2.296-2.041,4.054  c-0.113,4.422,3.402,8.816,9.21,9.068c0,0,3.884,14.854,12.189,18l-1.59,8.954l0.119-0.674l-1.729,0.028  c0,0-20.778-2.353-28.687,7.229c-7.937,9.581-19.842,15.619-23.981,16.951c-4.167,1.304-2.665,4.139-1.134,6.406  c0.68,1.049,2.891,3.431,5.046,5.698l22.507,14.711l-0.001,0.001l-22.507-14.711l-0.397,1.474c0,0-15.364,23.159-14.598,27.326  c0.594,3.235,5.88,6.819,10.035,8.504c-1.739,5.489-3.512,11.068-5.148,16.19c-1.829-2.492-3.835-5.086-6.049-7.8  c-31.72-38.863-33.562-85.976,0-112.423c33.562-26.447,46.857-8.39,72.028-74.522c25.172-66.132,100.346-82.119,150.548-14.145  c53.405,72.368,142.951-37.247,209.339-10.573c69.931,28.119,66.444,79.852,43.37,150.633c-13.578,41.613-9.269,60.095,9.95,88.016  C578.965,451.471,525.787,485.288,517.396,490.249z M316.335,234.45c-9.808-4.309-19.332-5.329-20.948-3.175  c-1.644,2.183-0.312,5.754-2.721,13.408c-1.559,4.932-4.564,6.831-6.52,7.54c0.397-1.134,3.288-9.808-5.159-12.075  c-9.071-2.438-13.238,6.15-13.238,6.604c0,0.481-8.362,3.486-8.362,3.486s8.135,1.53,9.865,4.195  c1.758,2.665,5.811,5.812,7.909,5.812c2.069,0-0.935,9.155,3.713,15.307c4.62,6.151,12.869,4.309,17.405,3.373  c4.535-0.936,9.865,6.605,11.849,10.801c1.956,4.166,8.22,5.328,8.816,1.842c0.567-3.486-1.049-6.037,2.551-5.556  c3.6,0.453,8.702-1.645,5.329-6.747c-3.345-5.102-13.096-7.086-17.518-7.199c-4.422-0.113-4.422-0.113-4.422-0.113  s-0.283-6.832-3.855-12.869c0.595,0.283,1.134,0.538,1.616,0.68c2.098,0.624,4.11-0.936,2.863-4.479  c-1.247-3.572-3.94-5.67,1.077-3.401c5.046,2.239,11.537,1.389,9.439-1.475c-2.069-2.862-4.62-3.26-3.713-4.79  c0.935-1.56,5.811,0.68,9.298,0.283c3.487-0.368,7.427-0.227,8.447-3.09C331.046,239.949,326.171,238.787,316.335,234.45z   M398.317,261.997l18.506,41.59l10.205,3.004l-6.548,1.39c5.896,17.291,27.468,31.124,27.468,31.124l11.391,5.345  C448.599,324.089,430.097,296.751,398.317,261.997z M430.732,184.108l3.184,46.007l8.561,6.293l-6.633-0.936  c-0.369,18.283,15.165,38.665,15.165,38.665l7.817,7.836C452.187,254.991,443.115,222.497,430.732,184.108z M531.612,230.463  L531.612,230.463c-4.216,6.138-8.122,12.057-11.741,17.764C523.49,242.52,527.396,236.601,531.612,230.463z M316.023,474.177  c-6.066,1.163-15.562-8.333-18.142-11.791c-2.608-3.459-8.362-18.171-8.362-18.171s-17.858,36.596-23.924,42.35  c-2.695,2.581-6.365,4.459-9.787,5.167c48.236,0.379,100.861,0.687,146.194,0.708c-2.643-0.018-4.276-2.241-3.888-4.997  c0.595-4.025,3.458-8.362,3.175-10.941c-0.283-2.608-2.296-13.267-8.646-16.725c-6.321-3.458-22.762-10.091-22.762-10.091  s-4.025,14.995-7.484,19.615c-3.458,4.592-14.315,11.509-18.68,15.534c-4.365,4.054-15.874,7.512-17.915,4.054  c-2.013-3.459,11.537-8.363,15.279-14.4c3.742-6.066,10.375-27.666,8.646-30.841c-1.729-3.175-6.009-8.079-6.009-8.079  l-36.624,3.771c0,0-4.904,15.533,1.446,20.438c6.321,4.904,15.25,0.879,16.129,4.025  C325.519,466.978,322.061,473.044,316.023,474.177z M105.819,488.567l-0.467,1.682c0,0,5.006,0.061,13.896,0.163  C115.049,489.924,110.513,489.292,105.819,488.567z M135.642,288.073c-0.14-0.078-0.273-0.175-0.396-0.287  C135.368,287.898,135.497,287.999,135.642,288.073z M69.587,361.96c0.174,0.04,0.334,0.065,0.495,0.092  C69.921,362.025,69.761,362,69.587,361.96z M68.815,361.755c0.081,0.024,0.155,0.042,0.234,0.064  C68.971,361.797,68.895,361.779,68.815,361.755z M72.585,449.615l5.61,0.777v-2.465c0.034,0.025,0.066,0.049,0.1,0.074  c0.001-0.005,0-0.009,0.001-0.014c-1.599-1.184-3.093-2.416-4.516-3.681c-0.359,1.493-0.714,3.018-1.055,4.584  C72.672,449.135,72.63,449.374,72.585,449.615z M135.046,362.587c0.004,0,0.007,0,0.011,0  C135.054,362.587,135.05,362.587,135.046,362.587z"/>
<path id="color_x5F_3" fill="#ffb785" d="M172.023,484.523c-3.063,1.531-9.263,2.775-17.085,2.922  c-2.593,0.042-1.235-0.273-4.672,0.081c-2.764,1.639-6.364,2.842-10.898,3.601c-18.142,3.006-95.159-14.541-95.159-14.541  l1.304-14.74l36.421,1.453c-0.046-0.056-0.093-0.11-0.138-0.166c-2.287-1.159-3.601-1.853-3.601-1.853v-13.352  c0.034,0.025,0.066,0.049,0.1,0.074c0.001-0.005,0-0.009,0.001-0.014c-14.711-10.887-21.919-25.296-22.069-41.502l0.369-0.198  c25.677,14.217,45.829,11.969,73.79,4.709c0.183-0.188,0.466-0.258,0.833-0.218c0.41-0.108,0.831-0.216,1.231-0.323  c0-0.001,0-0.002,0-0.002c7.285-1.928,12.983-3.741,15.279-4.507C161.424,432.047,186.324,477.371,172.023,484.523z   M453.305,387.946v105.846h42.661V387.946H453.305z M316.335,234.45c-9.808-4.309-19.332-5.329-20.948-3.175  c-1.644,2.183-0.312,5.754-2.721,13.408c-1.559,4.932-4.564,6.831-6.52,7.54c0.397-1.134,3.288-9.808-5.159-12.075  c-9.071-2.438-13.238,6.15-13.238,6.604c0,0.481-8.362,3.486-8.362,3.486s8.135,1.53,9.865,4.195  c1.758,2.665,5.811,5.812,7.909,5.812c2.069,0-0.935,9.155,3.713,15.307c4.62,6.151,12.869,4.309,17.405,3.373  c4.535-0.936,9.865,6.605,11.849,10.801c1.956,4.166,8.22,5.328,8.816,1.842c0.567-3.486-1.049-6.037,2.551-5.556  c3.6,0.453,8.702-1.645,5.329-6.747c-3.345-5.102-13.096-7.086-17.518-7.199s-4.422-0.113-4.422-0.113s-0.283-6.832-3.855-12.869  c0.595,0.283,1.134,0.538,1.616,0.68c2.098,0.624,4.11-0.936,2.863-4.479c-1.247-3.572-3.94-5.67,1.077-3.401  c5.046,2.239,11.537,1.389,9.439-1.475c-2.069-2.862-4.62-3.26-3.713-4.79c0.935-1.56,5.811,0.68,9.298,0.283  c3.487-0.368,7.427-0.227,8.447-3.09C331.046,239.949,326.171,238.787,316.335,234.45z"/>
<path id="color_x5F_2" fill="#b45cba" d="M430.732,184.108c12.383,38.389,21.455,70.883,28.094,97.865l-7.817-7.836  c0,0-15.534-20.382-15.165-38.665l6.633,0.936l-8.561-6.293L430.732,184.108z M462.461,285.616c0,0,4.479-2.749,9.808-18.453  s-11.906-49.975-11.906-49.975l-5.158,2.438l1.502-7.285l-25.124-28.646c12.64,39.178,21.834,72.225,28.518,99.556L462.461,285.616z   M430.628,182.606l0.021,0.31l0.195-0.063L430.628,182.606z M462.631,345.994c0,0,3.288-4.139,2.92-20.693  c-0.369-16.583-28.291-42.889-28.291-42.889l-4.025,4.025l-1.105-7.342l-33.929-18.615c32.878,35.83,51.728,63.882,62.516,84.616  L462.631,345.994z M67.141,361.159c-5.272,16.64-10.857,34.129-11.99,37.077c-2.268,5.84-2.268,5.84-2.268,5.84  s13.039,9.07,33.987,12.273c20.976,3.203,61.937-10.771,61.937-10.771l1.191-42.463c-15.477-1.162-76.11-0.567-79.682-1.021  C69.437,361.981,68.331,361.641,67.141,361.159z M500.757,253.669l0.057,7.427l-4.592-3.373c0,0-23.528,30.303-21.345,46.743  c2.211,16.441,6.066,20.013,6.066,20.013l0.651-0.438c7.34-23.137,21.512-53.531,48.479-92.975L500.757,253.669z M397.462,260.075  l0.253,0.568l0.293-0.269L397.462,260.075z M532.08,229.518l-0.869,0.67l0.401,0.275c-26.983,39.284-41.276,69.596-48.761,92.731  l11.557-7.785c0,0,19.191-17.008,22.337-35.008l-6.69-0.369l9.61-4.507L532.08,229.518z M134.861,287.316  c0.198,0.34,0.482,0.596,0.794,0.766c1.757,0.879,2.891,2.126,2.891,2.126c-0.765,8.957-4.535,16.242-10.063,13.351  c-5.556-2.891-6.435-12.954-6.435-12.954l0.539-3.062l-1.729,0.028c0,0-20.778-2.353-28.687,7.229  c-7.937,9.581-19.842,15.619-23.981,16.951c-4.167,1.304-2.665,4.139-1.134,6.406c0.68,1.049,2.891,3.431,5.046,5.698l22.507,14.711  l-5.669,5.273c0,0,38.665,3.77,61.427,6.293l0.709-24.605l23.414,15.308l18.312-26.079c-0.001,0-23.047-18.879-31.919-23.018  C152.011,287.571,134.861,287.316,134.861,287.316z M416.823,303.587l10.205,3.004l-6.548,1.39  c5.896,17.291,27.468,31.124,27.468,31.124l11.391,5.345c-10.74-20.361-29.242-47.699-61.022-82.453L416.823,303.587z"/>
<path id="color_x5F_1" fill="#011627" d="M107.903,246.923c5.102-1.077,7.087,7.427,7.398,10.828  c0.283,3.373,3.855,6.604,5.924,1.503c2.098-5.103,9.071-5.868,16.753-6.236c7.682-0.369,19.417,3.033,26.504-1.219  c7.087-4.252,9.241-17.462,6.605-30.699c-2.636-13.21-11.509-16.611-23.613-14.712c-12.076,1.87-9.439,16.242-13.408,18.68  c-3.94,2.467-10.006,0.397-20.579,6.236c-10.573,5.868-9.695,15.987-9.695,15.987l-0.624,2.438  C103.566,248.879,104.7,247.604,107.903,246.923L107.903,246.923z M34.202,487.641L34.202,487.641  c-3.118-0.198-3.685,0.567-5.102-2.947c-1.417-3.487-1.417-9.609-0.198-10.857c1.219-1.219,2.551-1.587,2.551-1.587v-10.856  c0,0,1.134-0.681-1.871-1.701c-3.033-1.049-11.14-2.268-11.991,0s-1.247,8.192-1.247,10.658s1.814,3.033,1.332,7.172  c-0.482,4.167-1.786,10.573-0.283,12.756c1.502,2.154,18.028,2.947,19.644,1.19C38.624,489.71,37.32,487.811,34.202,487.641  L34.202,487.641z M63.909,446.057L63.909,446.057c-3.033-1.021-11.14-2.268-11.991,0c-0.85,2.268-1.247,8.221-1.247,10.687  c0,2.041,1.247,2.807,1.389,5.357l10.403,0.425c0.142-1.076,0.397-1.927,0.765-2.295c1.247-1.22,2.551-1.616,2.551-1.616v-10.856  C65.78,447.758,66.914,447.105,63.909,446.057L63.909,446.057z"/>
</svg>