<?xml version="1.0" standalone="no"?>
<svg version="1.1" id="Layer_1" xmlns="http://www.w3.org/2000/svg" xmlns:xlink="http://www.w3.org/1999/xlink" x="0px" y="0px" viewBox="0 0 595.28 595.28" enable-background="new 0 0 595.28 595.28" xml:space="preserve">
<path id="color__x5F_5" fill="#ffede1" d="M275.123,330.635c0.992,4.791,8.135,46.658,7.2,54.029
	c-0.879,6.859-10.602,10.885-18.198,10.885c-0.085,0-0.198,0-0.283,0c-4.252-0.17-14.032-3.912-23.386-8.136l0,0
	c-0.539-0.255-1.077-0.511-1.616-0.737c-0.028-0.028-0.057-0.028-0.057-0.028c-0.539-0.255-1.049-0.481-1.559-0.737
	c-0.057-0.027-0.085-0.027-0.113-0.057c-0.51-0.227-0.992-0.453-1.502-0.709c-0.057-0.027-0.113-0.057-0.198-0.084
	c-0.454-0.227-0.907-0.454-1.332-0.652c-0.113-0.057-0.227-0.113-0.312-0.17c-0.425-0.199-0.822-0.396-1.219-0.596
	c-0.142-0.057-0.255-0.113-0.369-0.17c-0.368-0.198-0.765-0.396-1.134-0.566c-0.142-0.086-0.283-0.17-0.425-0.227
	c-0.34-0.171-0.68-0.341-0.992-0.511c-0.17-0.113-0.34-0.198-0.51-0.284c-0.283-0.141-0.595-0.311-0.85-0.453
	c-0.198-0.085-0.368-0.198-0.539-0.283c-0.255-0.142-0.539-0.283-0.794-0.426c-0.17-0.113-0.369-0.197-0.539-0.311
	c-0.227-0.114-0.454-0.256-0.68-0.369c-0.198-0.113-0.397-0.227-0.567-0.34c-0.198-0.113-0.397-0.227-0.567-0.313
	c-0.198-0.113-0.397-0.227-0.595-0.34c-0.142-0.113-0.312-0.198-0.482-0.283c-0.198-0.143-0.397-0.256-0.595-0.369
	c-0.113-0.084-0.255-0.17-0.368-0.227c-0.198-0.142-0.397-0.283-0.595-0.396c-0.085-0.057-0.17-0.113-0.255-0.17
	c-0.255-0.17-0.51-0.369-0.737-0.511l19.928-18.283c0,0,0.312,0.198,0.822,0.595l1.758-1.53
	c3.685,2.608,15.959,11.169,21.628,14.485l2.693-41.188c0,0-7.739-4.791-8.504-8.334c-0.765-3.543,1.332-3.033,3.628-0.879
	c3.175,2.948,4.876-5.074,3.118-10.488c-1.786-5.442-2.353-11.111-1.219-11.877s1.502-0.028,2.268,1.984
	C267.838,303.621,274.102,325.844,275.123,330.635L275.123,330.635z M160.887,384.238L160.887,384.238
	c0,0-13.691-3.855-18.057-6.293l-0.057,0.227c-0.028-0.028-0.028-0.028-0.028-0.028l-36.17,79.71c0,0-24.378,4.706-27.213,5.273
	c-2.835,0.566-5.131,1.898-5.698,2.664s-0.935,1.898-0.935,1.898s39.969,1.446,42.435,0.682c2.466-0.766,3.231-8.334,3.231-8.334
	l43.965-66.983l0,0L161.68,389L160.887,384.238z M403.731,455.955L403.731,455.955l-1.134,13.691l14.91,0.963
	c2.948-4.62,3.657-8.447,3.827-10.402L403.731,455.955z M207.545,271.59L207.545,271.59c0.028-2.041-0.113-3.657-0.369-4.933
	c-2.976,1.021-5.924,1.389-8.617,0.821c-10.63-2.182-11.31,2.722-10.97,7.966c0.283,4.45-1.389,8.504-1.899,9.638
	c-0.028,0.313-0.142,0.34-0.142,0.34s0.057-0.113,0.142-0.34c0.085-0.539,0-1.984-1.332-5.953
	c-2.013-6.065-10.488-6.746-9.468-0.141c1.02,6.604,6.236,6.123,5.414,14.938c-0.85,8.788-6.35,8.193-6.35,8.193
	c-0.709-0.313-1.446-0.709-2.154-1.135c1.191,3.486,1.219,7.881,1.191,9.582c7.285,0,15.846,3.287,24.491,8.135
	c-1.389-5.527-2.183-12.217,0.085-17.207c1.474-1.133,2.778-0.51,6.066-1.076c3.26-0.567,2.778-2.154,2.778-5.868
	s-0.907-5.952,0.454-7.767c1.361-1.786,3.26-0.766,2.835-2.92C209.246,281.737,207.431,278.676,207.545,271.59L207.545,271.59z"></path>
<path id="color_x5F_4" fill="#e66724" d="M282.402,383.145c-0.001,0.141-0.004,0.273-0.008,0.404
	C282.398,383.418,282.401,383.286,282.402,383.145z M421.183,461.378c-0.015,0.092-0.03,0.187-0.047,0.283
	C421.153,461.564,421.169,461.47,421.183,461.378z M282.335,384.52c0.018-0.166,0.033-0.345,0.044-0.541
	C282.368,384.177,282.353,384.353,282.335,384.52z M420.946,462.603c0.029-0.127,0.06-0.258,0.085-0.38
	C421.006,462.345,420.974,462.475,420.946,462.603z M282.374,381.521c-0.003-0.086-0.009-0.181-0.013-0.27
	C282.366,381.34,282.371,381.435,282.374,381.521z M282.401,382.591c-0.001-0.128-0.005-0.262-0.008-0.397
	C282.397,382.329,282.4,382.464,282.401,382.591z M264.714,322.479c-0.088,0.04-0.179,0.067-0.272,0.085
	C264.535,322.546,264.626,322.519,264.714,322.479z M115.164,468.371c-1.965,0.609-27.75-0.186-38.14-0.534
	c0.174,0.552,0.269,0.844,0.269,0.844c-0.263,0.263,54.441,0.432,124.951,0.541c-27.865-15.984-37.265-56.914-40.165-75.516
	l0.283-0.652l-1.474-8.815l-0.001,0L161.68,389l0.68,4.054l-43.965,66.983C118.395,460.037,117.63,467.605,115.164,468.371z
	 M564.484,381.573c-8.844,42.066-33.222,77.498-56.098,87.846c0,0-31.767,0-78.046-0.015c4.788-9.641,13.047-27.283,13.047-27.283
	s-2.069-1.729-4.904-1.928c-2.835-0.197-7.767,3.912-8.589,7.768c-0.822,3.855-4.025,9.298-6.265,10.092
	c-2.268,0.793-2.268,0.793-2.268,0.793s0.039,0.49-0.034,1.359l-17.596-4.25l-0.398,4.809l0.596-7.36l-48.756-12.672
	c-5.329-15.619-17.688-51.931-22.082-66.897c-5.698-19.332-14.655-30.331-34.611-24.52c-5.839,1.7-12.076,7.398-17.972,14.599
	c0.666,4.895,1.229,9.518,1.565,13.248c-1.32-14.51-6.147-42.651-6.95-46.527c-1.021-4.791-7.285-27.014-8.048-29.056
	c-0.766-2.012-1.134-2.75-2.268-1.984c-0.09,0.061-0.165,0.162-0.234,0.282l-0.959-6.035l-3.685,0.595l4.449,28.138
	c-0.442,0.062-0.934-0.117-1.47-0.615c-2.296-2.154-4.393-2.664-3.628,0.879c0.765,3.543,8.504,8.334,8.504,8.334l-2.693,41.188
	c-5.664-3.313-17.922-11.862-21.618-14.478l1.717-1.479c0,0-24.135-24.54-47.709-37.708c-1.388-5.526-2.181-12.214,0.086-17.202
	c1.474-1.133,2.778-0.51,6.066-1.076c3.26-0.567,2.778-2.154,2.778-5.868c0-3.714-0.907-5.952,0.454-7.767
	c1.361-1.786,3.26-0.766,2.835-2.92c-0.454-2.126-2.269-5.187-2.155-12.273c0.028-2.039-0.113-3.654-0.368-4.93
	c8.854-3.028,17.856-11.919,20.125-20.129c3.061-10.998,2.211-21.997-10.97-26.9c-13.209-4.905-23.669,9.977-28.913,14.031
	c-5.244,4.082-10.261,4.394-10.261,4.394s-19.843,1.813-26.391,15.789c-6.257,13.352,7.44,39.294,21.257,47.266
	c-0.074-0.044-0.151-0.083-0.224-0.127c1.191,3.486,1.219,7.881,1.191,9.582c0.196,0,0.398,0.012,0.596,0.016
	c-0.256-0.006-0.513-0.016-0.766-0.014c0,0-8.334,21.968-13.266,29.734c-4.904,7.768-22.337,33.704-22.337,33.704
	s1.833,1.916,5.523,4.146l-36.166,79.702c0,0-24.378,4.706-27.213,5.273c-1.297,0.259-2.47,0.68-3.427,1.132
	c-7.892-26.642-45.364-167.198,19.075-239.187c69.392-77.499,191.196-104.825,244.346-78.973
	c38.296,18.623,59.046,78.973,68.627,101.141c9.609,22.139,50.939,42.803,93.033,47.962
	C543.082,300.361,573.356,339.508,564.484,381.573z M248.732,266.175c0.057,0,0.113,0.028,0.142,0.028
	c0.142,0,0.284-0.085,0.34-0.227c1.021-2.438,2.324-4.733,3.883-6.859c0.142-0.17,0.085-0.397-0.057-0.511
	c-0.17-0.142-0.397-0.113-0.539,0.057c-1.587,2.183-2.92,4.563-3.969,7.03C248.449,265.863,248.562,266.09,248.732,266.175z
	 M246.52,280.178c0.001-2.268,0.171-4.507,0.511-6.605c0.057-0.227-0.085-0.396-0.283-0.425c-0.198-0.057-0.397,0.085-0.425,0.283
	c-0.369,2.154-0.539,4.422-0.539,6.746c0,0.426,0,0.852,0,1.305c0,0.198,0.17,0.34,0.368,0.34c0,0,0,0,0.028,0
	c0.198,0,0.34-0.17,0.34-0.368C246.52,281.029,246.52,280.603,246.52,280.178z M249.412,297.017c-0.85-2.58-1.53-5.16-2.012-7.683
	c-0.028-0.198-0.227-0.34-0.425-0.283c-0.198,0.028-0.34,0.227-0.284,0.426c0.482,2.551,1.162,5.158,2.013,7.766
	c0.057,0.171,0.198,0.256,0.34,0.256c0.057,0,0.085,0,0.113,0C249.355,297.442,249.469,297.216,249.412,297.017z M254.146,307.985
	c0,0.001-0.765-1.331-1.814-3.571c-0.085-0.17-0.312-0.255-0.51-0.17c-0.17,0.086-0.255,0.313-0.17,0.482
	c1.077,2.296,1.843,3.6,1.871,3.656c0.057,0.113,0.198,0.17,0.312,0.17c0.057,0,0.142-0.027,0.198-0.057
	C254.203,308.411,254.26,308.183,254.146,307.985z M265.457,248.742c-0.085-0.17-0.312-0.255-0.51-0.17
	c-2.494,1.304-4.791,2.749-6.775,4.337c-0.17,0.113-0.198,0.34-0.085,0.51c0.085,0.085,0.198,0.142,0.312,0.142
	c0.057,0,0.142-0.027,0.227-0.085c1.956-1.559,4.195-2.976,6.661-4.224C265.485,249.139,265.542,248.912,265.457,248.742z
	 M280.594,243.753c-0.029-0.198-0.227-0.34-0.426-0.283c-2.665,0.511-5.301,1.19-7.795,2.013c-0.17,0.057-0.283,0.283-0.227,0.481
	c0.057,0.142,0.198,0.255,0.369,0.255c0.028,0,0.057-0.027,0.113-0.027c2.466-0.822,5.046-1.503,7.682-2.014
	C280.508,244.151,280.65,243.951,280.594,243.753z M288.192,243.186c2.663-0.17,5.356-0.17,7.936-0.028
	c0.227,0.028,0.397-0.143,0.397-0.341c0.028-0.198-0.142-0.368-0.34-0.396c-2.608-0.142-5.357-0.142-8.05,0.028
	c-0.198,0-0.34,0.198-0.34,0.396c0.028,0.199,0.17,0.341,0.369,0.341H288.192z M289.239,277.4c0-1.475,0.142-2.977,0.454-4.479
	c0.028-0.198-0.114-0.397-0.312-0.425c-0.198-0.057-0.397,0.086-0.425,0.283c-0.283,1.56-0.454,3.119-0.454,4.621
	c0,1.162,0.085,2.324,0.283,3.458c0.028,0.171,0.17,0.312,0.369,0.312c0,0,0.028,0,0.057,0c0.198-0.027,0.34-0.227,0.283-0.425
	C289.324,279.668,289.239,278.534,289.239,277.4z M291.762,265.637c0.057,0.028,0.113,0.057,0.17,0.057
	c0.142,0,0.255-0.085,0.34-0.198c1.162-2.296,2.608-4.507,4.365-6.577c0.142-0.17,0.113-0.396-0.057-0.538
	c-0.142-0.113-0.368-0.113-0.51,0.057c-1.786,2.126-3.288,4.365-4.479,6.718C291.507,265.324,291.592,265.552,291.762,265.637z
	 M297.745,293.558c-2.241-1.502-4.112-3.373-5.501-5.528c-0.113-0.17-0.34-0.227-0.51-0.113c-0.17,0.114-0.227,0.34-0.113,0.511
	c1.474,2.238,3.373,4.195,5.698,5.726c0.085,0.057,0.142,0.085,0.227,0.085c0.113,0,0.227-0.057,0.312-0.17
	C297.971,293.899,297.915,293.673,297.745,293.558z M334.707,219.516l21.118,3.601l13.918-19.361l1.701-0.765l-1.701,0.765l0,0
	L334.707,219.516z M304.008,244.235c2.665,0.566,5.216,1.332,7.597,2.268c0.028,0,0.085,0.028,0.142,0.028
	c0.142,0,0.284-0.085,0.34-0.256c0.057-0.17-0.028-0.396-0.227-0.453c-2.409-0.964-4.989-1.758-7.71-2.324
	c-0.198-0.028-0.397,0.085-0.425,0.283C303.668,243.98,303.809,244.178,304.008,244.235z M302.25,253.306
	c1.899-1.7,3.969-3.401,6.151-5.073c0.171-0.115,0.199-0.37,0.057-0.511c-0.113-0.17-0.34-0.198-0.51-0.085
	c-2.211,1.701-4.28,3.401-6.18,5.103c-0.17,0.142-0.17,0.368-0.028,0.538c0.057,0.085,0.17,0.113,0.255,0.113
	C302.08,253.391,302.165,253.363,302.25,253.306z M313.078,298.064c0.001-0.226-0.198-0.368-0.368-0.368
	c-0.255,0-0.51,0.028-0.737,0.028c-2.098,0.028-4.28-0.283-6.491-0.85c-0.198-0.057-0.397-0.086-0.567-0.143
	c-0.198-0.057-0.397,0.057-0.454,0.256c-0.057,0.197,0.057,0.396,0.255,0.453s0.397,0.113,0.567,0.142
	c2.268,0.567,4.507,0.879,6.633,0.879c0,0,0.028,0,0.057,0c0.255,0,0.51-0.028,0.765-0.028
	C312.936,298.433,313.078,298.263,313.078,298.064z M314.893,243.584c2.126-1.417,4.394-2.863,6.746-4.28
	c0.17-0.086,0.227-0.313,0.114-0.511c-0.113-0.171-0.34-0.228-0.51-0.113c-2.353,1.417-4.62,2.862-6.775,4.309
	c-0.17,0.113-0.198,0.34-0.085,0.51c0.057,0.085,0.17,0.142,0.312,0.142C314.752,243.641,314.837,243.641,314.893,243.584z
	 M318.606,250.132c2.268,1.502,4.281,3.23,5.981,5.13c0.085,0.085,0.17,0.142,0.284,0.142c0.085,0,0.17-0.028,0.255-0.113
	c0.142-0.142,0.17-0.368,0.028-0.511c-1.786-1.955-3.827-3.713-6.123-5.243c-0.17-0.114-0.397-0.085-0.51,0.085
	C318.408,249.792,318.436,250.018,318.606,250.132z M327.082,291.318c-0.142-0.141-0.369-0.141-0.51,0.029
	c-1.786,1.984-3.883,3.544-6.265,4.62c-0.198,0.086-0.284,0.284-0.198,0.482c0.085,0.142,0.198,0.227,0.34,0.227
	c0.057,0,0.113-0.028,0.17-0.057c2.466-1.105,4.649-2.721,6.491-4.791C327.252,291.687,327.252,291.461,327.082,291.318z
	 M329.094,261.753c1.219,2.353,2.126,4.848,2.665,7.398c0.028,0.17,0.198,0.285,0.369,0.285c0.028,0,0.057,0,0.085,0
	c0.198-0.029,0.312-0.228,0.283-0.426c-0.567-2.637-1.502-5.188-2.75-7.597c-0.085-0.198-0.312-0.255-0.51-0.17
	C329.066,261.356,329.009,261.555,329.094,261.753z M333.092,277.059c-0.001-0.225-0.142-0.396-0.369-0.396
	c-0.198-0.028-0.368,0.142-0.368,0.341c-0.198,2.692-0.765,5.271-1.701,7.653c-0.085,0.198,0,0.425,0.198,0.481
	c0.057,0.029,0.085,0.029,0.142,0.029c0.142,0,0.284-0.086,0.34-0.228C332.298,282.473,332.893,279.808,333.092,277.059z
	 M335.813,231.196c-0.085-0.171-0.312-0.256-0.482-0.171c-2.409,1.19-4.819,2.41-7.115,3.686c-0.198,0.085-0.255,0.312-0.17,0.51
	c0.085,0.113,0.198,0.17,0.34,0.17c0.057,0,0.113,0,0.17-0.028c2.324-1.247,4.706-2.494,7.087-3.685
	C335.841,231.593,335.926,231.365,335.813,231.196z M380.827,223.825l-8.929-19.842l-15.222,21.175l-23.046-3.94l-0.482-1.021
	l9.383,20.863L380.827,223.825z M498.123,400.764c-2.013-2.891-1.078-4.449-0.709-4.875c-0.567,0.623-3.061,3.543-2.636,6.18
	c0.482,2.977-0.822,5.358-2.976,7.143c-2.126,1.786-5.244,2.154-5.244,2.154s7.994-8.221,4.904-11.424
	c-3.118-3.23-2.636-5.611-0.368-11.196c2.268-5.612,0.596-9.042-1.672-13.946c-2.268-4.875-8.334-8.078-8.334-8.078
	s3.572,4.988,0.369,10.715c-3.231,5.698-6.066,8.561-5.017,13.096c1.077,4.507,4.054,7.37,4.309,11.792
	c0.227,4.394-2.523,8.22-2.523,8.22s1.19-8.106-4.876-11.451c-6.066-3.317-9.751-7.852-8.334-13.437
	c1.417-5.613,0-9.185-3.685-16.554c-3.685-7.399-8.816-10.715-8.816-10.715s1.672,3.317-4.394,12.132
	c-6.095,8.815-0.596,17.858,4.28,21.911c4.876,4.054,3.317,10.234,3.317,10.234s0.255-3.459-4.507-6.066
	c-4.762-2.609-6.661-1.56-6.661-1.56s2.013,0.481,3.317,3.571c1.304,3.119-0.822,7.994,0.85,11.68
	c1.644,3.684,5.471,4.052,7.597,5.612c0.674,0.479,1.169,1.028,1.552,1.559h-8.13c2.296,22.563,11.707,51.392,11.707,51.392
	c0.567-0.568,22.28,0,22.28,0c4.564-7.144,11.707-51.392,11.707-51.392h-6.323c2.651-1.357,6.923-1.995,9.838-5.273
	C501.923,408.871,500.505,404.223,498.123,400.764z M428.648,173.595c-19.191-21.77-50.315-25.455-50.315-19.19
	s21.912,25.342,38.154,67.918C426.153,247.693,447.866,195.365,428.648,173.595z M282.188,378.517
	c-0.024-0.305-0.049-0.613-0.077-0.933C282.138,377.902,282.163,378.213,282.188,378.517z M282.238,379.17
	c0.014,0.194,0.025,0.376,0.038,0.563C282.264,379.547,282.253,379.364,282.238,379.17z M265.074,322.248
	c-0.079,0.066-0.16,0.123-0.244,0.171C264.914,322.371,264.995,322.314,265.074,322.248z M420.673,463.673
	c-0.043,0.154-0.084,0.305-0.133,0.465C420.589,463.978,420.629,463.828,420.673,463.673z M172.738,301.515
	c0.408,0.22,0.816,0.427,1.216,0.604C173.549,301.936,173.143,301.731,172.738,301.515z M264.304,303.577
	c0,0.006,0.001,0.011,0.001,0.017C264.305,303.588,264.305,303.582,264.304,303.577z M264.451,304.818
	c0.029,0.212,0.062,0.426,0.097,0.645C264.512,305.244,264.48,305.03,264.451,304.818z M264.364,304.14
	c0.013,0.116,0.026,0.231,0.042,0.35C264.39,304.371,264.378,304.256,264.364,304.14z M177.763,310.997
	c-0.279-0.047-0.556-0.092-0.832-0.132C177.206,310.904,177.484,310.95,177.763,310.997z M265.156,322.178
	c0.1-0.095,0.197-0.202,0.288-0.326C265.352,321.974,265.257,322.084,265.156,322.178z M420.14,465.318
	c0.062-0.171,0.123-0.34,0.179-0.506C420.263,464.978,420.203,465.147,420.14,465.318z M419.609,466.644
	c0.087-0.201,0.178-0.405,0.257-0.601C419.787,466.239,419.696,466.443,419.609,466.644z M419.04,467.871
	c-0.114,0.231-0.229,0.462-0.354,0.698C418.812,468.333,418.926,468.102,419.04,467.871z M418.228,469.4
	c0.019-0.033,0.036-0.065,0.054-0.099c-0.018,0.032-0.04,0.066-0.058,0.099C418.225,469.4,418.226,469.4,418.228,469.4z
	 M301.683,426.843l30.076,7.796l-19.134-37.701C312.625,396.938,308.458,411.112,301.683,426.843z M215.54,469.242 M218.657,466.528
	 M174.94,310.649c-0.242-0.018-0.485-0.038-0.725-0.05C174.455,310.611,174.697,310.631,174.94,310.649z M179.691,311.375
	c0.328,0.074,0.657,0.152,0.988,0.234C180.348,311.527,180.019,311.449,179.691,311.375z M178.307,311.091
	c0.3,0.056,0.603,0.116,0.906,0.18C178.91,311.208,178.608,311.147,178.307,311.091z M182.462,312.097
	c0.393,0.116,0.787,0.236,1.184,0.364C183.249,312.333,182.855,312.212,182.462,312.097z M175.565,310.699
	c0.256,0.025,0.514,0.057,0.772,0.089C176.079,310.756,175.821,310.724,175.565,310.699z M192.555,316.111
	c0.197,0.096,0.395,0.198,0.593,0.296C192.951,316.309,192.753,316.208,192.555,316.111z M194.347,317.013
	c-0.043-0.022-0.086-0.045-0.129-0.067C194.261,316.968,194.304,316.991,194.347,317.013z M185.194,312.985
	c2.38,0.846,4.814,1.889,7.274,3.085C190.008,314.87,187.574,313.831,185.194,312.985z M181.078,311.712
	c0.359,0.094,0.719,0.192,1.082,0.296C181.798,311.904,181.438,311.806,181.078,311.712z M183.844,312.525
	c0.431,0.141,0.864,0.286,1.298,0.441C184.707,312.812,184.275,312.666,183.844,312.525z"></path>
<path id="color_x5F_3" fill="#ffb785" d="M498.946,412.188c-2.976,3.346-7.37,3.94-10.006,5.357c-2.608,1.445-3.09,3.346-3.09,3.346
	l-26.787-0.709l-0.113-0.482c0,0-0.482-2.268-2.636-3.798c-2.126-1.56-5.953-1.928-7.597-5.612c-1.672-3.686,0.454-8.561-0.85-11.68
	c-1.304-3.09-3.317-3.571-3.317-3.571s1.899-1.049,6.661,1.56c4.762,2.607,4.507,6.066,4.507,6.066s1.559-6.18-3.317-10.234
	c-4.876-4.053-10.375-13.096-4.28-21.911c6.066-8.815,4.394-12.132,4.394-12.132s5.131,3.316,8.816,10.715
	c3.685,7.369,5.102,10.941,3.685,16.554c-1.417,5.585,2.268,10.12,8.334,13.437c6.066,3.345,4.876,11.451,4.876,11.451
	s2.75-3.826,2.523-8.22c-0.255-4.422-3.232-7.285-4.309-11.792c-1.049-4.535,1.786-7.398,5.017-13.096
	c3.203-5.727-0.369-10.715-0.369-10.715s6.066,3.203,8.334,8.078c2.268,4.904,3.94,8.334,1.672,13.946
	c-2.268,5.585-2.75,7.966,0.368,11.196c3.09,3.203-4.904,11.424-4.904,11.424s3.118-0.368,5.244-2.154
	c2.154-1.785,3.458-4.166,2.976-7.143c-0.425-2.637,2.069-5.557,2.636-6.18c-0.369,0.426-1.304,1.984,0.709,4.875
	C500.505,404.223,501.923,408.871,498.946,412.188L498.946,412.188z M264.578,299.907L264.578,299.907l-0.964-6.065l-3.685,0.595
	l4.45,28.147c2.154-0.283,3.09-6.604,1.644-11.111C264.38,306.484,263.784,301.324,264.578,299.907L264.578,299.907z
	 M265.457,248.742L265.457,248.742c-0.085-0.17-0.312-0.255-0.51-0.17c-2.494,1.304-4.791,2.749-6.775,4.337
	c-0.17,0.113-0.198,0.34-0.085,0.51c0.085,0.085,0.198,0.142,0.312,0.142c0.057,0,0.142-0.027,0.227-0.085
	c1.956-1.559,4.195-2.976,6.661-4.224C265.485,249.139,265.542,248.912,265.457,248.742L265.457,248.742z M280.168,243.47
	L280.168,243.47c-2.665,0.511-5.301,1.19-7.795,2.013c-0.17,0.057-0.283,0.283-0.227,0.481c0.057,0.142,0.198,0.255,0.369,0.255
	c0.028,0,0.057-0.027,0.113-0.027c2.466-0.822,5.046-1.503,7.682-2.014c0.198-0.027,0.34-0.227,0.284-0.425
	C280.565,243.555,280.367,243.413,280.168,243.47L280.168,243.47z M252.332,304.414L252.332,304.414
	c-0.085-0.17-0.312-0.255-0.51-0.17c-0.17,0.086-0.255,0.313-0.17,0.482c1.077,2.296,1.843,3.6,1.871,3.656
	c0.057,0.113,0.198,0.17,0.312,0.17c0.057,0,0.142-0.027,0.198-0.057c0.17-0.084,0.227-0.312,0.113-0.51
	C254.146,307.986,253.381,306.654,252.332,304.414L252.332,304.414z M296.128,243.158L296.128,243.158
	c0.227,0.028,0.397-0.143,0.397-0.341c0.028-0.198-0.142-0.368-0.34-0.396c-2.608-0.142-5.357-0.142-8.05,0.028
	c-0.198,0-0.34,0.198-0.34,0.396c0.028,0.199,0.17,0.341,0.369,0.341h0.028C290.855,243.016,293.548,243.016,296.128,243.158
	L296.128,243.158z M304.008,244.235L304.008,244.235c2.665,0.566,5.216,1.332,7.597,2.268c0.028,0,0.085,0.028,0.142,0.028
	c0.142,0,0.284-0.085,0.34-0.256c0.057-0.17-0.028-0.396-0.227-0.453c-2.409-0.964-4.989-1.758-7.71-2.324
	c-0.198-0.028-0.397,0.085-0.425,0.283C303.668,243.98,303.809,244.178,304.008,244.235L304.008,244.235z M289.381,272.496
	L289.381,272.496c-0.198-0.057-0.397,0.086-0.425,0.283c-0.283,1.56-0.454,3.119-0.454,4.621c0,1.162,0.085,2.324,0.283,3.458
	c0.028,0.171,0.17,0.312,0.369,0.312c0,0,0.028,0,0.057,0c0.198-0.027,0.34-0.227,0.283-0.425c-0.17-1.077-0.255-2.211-0.255-3.345
	c0-1.475,0.142-2.977,0.454-4.479C289.721,272.723,289.579,272.524,289.381,272.496L289.381,272.496z M247.4,289.334L247.4,289.334
	c-0.028-0.198-0.227-0.34-0.425-0.283c-0.198,0.028-0.34,0.227-0.284,0.426c0.482,2.551,1.162,5.158,2.013,7.766
	c0.057,0.171,0.198,0.256,0.34,0.256c0.057,0,0.085,0,0.113,0c0.198-0.057,0.312-0.283,0.255-0.482
	C248.562,294.437,247.882,291.857,247.4,289.334L247.4,289.334z M369.743,203.756L369.743,203.756l1.701-0.765l-36.737,16.525
	l21.118,3.601L369.743,203.756z M248.732,266.175L248.732,266.175c0.057,0,0.113,0.028,0.142,0.028c0.142,0,0.284-0.085,0.34-0.227
	c1.021-2.438,2.324-4.733,3.883-6.859c0.142-0.17,0.085-0.397-0.057-0.511c-0.17-0.142-0.397-0.113-0.539,0.057
	c-1.587,2.183-2.92,4.563-3.969,7.03C248.449,265.863,248.562,266.09,248.732,266.175L248.732,266.175z M247.031,273.573
	L247.031,273.573c0.057-0.227-0.085-0.396-0.283-0.425c-0.198-0.057-0.397,0.085-0.425,0.283c-0.369,2.154-0.539,4.422-0.539,6.746
	c0,0.426,0,0.852,0,1.305c0,0.198,0.17,0.34,0.368,0.34c0,0,0,0,0.028,0c0.198,0,0.34-0.17,0.34-0.368c0-0.425,0-0.851,0-1.276
	C246.521,277.91,246.691,275.671,247.031,273.573L247.031,273.573z M335.331,231.025L335.331,231.025
	c-2.409,1.19-4.819,2.41-7.115,3.686c-0.198,0.085-0.255,0.312-0.17,0.51c0.085,0.113,0.198,0.17,0.34,0.17
	c0.057,0,0.113,0,0.17-0.028c2.324-1.247,4.706-2.494,7.087-3.685c0.198-0.085,0.283-0.313,0.17-0.482
	C335.728,231.025,335.501,230.94,335.331,231.025L335.331,231.025z M324.587,255.262L324.587,255.262
	c0.085,0.085,0.17,0.142,0.284,0.142c0.085,0,0.17-0.028,0.255-0.113c0.142-0.142,0.17-0.368,0.028-0.511
	c-1.786-1.955-3.827-3.713-6.123-5.243c-0.17-0.114-0.397-0.085-0.51,0.085c-0.113,0.17-0.085,0.396,0.085,0.51
	C320.874,251.634,322.887,253.362,324.587,255.262L324.587,255.262z M332.128,269.436L332.128,269.436c0.028,0,0.057,0,0.085,0
	c0.198-0.029,0.312-0.228,0.283-0.426c-0.567-2.637-1.502-5.188-2.75-7.597c-0.085-0.198-0.312-0.255-0.51-0.17
	c-0.17,0.113-0.227,0.312-0.142,0.51c1.219,2.353,2.126,4.848,2.665,7.398C331.787,269.321,331.957,269.436,332.128,269.436
	L332.128,269.436z M326.572,291.347L326.572,291.347c-1.786,1.984-3.883,3.544-6.265,4.62c-0.198,0.086-0.284,0.284-0.198,0.482
	c0.085,0.142,0.198,0.227,0.34,0.227c0.057,0,0.113-0.028,0.17-0.057c2.466-1.105,4.649-2.721,6.491-4.791
	c0.142-0.141,0.142-0.367-0.028-0.51C326.94,291.177,326.713,291.177,326.572,291.347L326.572,291.347z M291.762,265.637
	L291.762,265.637c0.057,0.028,0.113,0.057,0.17,0.057c0.142,0,0.255-0.085,0.34-0.198c1.162-2.296,2.608-4.507,4.365-6.577
	c0.142-0.17,0.113-0.396-0.057-0.538c-0.142-0.113-0.368-0.113-0.51,0.057c-1.786,2.126-3.288,4.365-4.479,6.718
	C291.507,265.324,291.592,265.552,291.762,265.637L291.762,265.637z M332.723,276.663L332.723,276.663
	c-0.198-0.028-0.368,0.142-0.368,0.341c-0.198,2.692-0.765,5.271-1.701,7.653c-0.085,0.198,0,0.425,0.198,0.481
	c0.057,0.029,0.085,0.029,0.142,0.029c0.142,0,0.284-0.086,0.34-0.228c0.964-2.466,1.559-5.131,1.758-7.88
	C333.091,276.834,332.95,276.663,332.723,276.663L332.723,276.663z M356.676,225.158L356.676,225.158l-23.046-3.94l-0.482-1.021
	l9.383,20.863l38.296-17.235l-8.929-19.842L356.676,225.158z M308.458,247.722L308.458,247.722c-0.113-0.17-0.34-0.198-0.51-0.085
	c-2.211,1.701-4.28,3.401-6.18,5.103c-0.17,0.142-0.17,0.368-0.028,0.538c0.057,0.085,0.17,0.113,0.255,0.113
	s0.17-0.028,0.255-0.085c1.899-1.7,3.969-3.401,6.151-5.073C308.572,248.118,308.6,247.863,308.458,247.722L308.458,247.722z
	 M292.244,288.03L292.244,288.03c-0.113-0.17-0.34-0.227-0.51-0.113s-0.227,0.34-0.113,0.511c1.474,2.238,3.373,4.195,5.698,5.726
	c0.085,0.057,0.142,0.085,0.227,0.085c0.113,0,0.227-0.057,0.312-0.17c0.113-0.17,0.057-0.396-0.113-0.511
	C295.504,292.056,293.633,290.185,292.244,288.03L292.244,288.03z M312.71,297.696L312.71,297.696c-0.255,0-0.51,0.028-0.737,0.028
	c-2.098,0.028-4.28-0.283-6.491-0.85c-0.198-0.057-0.397-0.086-0.567-0.143c-0.198-0.057-0.397,0.057-0.454,0.256
	c-0.057,0.197,0.057,0.396,0.255,0.453s0.397,0.113,0.567,0.142c2.268,0.567,4.507,0.879,6.633,0.879c0,0,0.028,0,0.057,0
	c0.255,0,0.51-0.028,0.765-0.028c0.198,0,0.34-0.17,0.34-0.369C313.079,297.838,312.88,297.696,312.71,297.696L312.71,297.696z
	 M321.753,238.793L321.753,238.793c-0.113-0.171-0.34-0.228-0.51-0.113c-2.353,1.417-4.62,2.862-6.775,4.309
	c-0.17,0.113-0.198,0.34-0.085,0.51c0.057,0.085,0.17,0.142,0.312,0.142c0.057,0,0.142,0,0.198-0.057
	c2.126-1.417,4.394-2.863,6.746-4.28C321.809,239.218,321.866,238.991,321.753,238.793L321.753,238.793z"></path>
<path id="color_x5F_2" fill="#b45cba" d="M355.173,440.732c-5.329-15.619-17.688-51.931-22.082-66.897
	c-5.698-19.332-14.655-30.331-34.611-24.52c-5.839,1.7-12.076,7.398-17.972,14.599c1.276,9.383,2.183,17.801,1.814,20.75
	c-0.879,6.859-10.602,10.885-18.198,10.885c-0.085,0-0.198,0-0.283,0c-8.816,34.695-32.655,59.754-45.184,70.979
	c11.197,5.273,23.868,7.598,37.417,5.414h146.353l1.502-18.538L355.173,440.732z M301.683,426.843L301.683,426.843
	c6.775-15.731,10.942-29.905,10.942-29.905l19.134,37.701L301.683,426.843z"></path>
<path id="color_x5F_1" fill="#011627" d="M150.767,253.845c6.548-13.976,26.391-15.789,26.391-15.789s5.017-0.312,10.261-4.394
	c5.244-4.054,15.704-18.936,28.913-14.031c13.181,4.903,14.031,15.902,10.97,26.9c-3.033,10.97-18.085,23.159-28.743,20.947
	c-10.63-2.182-11.31,2.722-10.97,7.966c0.283,4.45-1.389,8.504-1.899,9.638c0.085-0.539,0-1.984-1.332-5.953
	c-2.013-6.065-10.488-6.746-9.468-0.141c1.02,6.604,6.236,6.123,5.414,14.938c-0.85,8.788-6.35,8.193-6.35,8.193
	C159.526,295.599,144.219,267.819,150.767,253.845L150.767,253.845z M483.724,468.853L483.724,468.853
	c4.564-7.144,11.707-51.392,11.707-51.392h-45.694c2.296,22.563,11.707,51.392,11.707,51.392
	C462.011,468.285,483.724,468.853,483.724,468.853L483.724,468.853z M429.611,470.865L429.611,470.865
	c4.62-9.185,13.776-28.744,13.776-28.744s-2.069-1.729-4.904-1.928c-2.835-0.197-7.767,3.912-8.589,7.768
	c-0.822,3.855-4.025,9.298-6.265,10.092c-2.268,0.793-2.268,0.793-2.268,0.793s0.425,5.188-4.025,12.02H213.583
	c9.524-7.738,40.025-35.037,50.258-75.316c-7.994-0.341-35.66-13.238-42.888-18.454l19.928-18.283c0,0,0.312,0.198,0.822,0.595
	l3.487-3.004c0,0-45.269-46.035-72.369-45.836c0,0-8.334,21.968-13.266,29.734c-4.904,7.768-22.337,33.704-22.337,33.704
	s1.843,1.928,5.556,4.167l0.057-0.227c4.365,2.438,18.057,6.293,18.057,6.293l1.474,8.815l-0.283,0.652
	c3.005,19.275,12.983,62.532,43.257,77.159H53.539v5.556h480.359v-5.556L429.611,470.865L429.611,470.865z"></path>
</svg>