<?xml version="1.0" standalone="no"?>
<svg version="1.1" id="Layer_1" xmlns="http://www.w3.org/2000/svg" xmlns:xlink="http://www.w3.org/1999/xlink" x="0px" y="0px" viewBox="0 0 595.28 595.28" enable-background="new 0 0 595.28 595.28" xml:space="preserve">
<path id="color_x5F_6" fill="#B21E48" d="M271.002,143.638L271.002,143.638l8.249,8.306c0,0,4.252-4.337,5.811-4.054
	c1.559,0.284,4.989,3.997,5.981,3.288c0.992-0.708,10.318-8.39,10.318-8.39l-28.885,0.85H271.002z M367.084,162.788l6.359,1.249
	c1.437,0.282,2.436,1.593,2.327,3.053l-1.754,23.533c-0.126,1.696-1.682,2.918-3.36,2.638l-8.381-1.397
	c-1.57-0.262-2.634-1.743-2.38-3.314l3.775-23.385C363.932,163.55,365.479,162.472,367.084,162.788z M217.048,142.076l6.385-1.111
	c1.442-0.251,2.845,0.615,3.266,2.018l6.789,22.6c0.489,1.629-0.526,3.327-2.193,3.666l-8.325,1.697
	c-1.56,0.318-3.083-0.684-3.409-2.242l-4.848-23.186C214.377,143.917,215.436,142.357,217.048,142.076z"></path>
<path id="color_x5F_5" fill="#ffede1" d="M250.96,352.296h9.865l-0.794,7.342l-8.05,0.312L250.96,352.296z M245.887,178.448
	c-1.304,0.397-3.572,3.005-6.378,2.353c-1.395-0.319-3.849-5.933-6.37-12.819c-0.406,0.627-1.047,1.105-1.844,1.267l-8.325,1.697
	c-0.485,0.099-0.961,0.057-1.404-0.076l3.995,19.766c0,0,1.984,8.816,6.548,12.359c4.535,3.543,22.876-3.118,22.876-3.118
	L245.887,178.448z M215.851,142.592c0.346-0.252,0.747-0.438,1.197-0.516l6.385-1.111c0.37-0.064,0.736-0.053,1.085,0.02
	c-0.044-1.129,0.131-3.689,2.291-5.849c1.814-1.814-0.68-9.752-1.02-10.518c-0.368-0.793,0.794-1.927,0.085-3.146
	c-0.709-1.189-2.041-2.068-5.017-1.7c-3.005,0.368-4.734-1.503-8.731-1.7c-3.969-0.227-5.414,0.396-5.896,3.033
	c-0.51,2.636,1.134,6.66,1.219,8.814c0.057,2.127,0.425,9.383,7.937,10.375L215.851,142.592z M315.676,141.938
	c-0.086-0.567-0.227-1.02-0.454-1.389c-0.028,0.057-0.028,0.085-0.028,0.085c-0.964-1.73-4.734-1.333-4.734-1.333
	s-1.615,5.783-1.332,8.702c0.283,2.948-3.6,2.296-3.317-1.134c0.284-3.401-0.396-5.952-7.483-7.965
	c-5.159-1.417-16.724,2.438-25.937,1.191c-0.034,0.732-0.062,1.99,0.026,3.543h0.059l28.885-0.85c0,0-9.326,7.682-10.318,8.39
	c-0.992,0.709-4.422-3.004-5.981-3.288c-1.559-0.283-5.811,4.054-5.811,4.054l-6.713-6.759c0.627,6.266,3.273,15.614,13.374,17.53
	c0,0,0.283,12.132,9.099,12.019c8.816-0.085,8.816-11.565,8.816-11.565s8.334-5.385,6.803-13.549
	C310.63,149.62,316.129,146.02,315.676,141.938z M380.249,148.259c-1.417-1.701-0.709-3.005-2.551-5.272
	c-1.842-2.267-2.551-0.567-4.819-2.551c-2.296-1.984-5.131-3.572-7.54-2.834c-2.438,0.708-2.438,4.252-2.721,5.102
	c-0.283,0.851-3.402,1.276-3.402,3.997c0,2.693,5.698,9.524,6.123,14.06c0.044,0.473,0.006,1.265-0.09,2.281
	c0.549-0.272,1.185-0.382,1.835-0.254l6.359,1.249c0.484,0.095,0.912,0.314,1.272,0.61c0.005-0.407,0.007-0.665,0.007-0.739
	c0-1.304,4.819-8.391,6.406-10.262C382.687,151.802,381.694,149.959,380.249,148.259z M370.656,193.261l-8.381-1.397
	c-0.756-0.126-1.39-0.539-1.821-1.105c-0.878,4.428-1.521,7.532-1.521,7.532l-3.345-4.479c-3.232,5.357-14.513,19.333-14.513,19.333
	s15.732,14.031,24.406,9.893c4.355-2.064,6.666-16.639,7.888-30.804C372.737,193.007,371.723,193.439,370.656,193.261z
	 M315.165,426.309l8.05,0.34l1.049-8.249l-10.006-0.283L315.165,426.309z"></path>
<path id="color_x5F_4" fill="#ffb785" d="M381.014,312.157c-9.391-24.016-20.762-47.865-36.664-65.082
	c2.43,7.775,5.192,15.264,8.318,21.94C362.315,289.592,373.292,303.741,381.014,312.157z M553.078,493.15H42.275
	c0,0-2.041-34.497,35.83-48.16c9.264-3.335,19.205-5.47,28.948-7.546l0.021,0.09h12.387l0.778-3.019
	c24.663-5.951,45.191-15.119,45.683-48.288c0.765-51.561,15.844-133.848,87.896-158.483c-6.15,8.773-14.406,17.273-25.506,24.207
	c-42.463,26.532-1.134,87.59-1.134,87.59s-0.765-12.529,15.534-12.529c0.822,0,1.615,0.056,2.409,0.113
	c-2.042-12.727-4.404-28.237-6.073-41.474c3.563,28.168,10.269,66.645,10.269,66.645h1.643l1.021,7.654l5.045-0.196l-7.426,0.31
	c0,0,0,0,0.17,2.636c0.198,2.665-8.05,6.265-11.934,6.832c-3.883,0.567-4.734,8.05-0.85,7.88c3.883-0.199,23.896-7.88,24.746-9.581
	c0.85-1.701-0.113-6.151-0.113-6.151l-0.454-2.098l-1.133,0.047l0.793-7.333h1.276c0,0,1.135-7.45,2.839-16.948
	c7,4.62,14.567,10.345,24.798,15.191c3.941,1.871,7.738,2.92,11.423,3.345c6.821,31.567,10.887,64.176,10.887,64.176l2.211,0.062
	l0.906,8.187l5.242,0.221l-6.404-0.251l-0.454,2.069c0,0-0.964,4.45-0.113,6.151c0.85,1.729,20.863,9.411,24.746,9.581
	c3.884,0.201,3.034-7.283-0.85-7.85c-3.883-0.567-12.132-4.167-11.934-6.832c0.17-2.665,0.17-2.665,0.17-2.665l-2.352-0.092
	l1.047-8.236l1.816,0.051l4.167-136.514l0,0l-1.956,64.827c6.293-3.431,12.785-7.767,19.843-12.161
	c14.289-8.928,28.735-11.678,36.661-12.523c14.392,38.737,24.518,75.573,41.179,83.106c9.135,4.124,18.431,6.94,27.601,9.164
	l0.801,3.45h12.387l0.136-0.527c25.371,5.107,48.575,8.169,63.021,25.047C555.261,471.975,553.078,493.15,553.078,493.15z
	 M235.455,386.228h-3.43v36h3.43V386.228z M258.586,375.994h-3.43v36h3.43V375.994z M282.85,372.565h-3.43v36.028h3.43V372.565z
	 M298.385,411.994h-3.402v36.028h3.402V411.994z M316.016,443.006h-3.402v36.028h3.402V443.006z M340.762,448.391h-3.43v36.028h3.43
	V448.391z M238.92,284.631c-0.038-0.307-0.077-0.616-0.115-0.92C238.842,284.015,238.882,284.325,238.92,284.631z"></path>
<path id="color_x5F_3" fill="#e66724" d="M390.964,321.711c0,0-21.6-0.369-42.831,12.897c-7.058,4.394-13.55,8.73-19.843,12.161
	l1.956-64.829c0,0,6.265-42.831,1.332-74.693l3.515,2.183c3.713,19.19,9.411,42.151,17.575,59.584
	C369.732,305.412,390.964,321.711,390.964,321.711L390.964,321.711z M301.162,353.884c-3.685-0.425-7.483-1.474-11.424-3.345
	c-10.233-4.847-17.802-10.573-24.803-15.194c3.033-16.781,7.824-40.025,11.282-39.742
	C286.195,296.426,294.841,324.687,301.162,353.884L301.162,353.884z M245.121,327.125c-0.794-0.057-1.587-0.113-2.409-0.113
	c-16.299,0-15.534,12.529-15.534,12.529s-41.329-61.058,1.134-87.59c25.002-15.619,35.603-39.175,40.11-55.928l2.494-0.708
	c0,0-0.765,37.928-5.868,53.461c-16.129-7.965-25.965-3.118-27.978,9.383C235.824,266.124,241.096,302.038,245.121,327.125
	L245.121,327.125z M279.42,408.593L279.42,408.593h3.43v-36.028h-3.43V408.593z M232.025,422.228L232.025,422.228h3.43v-36h-3.43
	V422.228z M255.156,411.994L255.156,411.994h3.43v-36h-3.43V411.994z M294.983,448.022L294.983,448.022h3.402v-36.028h-3.402
	V448.022z M337.332,484.419L337.332,484.419h3.43v-36.028h-3.43V484.419z M312.614,479.034L312.614,479.034h3.402v-36.028h-3.402
	V479.034z M122.778,387.673L122.778,387.673c-5.669,1.786-6.038,2.126-3.317-3.883c2.721-6.038,2.608-13.975-4.252-16.101
	s-8.277,7.456-5.924,13.833c2.381,6.406,1.304,8.646-2.835,6.264c-4.139-2.353-7.682,1.786-4.734,5.103
	c2.976,3.316,9.95,6.151,8.164,8.277c-1.757,2.126-4.252-1.417-7.2-0.851c-2.976,0.595-1.531,5.329,3.543,7.824
	c1.956,0.936,3.005,2.069,3.572,3.118h6.775c1.446-1.786,4.025-1.389,8.079-3.118c4.139-1.786,2.863-5.216-1.049-4.96
	c-3.912,0.227-5.074,0.935-5.074-2.608s4.847-3.43,9.099-5.669C131.877,392.634,128.447,385.916,122.778,387.673L122.778,387.673z
	 M369.154,166.826l-1.684,10.433c-0.113,0.701,0.361,1.362,1.062,1.479l3.739,0.623c0.749,0.125,1.443-0.42,1.499-1.177
	l0.782-10.499c0.049-0.651-0.397-1.236-1.038-1.362l-2.837-0.557C369.96,165.625,369.27,166.106,369.154,166.826z M220.426,145.107
	l2.163,10.344c0.145,0.695,0.825,1.142,1.521,1l3.714-0.757c0.744-0.152,1.196-0.909,0.978-1.636l-3.029-10.083
	c-0.188-0.626-0.814-1.012-1.457-0.9l-2.848,0.495C220.748,143.696,220.276,144.392,220.426,145.107z"></path>
<path id="color_x5F_2" fill="#b45cba" d="M330.246,281.94c-46.233-4.337-65.197-33.165-65.197-33.165
	c-16.129-7.965-25.965-3.118-27.978,9.383c-1.984,12.5,12.246,94.138,12.246,94.138h12.784c0,0,8.702-57.146,14.117-56.693
	c20.778,1.701,35.83,122.457,35.83,122.457l14.031,0.396L330.246,281.94z M470.079,367.972L470.079,367.972
	c-5.669,1.757-6.038,2.126-3.317-3.912s2.608-13.947-4.252-16.073c-6.86-2.126-8.277,7.455-5.924,13.833
	c2.381,6.378,1.304,8.618-2.835,6.265c-4.139-2.381-7.682,1.758-4.706,5.074c2.948,3.316,9.921,6.151,8.135,8.277
	c-1.758,2.126-4.252-1.417-7.2-0.822s-1.531,5.329,3.543,7.795c1.956,0.963,3.005,2.098,3.572,3.118h6.803
	c1.417-1.786,3.997-1.361,8.079-3.118c4.139-1.758,2.835-5.188-1.077-4.961c-3.883,0.227-5.074,0.936-5.074-2.608
	c0-3.543,4.847-3.43,9.099-5.669C479.178,372.933,475.748,366.187,470.079,367.972L470.079,367.972z"></path>
<path id="color_x5F_1" fill="#011627" d="M473.565,391.443l-6.803,26.362h-12.387l-6.123-26.362H473.565z M107.074,437.534
	L107.074,437.534h12.387l6.803-26.39h-25.313L107.074,437.534z M355.672,193.812c-2.296,4.536-14.598,19.333-14.598,19.333
	l-9.496-5.896c4.932,31.862-1.332,74.693-1.332,74.693c-46.233-4.337-65.197-33.165-65.197-33.165
	c5.102-15.534,5.868-53.461,5.868-53.461l-15.931,4.563l-9.099-21.43c14.428-12.529,38.693-15.931,38.693-15.931l0.425-0.028
	c0.312,0.085,0.595,0.17,0.907,0.227c0,0,0.283,12.132,9.099,12.019c8.816-0.085,8.816-11.565,8.816-11.565s0.737-0.482,1.757-1.389
	C331.72,162.772,355.672,193.812,355.672,193.812L355.672,193.812z M337.332,436.23L337.332,436.23
	c-3.883-0.567-12.132-4.167-11.934-6.832c0.17-2.665,0.17-2.665,0.17-2.665l-11.565-0.454l-0.454,2.069c0,0-0.964,4.45-0.113,6.151
	c0.85,1.729,20.863,9.411,24.746,9.581C342.066,444.281,341.216,436.797,337.332,436.23L337.332,436.23z M298.328,138.904
	L298.328,138.904c7.087,2.013,7.767,4.564,7.483,7.965c-0.283,3.43,3.6,4.082,3.317,1.134c-0.283-2.919,1.332-8.702,1.332-8.702
	s3.77-0.397,4.734,1.333c0,0,4.734-8.929-2.098-17.179c-6.832-8.248-18.85-5.952-25.597-6.633
	c-6.718-0.652-9.836-12.699-15.817-13.465c-5.981-0.736-10.148,6.549-10.148,6.549s-6.718,16.781,1.814,25.965
	C271.88,145.084,291.213,136.92,298.328,138.904L298.328,138.904z M261.165,359.582L261.165,359.582l-11.565,0.482
	c0,0,0,0,0.17,2.636c0.198,2.665-8.05,6.265-11.934,6.832c-3.883,0.567-4.734,8.05-0.85,7.88c3.883-0.199,23.896-7.88,24.746-9.581
	s-0.113-6.151-0.113-6.151L261.165,359.582z"></path>
</svg>