<?xml version="1.0" standalone="no"?>
<svg version="1.1" id="Layer_1" xmlns="http://www.w3.org/2000/svg" xmlns:xlink="http://www.w3.org/1999/xlink" x="0px" y="0px" viewBox="0 0 595.28 595.28" enable-background="new 0 0 595.28 595.28" xml:space="preserve">
<path id="color_x5F_5" fill="#ffede1" d="M168.332,408.497c0.652,1.247-0.935,6.775-3.26,7.483c-0.057,0.028-0.113,0.028-0.17,0.057
	c-0.425-1.474-0.964-2.438-0.964-2.438l0.028-0.142l-9.695-5.981l4.791-7.54l8.617,7.512
	C167.879,407.731,168.105,408.071,168.332,408.497z M166.745,248.169c-0.935,1.984-1.106,4.025-3.203,5.669
	c-2.126,1.616-3.628,2.041-3.628,2.041s3.543-2.353,5.159-7.71c1.587-5.386-0.85-9.864-0.85-9.864s-3.94,6.038-10.006,6.236
	c-6.066,0.199-9.213,1.899-9.213,1.899s-2.806,6.236-0.624,11.225c2.211,4.989,5.187,5.386,5.187,5.386l-0.425,4.479
	c0,0,1.729,3.26,6.576,3.401s4.734-1.389,4.734-1.389l0.709-5.443c0,0,3.061-0.283,5.443-2.976c2.353-2.722,2.126-8.561,2.126-8.561
	s1.672-1.587,1.757-3.118C170.572,247.886,167.68,246.156,166.745,248.169z M129.753,434.264l-0.113,0.057
	c0,0-0.595,0.964-1.644,2.069c0.057,0.028,0.085,0.057,0.113,0.113c1.786,1.644,7.37,0.312,8.135-0.879
	c0.255-0.396,0.425-0.765,0.567-1.077l2.296-11.197l-8.929-0.454L129.753,434.264z M144.181,276.09
	c-1.956,0.028-3.402,2.58-4.791,5.357c-1.361,2.778-1.446,0.567-3.232,2.041c-1.814,1.474-1.049,5.159-1.049,5.159
	c-0.17,1.049,0.907,1.445,0.624,2.551s-10.602,8.901-10.602,8.901l8.107,4.649c0,0,8.872-11.849,9.893-12.019
	c1.02-0.17,0.907-0.963,2.126-3.118c1.219-2.183,2.438-5.981,3.6-9.893C149.992,275.778,146.137,276.062,144.181,276.09z
	 M179.898,297.237c0,0-6.009,11.14-6.009,12.302s-1.162,3.231-0.595,5.556c0.539,2.324,1.332,5.754,3.77,7.653
	c2.438,1.871,5.556,2.211,6.208,0.652c0.68-1.559,1.106-2.438-0.539-5.754c-1.672-3.345-2.353-6.321-2.353-6.321l7.767-10.544
	L179.898,297.237z M404.288,313.706l-10.12,2.154l1.871,9.411c0.283-0.028,0.51-0.028,0.51-0.028s-0.085,0.17,0.057,0.368
	c0.057,0,0.057,0,0.057,0s0,0.028,0,0.057c0.312,0.368,1.304,0.822,4.507,0.907c3.317,0.085,4.961-1.049,5.839-1.871
	C404.685,319.999,404.288,313.706,404.288,313.706z M294.899,236.15c-5.698,11.594-20.098,40.536-21.883,40.933
	c-2.239,0.51-11.735,1.332-12.472,2.069c-0.765,0.765,1.729,1.417,4.224,1.417s2.835,0,2.835,0s12.331-0.085,12.813-0.085
	c0.51,0,0.085-1.559,0.085-2.891c0-1.049,15.392-23.131,22.28-32.967L294.899,236.15z M377.784,314.755l-10.148,0.454l0.085,6.917
	c0.312,0.028,0.539,0.085,0.539,0.085s-0.113,0.142,0,0.369c0.028,0,0.057,0.028,0.057,0.028s-0.028,0-0.028,0.028
	c0.227,0.425,1.134,1.077,4.28,1.729c3.231,0.68,5.046-0.17,6.066-0.793C377.784,320.509,377.699,317.022,377.784,314.755z
	 M358.225,181.243c-0.85,1.502-0.595,4.082-1.786,7.427c-1.219,3.345-5.244,5.981-5.244,5.981l-13.294,17.49
	c0.397,0.567,0.822,1.162,1.219,1.729c0,0.028,0.028,0.057,0.028,0.057c0.397,0.567,0.794,1.134,1.162,1.673
	c0.057,0.057,0.085,0.113,0.113,0.142c0.34,0.51,0.68,0.992,1.021,1.446c0.425,0.652,0.85,1.275,1.304,1.899l10.857-20.353
	c0,0,2.948-1.701,4.875-4.451c1.956-2.721,1.616-8.986,1.843-10.8c0.198-1.843-0.964-4.167-0.964-4.167
	S359.076,179.712,358.225,181.243z M329.794,165.709c-0.283,0.085-0.595,0.17-0.907,0.199c-4.45,0.567-9.666,2.041-10.12,6.378
	c-0.453,4.309-1.927,4.762-2.494,2.948c-0.595-1.814,0.113-3.657,0.113-3.657s-0.227-1.587-2.183-1.36
	c-1.928,0.227-2.835,1.474-1.474,4.677c1.361,3.175,0.794,4.875-1.361,7.965c-2.098,2.976-3.118,3.628-4.536,3.458
	c0.879,2.154,1.701,4.366,1.531,5.357c-0.113,0.567-0.369,2.069-0.624,3.657c2.268-2.948,7.058-5.301,13.861-4.252
	c0.142,0,0.369,0.142,0.624,0.34c0.198-2.098,0.737-4.054,1.956-4.621c2.693-1.19,3.175-0.312,4.479-3.062
	c1.332-2.778-0.397-4.96,0.765-6.576s3.175-0.822,1.559-2.636C329.482,172.853,329.283,171.974,329.794,165.709z"></path>
<path id="color_x5F_4" fill="#ffb785" d="M253.753,232.664l-0.286-20.201c-4.998,7.678-8.74,14.359-13.132,20.201H253.753z
	 M265.7,205.706c-0.098-1.85-0.183-5.799,0.411-10.457c-0.416,0.498-0.825,0.993-1.226,1.485c0.162,3.699-0.052,6.964-0.255,8.973
	H265.7z M258.335,205.314c-0.094,0.131-0.186,0.261-0.279,0.392h1.242C258.973,205.579,258.65,205.45,258.335,205.314z
	 M260.159,202.803c-0.115,0.154-0.223,0.305-0.336,0.459c0.703,1.004,1.216,1.857,1.539,2.444h1.091
	C261.631,204.764,260.868,203.793,260.159,202.803z M148.474,276.918c-0.029-0.028-0.052-0.061-0.082-0.087
	C148.422,276.857,148.446,276.891,148.474,276.918z M115.081,325.001c-0.014,0.077-0.024,0.155-0.034,0.233
	C115.057,325.156,115.067,325.078,115.081,325.001z M115.26,324.357c0.03-0.082,0.068-0.162,0.104-0.242
	C115.327,324.196,115.29,324.275,115.26,324.357z M328.888,165.908c0.233-0.022,0.462-0.077,0.682-0.138
	C329.347,165.827,329.121,165.878,328.888,165.908z M312.089,172.066c0.103-1.167,0.909-1.708,2.114-1.849
	C312.998,170.358,312.192,170.899,312.089,172.066z M312.729,174.894c1.36,3.174,0.793,4.875-1.361,7.965
	c-0.001,0.001-0.002,0.003-0.003,0.004c0.001-0.001,0.002-0.003,0.003-0.004C313.523,179.769,314.09,178.069,312.729,174.894z
	 M128.152,336.383c-0.014,0-0.022,0-0.043,0v0.001c0.081,0.018,0.175,0.031,0.257,0.049
	C128.294,336.417,128.224,336.399,128.152,336.383z M300.455,220.05 M316.296,190.953c-0.336,0.04-0.665,0.088-0.986,0.146
	C315.631,191.041,315.96,190.993,316.296,190.953z M321.845,151.543c4.268-0.791,6.634-1.575,8.158-2.517
	C327.271,149.711,324.55,150.555,321.845,151.543z M320.277,190.917c0.335,0.031,0.677,0.076,1.023,0.125
	C320.955,190.993,320.611,190.947,320.277,190.917z M318.767,172.286c-0.283,2.693-0.965,3.88-1.575,3.949
	C317.802,176.166,318.484,174.979,318.767,172.286c0.397-3.795,4.441-5.398,8.426-6.119
	C323.207,166.888,319.164,168.491,318.767,172.286z M318.976,190.838c0.299,0.009,0.606,0.029,0.914,0.052
	C319.582,190.868,319.275,190.847,318.976,190.838z M316.496,190.93c0.307-0.033,0.621-0.056,0.94-0.073
	C317.116,190.874,316.803,190.898,316.496,190.93z M318.628,190.835c-0.309-0.003-0.614-0.003-0.912,0.008
	C318.014,190.833,318.319,190.831,318.628,190.835z M298.017,225.719l-0.284,0.68l0.001,0.002l-3.769,8.757l0.93,1
	c-5.7,11.599-20.095,40.528-21.879,40.925c-2.239,0.51-11.735,1.332-12.472,2.069c-0.765,0.765,1.729,1.417,4.224,1.417
	s2.835,0,2.835,0s12.331-0.085,12.813-0.085c0.51,0,0.085-1.559,0.085-2.891c0-1.049,15.388-23.125,22.277-32.963l2.185,2.348
	l2.234-2.103l0.005,0.005l0.481-0.453l-11.962-13.323l-0.283,0.68l0,0l0.283-0.68l11.962,13.323l2.125-1.955
	c0.595,1.956,1.247,3.967,1.956,6.065c6.878,20.823,8.827,24.803,12.416,23.078l-0.424,1.301c0,0,2.664,6.321,15.307,9.326
	c0.231,0.055,0.472,0.104,0.709,0.155v69.946h43.058v-19.049h-24.803v-49.528c1.616-0.002,3.213-0.018,4.762-0.039
	c-0.074,0.025-0.149,0.05-0.199,0.075l3.09,31.493l14.655-0.68l0.397-27.862c4.573,7.719,8.901,30.1,8.901,30.1l4.539-0.973
	l1.864,9.376c-0.417,0.035-0.976,0.147-1.243,0.498c-0.106,0.131-0.127,0.548-0.097,1.115c-0.323-0.078-0.669-0.107-1.038-0.065
	c-3.175,0.34-6.378,1.276-8.674,0.34c-2.324-0.935-4.819-3.855-5.244-4.138c-0.379-0.237-1.553,1.608-4.904,1.606
	c1.861-0.004,3.048-0.581,3.799-1.039c-0.851-3.063-0.936-6.55-0.851-8.817l-10.148,0.454l0.085,6.917
	c0.312,0.028,0.539,0.085,0.539,0.085s-0.113,0.142,0,0.369c0.028,0,0.057,0.028,0.057,0.028s-0.028,0-0.028,0.028
	c0.054,0.101,0.15,0.216,0.302,0.339c-0.569-0.453-0.332-0.764-0.332-0.764s-1.276-0.312-1.843,0.198
	c-0.567,0.482-0.51,6.916-0.51,7.965c0,1.02,0.851,2.551,1.786,2.636c0.936,0.085,9.014,0.453,9.383,0.085
	c0.34-0.368,0.595-0.652,2.863-0.255c2.148,0.398,12.559,1.936,15.724,0.507c0.027,0.14,0.05,0.263,0.066,0.343
	c0.17,1.021,1.304,2.353,2.239,2.268c0.907-0.085,8.929-1.162,9.213-1.587s0.454-0.765,2.806-0.765
	c2.324,0,14.145-0.425,16.016-2.778c1.87-2.382-0.567-6.577-3.629-5.67c-3.09,0.935-6.038,2.438-8.476,1.927
	c-2.466-0.51-5.414-2.948-5.924-3.118c-0.289-0.119-0.8,0.893-2.289,1.693c0.574-0.31,1.003-0.654,1.325-0.956
	c-2.313-4.682-2.717-10.933-2.721-10.992l3.997-0.856c0,0-5.669-33.278-10.997-42.916c-5.329-9.666-11.65-13.323-23.272-16.328
	c-11.651-2.976-17.972-5.981-17.972-5.981l-1.191,0.454c-0.227,0.141-0.454,0.283-0.709,0.425
	c-8.901,5.272-18.142,14.06-25.484,19.814c-1,0.8-1.872,1.52-2.658,2.111c0.783-0.594,1.653-1.318,2.657-2.112
	c7.342-5.754,16.583-14.542,25.484-19.814c8.93-5.273,2.608-10.545-3.146-17.887c-2.083-2.648-6.145-8.508-10.61-14.925
	c0.01,0.014,0.027,0.036,0.036,0.046c0.34,0.51,0.68,0.992,1.021,1.446c0.425,0.652,0.85,1.275,1.304,1.899l10.857-20.353
	c0,0,2.948-1.701,4.875-4.451c1.956-2.721,1.616-8.986,1.843-10.8c0.198-1.843-0.964-4.167-0.964-4.167s-0.283,0.396-1.134,1.927
	c-0.85,1.502-0.595,4.082-1.786,7.427c-1.219,3.345-5.244,5.981-5.244,5.981l-13.29,17.484
	c-7.167-10.264-14.62-20.702-16.274-21.046c0.143,0.015,0.353,0.142,0.593,0.329c0.198-2.098,0.737-4.054,1.956-4.621
	c2.693-1.19,3.175-0.312,4.479-3.062c1.332-2.778-0.397-4.96,0.765-6.576c1.162-1.616,3.175-0.822,1.559-2.636
	c-1.501-1.671-1.7-2.55-1.189-8.814c3.903-1.16,6.424-6.352,7.399-11.623c0.406-2.268,0.157-4.543-0.336-6.468
	c59.897-9.635,121.851,49.068,115.337,113.334c-7.994,78.86,10.715,82.205,44.646,108.17c33.931,25.937,3.94,83.48-73.928,98.107
	c-93.317,17.546-196.498,17.149-253.559-4.649c-13.872-5.299-26.977-11.402-38.785-18.361c0.122-0.143,0.21-0.294,0.233-0.461
	c0.227-1.644,3.515-4.28,5.443-2.636c1.899,1.644,0.227,5.159,0.227,5.159h1.616c0,0,0.368-2.04,0.68-4.365
	c0.311-2.324,0.538-6.945,0.368-7.342c-0.141-0.396-1.985-0.994-1.985-0.994s-0.14,0.818-0.864,1.969
	c0.229-0.367,0.392-0.712,0.525-1.003l2.277-11.107l3.25,0.222l5.16-18.34l5.953,3.94l1.021-1.662l9.494,5.857l-0.028,0.142
	c0,0,0.538,0.962,0.963,2.434c-2.067,0.642-1.177,0.497,0.312,3.972c1.531,3.6-3.43,12.926-1.899,14.088
	c1.559,1.134,2.806-1.049,5.613-5.981c2.778-4.932,5.131-9.865,3.798-10.885c-1.332-1.021-2.013-5.188,0.369-6.038
	c2.382-0.85,4.62,2.353,4.62,2.353l0.552-0.966c0.867,8.423,3.352,15.307,7.471,20.612c5.216,6.746,12.387,10.12,21.487,10.12
	c8.135,0,14.57-2.608,19.332-7.824c4.762-5.216,7.398-12.529,7.909-21.997h-17.291c-0.284,3.797-1.248,6.745-2.892,8.786
	c-1.672,2.041-3.912,3.062-6.746,3.062c-3.685,0-6.463-1.672-8.362-5.018c-1.899-3.345-2.863-8.277-2.863-14.797
	c0-6.661,0.907-11.65,2.693-14.938c1.786-3.288,4.45-4.932,8.05-4.932c2.92,0,5.187,0.936,6.803,2.806
	c1.644,1.871,2.58,4.621,2.835,8.306h17.461c-0.567-9.326-3.203-16.498-7.909-21.515c-4.734-5.017-11.197-7.512-19.446-7.512
	c-8.901,0-15.959,3.373-21.118,10.12c-5.187,6.747-7.767,15.959-7.767,27.666c0,2.212,0.094,4.335,0.28,6.37
	c-0.555-0.46-1.785-1.464-3.143-2.488c-1.87-1.417-5.782-3.911-6.208-3.968c-0.425-0.057-1.843,1.248-1.843,1.248
	s0.29,0.245,0.671,0.757l-8.532-7.438l0.719-1.171l-7.934-9.351l16.549-59.017c3.189-1.424,0.937-1.372,0.937-11.428
	c0-12.217,1.106-32.74,2.438-33.846c1.332-1.106,11.877-1.446,11.877-1.446l-6.094,12.699l2.208,0.907
	c-0.62,1.152-5.949,11.095-5.949,12.19c0,1.162-1.162,3.231-0.595,5.556c0.539,2.324,1.332,5.754,3.77,7.653
	c2.438,1.871,5.556,2.211,6.208,0.652c0.68-1.559,1.106-2.438-0.539-5.754c-1.672-3.345-2.353-6.321-2.353-6.321l7.767-10.544
	l-0.884-0.38l2.783,1.144c0,0,7.847-11.827,12.275-20.646l13.633,71.443h18.399l6.236-43.001l6.491,43.001h18.085l13.493-71.745
	h-17.32l-5.981,46.318l-6.86-46.318h-15.109l-7.172,46.318l-6.18-46.318h-17.563c2.33-4.687,3.642-8.463,2.199-9.042
	c-7.878-3.159-16.734-4.626-24.421-5.261c0.186,0.015,0.367,0.027,0.554,0.044c-0.075-1.753-0.23-3.453-0.434-5.112
	c2.486-0.537,5.021-1.073,7.634-1.605c24.989-5.096,37.591-11.515,46.26-19.984h22.65v7.88h1.474v-7.88h20.098v-6.973h-4.961
	v-26.958h-3.028c11.764-3.648,15.359-13.776,15.359-13.776c-10.897,3.294-16.643,11.198-18.275,13.776h-0.605
	c6.927-6.888,9.223-15.539,9.847-22.156c5.627-5.642,12.296-11.652,20.371-18.068c0.371-0.294,0.747-0.565,1.12-0.852
	c-0.436,2.323-0.461,4.801-0.298,7.259c0.567,8.532,7.228,14.173,8.702,14.4c0.262,0.04,0.508,0.052,0.748,0.033
	c-0.206,0.019-0.415,0.021-0.635-0.005c0.879,2.154,1.701,4.366,1.531,5.357c-0.113,0.567-0.369,2.069-0.624,3.657
	c1.472-1.914,4.013-3.57,7.471-4.214c-4.069,0.763-6.869,2.932-8.15,5.262c-2.75,4.99-3.968,10.234-3.685,16.895
	c0,0,0.312-0.876,0.818-2.151c-0.506,1.276-0.818,2.151-0.816,2.151l-0.595,1.333 M311.257,240.459l-0.063,0.089l-0.057,0.08
	l0.118-0.169 M302.779,214.607l-0.284,0.68l0.002,0.002l-4.478,10.43 M284.723,352.341h46.517v-17.432h-0.001h-28.261v-11.112
	h22.961v-16.441h-22.961v-9.553h27.156v-17.207h-45.411V352.341z M298.726,405.52c0-11.707-2.637-20.919-7.909-27.666
	s-12.444-10.12-21.543-10.12c-9.156,0-16.356,3.373-21.628,10.12c-5.301,6.747-7.937,15.959-7.937,27.666
	c0,11.65,2.636,20.863,7.937,27.638c5.272,6.746,12.472,10.148,21.628,10.148c9.099,0,16.271-3.402,21.543-10.148
	C296.09,426.383,298.726,417.17,298.726,405.52z M371.151,369.577h-22.195l-8.05,35.943c-0.227,0.907-0.51,2.268-0.822,4.054
	c-0.312,1.814-0.652,3.912-0.992,6.321c-0.567-3.062-1.021-5.442-1.332-7.2c-0.283-1.729-0.51-2.834-0.595-3.316l-7.88-35.802
	H307.06v71.717h16.526v-34.611c0-1.333-0.028-3.09-0.057-5.301c-0.057-2.211-0.113-4.848-0.198-7.937
	c0.567,3.43,0.992,6.151,1.332,8.164c0.34,2.013,0.652,3.798,0.992,5.357l7.115,34.328h12.728l7.002-35.093l0.113-0.652
	c0.879-4.365,1.644-8.418,2.239-12.104c-0.028,2.154-0.028,4.28-0.057,6.292c0,2.041,0,4.11,0,6.265l-0.17,35.292h16.526V369.577z
	 M428.383,423.86h-28.262v-11.083h22.961v-16.469h-22.961v-9.553h27.156v-17.178h-45.411v71.717h46.517V423.86z M397.065,325.96
	c0.572,0.287,1.737,0.563,4.097,0.615C398.785,326.511,397.63,326.244,397.065,325.96z M397.021,325.936
	c-0.076-0.04-0.141-0.08-0.195-0.12C396.879,325.856,396.946,325.896,397.021,325.936z M308.336,186.083
	c0.001,0,0.002-0.001,0.003-0.002C308.338,186.082,308.337,186.082,308.336,186.083z M396.615,325.611
	c0.042,0.061,0.106,0.125,0.193,0.191c-0.059-0.045-0.107-0.09-0.144-0.134c0-0.029,0-0.057,0-0.057
	S396.658,325.611,396.615,325.611z M307.901,186.246c-0.034,0.01-0.069,0.02-0.104,0.028
	C307.832,186.266,307.866,186.255,307.901,186.246z M396.535,325.29c-0.001,0.005-0.002,0.01-0.003,0.016
	C396.533,325.301,396.534,325.294,396.535,325.29z M374.619,324.608c-0.228-0.005-0.467-0.021-0.715-0.045
	C374.151,324.587,374.392,324.603,374.619,324.608z M396.564,325.524c0.002,0.004,0.004,0.008,0.006,0.012
	C396.568,325.532,396.565,325.528,396.564,325.524z M368.629,323.006c0.058,0.044,0.128,0.09,0.203,0.137
	C368.758,323.096,368.686,323.05,368.629,323.006z M371.611,324.148c0.296,0.072,0.608,0.144,0.958,0.217
	c0.372,0.078,0.721,0.132,1.056,0.172c-0.336-0.041-0.685-0.094-1.057-0.172C372.221,324.293,371.906,324.22,371.611,324.148z
	 M402.254,326.554c-0.339,0.02-0.695,0.03-1.078,0.021C401.559,326.585,401.914,326.575,402.254,326.554z M369.751,323.586
	c-0.045-0.017-0.083-0.034-0.126-0.051C369.667,323.551,369.706,323.568,369.751,323.586z M370.155,323.731
	c0.065,0.022,0.131,0.044,0.2,0.066C370.287,323.775,370.22,323.753,370.155,323.731z M370.813,323.936
	c0.104,0.03,0.218,0.06,0.331,0.09C371.031,323.996,370.917,323.966,370.813,323.936z M338.692,213.262
	c0.148,0.212,0.294,0.421,0.441,0.632c-0.006-0.01-0.012-0.012-0.012-0.025C338.98,213.671,338.836,213.466,338.692,213.262z
	 M310.858,241.026l0.001-0.001l-0.004-0.004l-0.001,0.002L310.858,241.026z M310.855,241.02l0.252-0.35l0.03-0.042L310.855,241.02
	L310.855,241.02z M121.954,334.131c-0.014-0.007-0.029-0.014-0.043-0.022C121.925,334.117,121.94,334.124,121.954,334.131z
	 M124.678,438.599c2.371-3.078,1.679-3.763,3.411-2.116c-0.024-0.039-0.046-0.07-0.093-0.093c1.049-1.105,1.644-2.069,1.644-2.069
	l0.113-0.057l0.425-11.368l3.684,0.187l-7.71-0.526l0.7-30.821l-21.562-14.194l14.939-44.419c0.031,0.02,0.068,0.038,0.1,0.059
	c-2.878-1.868-4.709-4.146-5.192-6.272c-11.863-4.235-21.922-12.658-26.273-22.664c-8.064,11.79-10.972,25.64-13.99,42.54
	c-7.149,40.053,14.052,70.542,48.429,92.932C123.879,439.389,124.356,439.021,124.678,438.599z M165.639,331.678
	c0.994-0.429,1.764-0.748,2.383-1.018C167.402,330.925,166.624,331.245,165.639,331.678z M160.892,266.168
	c0.024-0.002,0.062-0.005,0.092-0.008C160.956,266.162,160.914,266.165,160.892,266.168L160.892,266.168z M167.728,407.521
	c0.18,0.258,0.377,0.56,0.577,0.93C168.107,408.078,167.909,407.772,167.728,407.521z M403.225,326.45
	c-0.226,0.035-0.465,0.062-0.714,0.083C402.76,326.512,402.999,326.485,403.225,326.45z M178.536,266.164
	c0.28,0.019,0.562,0.04,0.845,0.061C179.098,266.204,178.816,266.183,178.536,266.164z M177.399,266.092
	c-0.179-0.011-0.36-0.022-0.537-0.032C177.039,266.07,177.22,266.082,177.399,266.092z M403.476,326.408
	c0.228-0.042,0.444-0.09,0.648-0.144C403.919,326.318,403.704,326.366,403.476,326.408z M269.274,385.735
	c-3.855,0-6.661,1.587-8.447,4.791c-1.814,3.175-2.721,8.164-2.721,14.995c0,6.775,0.907,11.764,2.721,14.939
	c1.786,3.175,4.592,4.762,8.447,4.762c3.798,0,6.576-1.559,8.362-4.734c1.758-3.175,2.665-8.165,2.665-14.968
	c0-6.86-0.907-11.877-2.665-15.023C275.85,387.322,273.072,385.735,269.274,385.735z M404.286,326.223
	c0.518-0.149,0.963-0.333,1.342-0.533C405.248,325.889,404.806,326.074,404.286,326.223z"></path>
<path id="color_x5F_3" fill="#811790" d="M261.394,205.763h-1.956c-11.792-4.536-17.603-14.882-17.603-14.882
	C253.939,193.744,259.863,202.957,261.394,205.763L261.394,205.763z M276.616,173.391L276.616,173.391
	c-11.395,8.901-11.168,27.694-10.913,32.372h1.219C280.074,192.751,276.616,173.391,276.616,173.391L276.616,173.391z
	 M255.866,205.479L255.866,205.479c0,0-5.669-2.58-13.38-3.515C242.487,201.964,248.723,205.479,255.866,205.479L255.866,205.479z
	 M251.019,169.252L251.019,169.252c0,0-1.474,21.713,11.48,36.51h2.126c0.482-4.734,1.077-16.639-3.6-24.604
	C255.072,171.01,251.019,169.252,251.019,169.252L251.019,169.252z M235.258,183.709L235.258,183.709
	c-2.608,0-4.734,2.126-4.734,4.762l0,0c-12.728,2.069-17.206,12.785-18.624,17.83c-0.709-3.572-3.175-9.751-11.565-13.323
	c0-0.085,0.028-0.142,0.028-0.198c0-2.636-2.126-4.762-4.762-4.762c-2.608,0-4.734,2.126-4.734,4.762
	c0,2.607,2.126,4.733,4.734,4.733c2.239,0,4.11-1.559,4.62-3.628c11.395,4.932,11.083,14.655,11.083,15.108l0.567,0.028l0.51,0.142
	c0.028-0.057,1.616-6.009,8.929-7.908c0.567,2.012,2.381,3.486,4.564,3.486c2.636,0,4.762-2.126,4.762-4.734
	c0-2.636-2.126-4.762-4.762-4.762c-2.608,0-4.734,2.126-4.734,4.762c0,0.113,0.028,0.255,0.028,0.369
	c-4.592,1.19-7.087,3.883-8.391,5.924c1.389-4.96,5.641-14.995,17.83-16.951c0.425,2.183,2.353,3.855,4.649,3.855
	c2.636,0,4.762-2.126,4.762-4.734C240.02,185.835,237.894,183.709,235.258,183.709L235.258,183.709z M267.545,205.763
	L267.545,205.763h2.778c11.906-3.6,15.534-13.833,15.534-13.833C274.887,195.246,269.132,203.24,267.545,205.763L267.545,205.763z
	 M204.672,271.555c-18.312-7.342-41.924-5.556-43.795-5.386l-0.312,1.956c0,0-0.028,0.028-4.876-0.113
	c-4.847-0.142-6.548-0.482-6.548-0.482s0.255-0.425,0-0.822c-0.028,0-37.106,20.778-34.554,42.293
	c0.539,4.507,6.038,5.188,8.221,5.046c-2.863,3.968-5.613,7.256-7.087,9.411c-3.317,4.876,5.159,13.493,18.907,13.691
	c13.776,0.227,23.924-2.381,31.011-5.471c7.087-3.118,3.77-0.454,3.77-12.643c0-12.217,1.106-32.74,2.438-33.846
	s11.877-1.446,11.877-1.446l-6.094,12.699l12.416,5.103C190.046,301.545,208.839,273.227,204.672,271.555L204.672,271.555z
	 M148.858,279.719L148.858,279.719c-1.162,3.912-2.381,7.71-3.6,9.893c-1.219,2.155-1.106,2.948-2.126,3.118
	c-1.021,0.17-9.893,12.019-9.893,12.019l-8.107-4.649c0,0,10.318-7.795,10.602-8.901c0.283-1.105-0.794-1.502-0.624-2.551
	c0,0-0.765-3.685,1.049-5.159c1.786-1.474,1.871,0.737,3.232-2.041c1.389-2.778,2.835-5.329,4.791-5.357
	C146.137,276.062,149.992,275.778,148.858,279.719L148.858,279.719z M327.583,213.756L327.583,213.756
	c0.085-0.255,0.142-0.482,0.198-0.708C327.724,213.274,327.668,213.501,327.583,213.756L327.583,213.756z M327.583,213.756
	L327.583,213.756L327.583,213.756L327.583,213.756L327.583,213.756z M327.781,213.048L327.781,213.048c0,0,0-0.028,0.028-0.057l0,0
	C327.809,213.02,327.781,213.048,327.781,213.048L327.781,213.048z M325.4,218.774L325.4,218.774
	c0.028-0.057,0.057-0.114,0.085-0.17C325.457,218.66,325.428,218.717,325.4,218.774L325.4,218.774z M327.923,212.368
	L327.923,212.368c-0.028,0.17-0.057,0.396-0.113,0.624l-13.776-15.307c2.381-0.879,5.074-1.049,7.88,0.368
	C326.25,200.207,328.263,209.022,327.923,212.368L327.923,212.368z M322.877,223.621L322.877,223.621
	c0.085-0.199,0.198-0.425,0.312-0.624l0,0C323.076,223.196,322.962,223.422,322.877,223.621L322.877,223.621z M309.356,200.859
	L309.356,200.859c0.142-0.17,0.283-0.34,0.425-0.51C309.639,200.519,309.498,200.688,309.356,200.859L309.356,200.859z
	 M313.381,197.939L313.381,197.939l14.202,15.817c-0.425,1.304-1.219,3.033-2.098,4.847c0.085-0.17,0.17-0.312,0.227-0.482
	l-15.931-17.773c0.283-0.312,0.567-0.595,0.822-0.794C311.453,198.931,312.389,198.393,313.381,197.939L313.381,197.939z
	 M309.356,200.859L309.356,200.859v0.028l0,0C309.356,200.887,309.356,200.887,309.356,200.859L309.356,200.859z M309.356,200.887
	L309.356,200.887l16.044,17.887c-0.709,1.445-1.502,2.919-2.211,4.224l-16.214-18.085
	C307.74,203.382,308.562,201.936,309.356,200.887L309.356,200.887z M304.537,210.27L304.537,210.27l15.846,17.603l-5.981,8.249
	l0.198-0.283l-14.145-15.789l-0.283,0.68l14.031,15.647l-4.394,6.094l-2.126,1.956l-11.962-13.323l-0.283,0.68l11.764,13.096
	l0.17-0.17l-2.409,2.268l-10.998-11.82l3.77-8.759l13.125,14.627l0.397-0.567l-13.238-14.74l4.479-10.432l14.939,16.639l0.397-0.567
	l-15.052-16.752l0.595-1.333C303.375,213.274,303.828,211.999,304.537,210.27L304.537,210.27z M304.82,209.589L304.82,209.589h0.028
	c-0.113,0.227-0.198,0.454-0.283,0.681C304.65,210.043,304.735,209.816,304.82,209.589L304.82,209.589z M320.78,227.334
	L320.78,227.334h-0.028H320.78L320.78,227.334z M322.849,223.621L322.849,223.621c-1.162,2.126-2.041,3.657-2.069,3.713
	l-15.931-17.745c0.51-1.247,1.134-2.636,1.814-4.025L322.849,223.621z"></path>
<path id="color_x5F_2" fill="#e66724" d="M142.338,423.662l-16.186-1.105l0.7-30.821l-21.562-14.194l14.939-44.419
	c2.126,1.389,4.819,2.551,7.937,3.26c-0.029,0-0.029,0-0.057,0v0.001c8.258,1.858,25.143,0.695,37.53-4.706
	c1.248-0.539,2.155-0.907,2.834-1.219l-16.55,59.021l7.934,9.351l-6.406,10.431l-5.953-3.94 M214.282,422.273
	c-1.672,2.041-3.912,3.062-6.746,3.062c-3.685,0-6.463-1.672-8.362-5.018c-1.899-3.345-2.863-8.277-2.863-14.797
	c0-6.661,0.907-11.65,2.693-14.938s4.45-4.932,8.05-4.932c2.92,0,5.187,0.936,6.803,2.806c1.644,1.871,2.58,4.621,2.835,8.306
	h17.461c-0.567-9.326-3.203-16.498-7.909-21.515c-4.734-5.017-11.197-7.512-19.446-7.512c-8.901,0-15.959,3.373-21.118,10.12
	c-5.187,6.747-7.767,15.959-7.767,27.666c0,11.708,2.608,20.948,7.824,27.667c5.216,6.746,12.387,10.12,21.487,10.12
	c8.135,0,14.57-2.608,19.332-7.824s7.398-12.529,7.909-21.997h-17.291C216.89,417.284,215.926,420.232,214.282,422.273z
	 M317.831,231.359l-15.052-16.752l-0.284,0.68l14.939,16.639L317.831,231.359z M340.906,405.52c-0.227,0.907-0.51,2.268-0.822,4.054
	c-0.312,1.814-0.652,3.912-0.992,6.321c-0.567-3.062-1.021-5.442-1.332-7.2c-0.283-1.729-0.51-2.834-0.595-3.316l-7.88-35.802
	H307.06v71.717h16.526v-34.611c0-1.333-0.028-3.09-0.057-5.301c-0.057-2.211-0.113-4.848-0.198-7.937
	c0.567,3.43,0.992,6.151,1.332,8.164s0.652,3.798,0.992,5.357l7.115,34.328h12.728l7.002-35.093l0.113-0.652
	c0.879-4.365,1.644-8.418,2.239-12.104c-0.028,2.154-0.028,4.28-0.057,6.292c0,2.041,0,4.11,0,6.265l-0.17,35.292h16.526v-71.717
	h-22.195L340.906,405.52z M341.699,257.807l-0.624,0.284c0.057,0.085,3.855,8.504,14.23,10.176c3.345,0.539,6.69,0.822,9.893,1.105
	c6.718,0.624,13.068,1.162,18.652,3.855c8.05,3.884,15.194,41.131,15.279,41.528l0.652-0.142
	c-0.284-1.531-7.285-37.984-15.647-41.981c-5.698-2.75-12.104-3.316-18.879-3.912c-3.203-0.284-6.52-0.567-9.836-1.105
	C345.413,265.999,341.728,257.892,341.699,257.807z M339.772,282.383v69.959h43.058v-19.049h-24.803v-49.55
	C351.677,283.772,345.044,283.545,339.772,282.383z M400.121,423.86v-11.083h22.961v-16.469h-22.961v-9.553h27.156v-17.178h-45.411
	v71.717h46.517V423.86H400.121z M331.24,334.909h-0.001h-28.261v-11.112h22.961v-16.441h-22.961v-9.553h27.156v-17.207h-45.411
	v71.745h46.517V334.909z M307.683,244.427l-11.962-13.323l-0.283,0.68l11.764,13.096L307.683,244.427z M290.817,377.854
	c5.272,6.747,7.909,15.959,7.909,27.666c0,11.65-2.636,20.863-7.909,27.638c-5.272,6.746-12.444,10.148-21.543,10.148
	c-9.156,0-16.356-3.402-21.628-10.148c-5.301-6.775-7.937-15.988-7.937-27.638c0-11.707,2.636-20.919,7.937-27.666
	c5.272-6.747,12.472-10.12,21.628-10.12C278.373,367.734,285.545,371.107,290.817,377.854z M280.301,405.52
	c0-6.86-0.907-11.877-2.665-15.023c-1.786-3.175-4.564-4.762-8.362-4.762c-3.855,0-6.661,1.587-8.447,4.791
	c-1.814,3.175-2.721,8.164-2.721,14.995c0,6.775,0.907,11.764,2.721,14.939c1.786,3.175,4.592,4.762,8.447,4.762
	c3.798,0,6.576-1.559,8.362-4.734C279.394,417.313,280.301,412.323,280.301,405.52z M234.353,352.342l6.236-43.001l6.491,43.001
	h18.085l13.493-71.745h-17.32l-5.981,46.318l-6.86-46.318h-15.109l-7.172,46.318l-6.18-46.318h-17.773l13.691,71.745H234.353z
	 M311.137,240.628l0.118-0.169l-13.238-14.74l-0.284,0.68l13.12,14.622L311.137,240.628z M310.858,241.026l0.279-0.398l3.066-4.251
	l-14.031-15.647l0.283-0.68l14.145,15.789l-0.198,0.283l5.981-8.249l-15.846-17.603c-0.709,1.729-1.162,3.004-1.162,3.004
	c-0.283-6.661,0.935-11.905,3.685-16.895c1.871-3.401,6.973-6.463,14.542-5.301c2.806,0.425,23.641,32.23,29.395,39.543
	c5.754,7.342,12.076,12.614,3.146,17.887c-8.901,5.272-18.142,14.06-25.484,19.814c-7.313,5.783-7.682,8.107-16.895-19.786
	c-0.709-2.098-1.361-4.11-1.956-6.066l1.045-1.449L310.858,241.026z M314.033,197.684l13.776,15.307
	c0.057-0.227,0.085-0.454,0.113-0.624c0.34-3.345-1.672-12.161-6.01-14.315C319.107,196.635,316.414,196.805,314.033,197.684z
	 M309.781,200.349l15.931,17.773c-0.057,0.17-0.142,0.312-0.227,0.482c0.879-1.814,1.672-3.543,2.098-4.847l-14.202-15.817
	c-0.992,0.454-1.928,0.992-2.778,1.616C310.348,199.753,310.065,200.037,309.781,200.349z M306.975,204.912l16.214,18.085
	c0.709-1.304,1.502-2.778,2.211-4.224l-16.044-17.887C308.562,201.936,307.74,203.382,306.975,204.912z M320.78,227.334
	c0.028-0.057,0.907-1.587,2.069-3.713l-16.186-18.057c-0.68,1.389-1.304,2.778-1.814,4.025L320.78,227.334z"></path>
<path id="color_x5F_1" fill="#b45cba" d="M139.135,434.575c0.17,0.397-0.057,5.018-0.368,7.342c-0.312,2.325-0.68,4.365-0.68,4.365
	h-1.616c0,0,1.672-3.515-0.227-5.159c-1.928-1.644-5.216,0.992-5.443,2.636c-0.227,1.672-5.669,2.069-11.339,2.069
	s-8.192,0-7.965-1.928s10.8-2.183,13.181-5.301c2.381-3.09,1.672-3.77,3.43-2.098c1.786,1.644,7.37,0.312,8.135-0.879
	c0.765-1.19,0.907-2.041,0.907-2.041S138.994,434.179,139.135,434.575z M180.805,266.338c-10.432-0.907-18.822-0.255-19.928-0.17
	l0.283-2.069c0,0,3.062-0.283,5.443-2.976c2.353-2.722,2.126-8.561,2.126-8.561s1.672-1.588,1.757-3.118
	c0.085-1.559-2.807-3.289-3.742-1.276c-0.935,1.984-1.105,4.025-3.203,5.669c-2.126,1.616-3.628,2.041-3.628,2.041
	s3.543-2.353,5.159-7.71c1.588-5.385-0.85-9.864-0.85-9.864s-3.94,6.038-10.006,6.236c-6.067,0.198-9.213,1.899-9.213,1.899
	s-2.807,6.236-0.624,11.225c2.211,4.99,5.187,5.386,5.187,5.386l-0.266,2.808l-0.018,1.524l10.575-3.254l-1.332,24.35l-12.954,0.51
	c1.134-2.211,2.239-5.698,3.288-9.269c1.134-3.94-2.721-3.657-4.677-3.628c-1.956,0.028-3.402,2.58-4.791,5.357
	c-1.361,2.778-1.446,0.567-3.232,2.041c-0.255,0.198-0.453,0.454-0.595,0.708l-1.105-0.652l0.987-7.536
	c-10.26,8.078-22.334,20.408-20.86,32.992c0.539,4.507,6.038,5.188,8.221,5.046c-2.863,3.969-5.613,7.257-7.087,9.411
	c-0.709,1.02-0.879,2.211-0.567,3.458c-21.94-7.824-37.757-29.963-22.62-49.975c10.574-13.946,23.585-10.148,33.109-11.877
	c-6.718,0.028-10.375-3.629-17.036-4.422c-4.366-0.538-6.803,0.426-8.079,1.304c1.247-1.049,3.458-2.409,6.576-2.551
	c5.159-0.254,10.971,3.572,17.065,2.977c6.066-0.567,10.545-10.488,14.797-19.049c0.312-0.624,0.623-1.219,0.907-1.786
	c6.463-16.328,24.775-11.453,29.197-7.541C173.718,238.134,180.124,250.437,180.805,266.338z M148.603,276.572l8.986-2.665
	l-0.085-5.244l-8.476,2.098L148.603,276.572z M168.842,405.435c-0.425-0.057-1.843,1.248-1.843,1.248s0.68,0.567,1.332,1.814
	s-0.935,6.775-3.26,7.483c-2.296,0.708-1.389,0.454,0.142,4.025c1.531,3.6-3.43,12.926-1.899,14.088
	c1.559,1.134,2.806-1.049,5.613-5.981c2.778-4.932,5.131-9.865,3.798-10.885c-1.332-1.021-2.013-5.188,0.369-6.038
	s4.62,2.353,4.62,2.353l0.794-1.389c0,0-1.616-1.361-3.458-2.75C173.18,407.986,169.268,405.492,168.842,405.435z M380.335,314.614
	l-14.655,0.68l-3.09-31.493c0.05-0.025,0.125-0.05,0.199-0.075c-7.895,0.107-17.025,0.107-23.726-1.485
	c-12.643-3.005-15.307-9.326-15.307-9.326l0.425-1.304c1.219-0.595,2.636-1.814,4.479-3.288
	c7.342-5.754,16.583-14.542,25.484-19.814c0.255-0.142,0.482-0.284,0.709-0.425l1.191-0.454c0,0,6.321,3.005,17.972,5.981
	c11.622,3.005,17.943,6.662,23.272,16.328c5.328,9.638,10.997,42.916,10.997,42.916l-18.652,3.997c0,0-4.328-22.381-8.901-30.1
	L380.335,314.614z M422.373,325.158c-3.09,0.935-6.038,2.438-8.476,1.927c-2.466-0.51-5.414-2.948-5.924-3.118
	c-0.482-0.198-1.559,2.75-6.803,2.608c-5.244-0.113-4.62-1.332-4.62-1.332s-1.304-0.085-1.757,0.51
	c-0.106,0.131-0.127,0.548-0.097,1.115c-0.323-0.078-0.669-0.107-1.038-0.065c-3.175,0.34-6.378,1.276-8.674,0.34
	c-2.324-0.935-4.819-3.855-5.244-4.138c-0.454-0.284-2.041,2.437-7.172,1.36c-5.159-1.077-4.309-2.154-4.309-2.154
	s-1.276-0.312-1.843,0.198c-0.567,0.482-0.51,6.916-0.51,7.965c0,1.02,0.851,2.551,1.786,2.636c0.936,0.085,9.014,0.453,9.383,0.085
	c0.34-0.368,0.595-0.652,2.863-0.255c2.148,0.398,12.559,1.936,15.724,0.507c0.027,0.14,0.05,0.263,0.066,0.343
	c0.17,1.021,1.304,2.353,2.239,2.268c0.907-0.085,8.929-1.162,9.213-1.587c0.284-0.425,0.454-0.765,2.806-0.765
	c2.324,0,14.145-0.425,16.016-2.778C427.872,328.446,425.435,324.251,422.373,325.158z M337.193,154.087
	c1.02-5.697-2.07-11.48-2.864-11.48s-0.425,2.154-2.353,4.649c-1.956,2.494-4.989,3.855-19.417,5.669
	c-13.436,1.644-15.109,10.432-14.542,18.964c0.567,8.532,7.228,14.173,8.702,14.4c1.502,0.227,2.495-0.368,4.649-3.43
	c2.154-3.09,2.721-4.791,1.361-7.965c-1.361-3.203-0.454-4.451,1.474-4.677c1.956-0.227,2.183,1.36,2.183,1.36
	s-0.709,1.843-0.113,3.657c0.567,1.814,2.041,1.361,2.494-2.948c0.454-4.337,5.669-5.811,10.12-6.378
	C333.309,165.341,336.144,159.757,337.193,154.087z M273.526,205.706h-20.154l0.381,26.958h-33.717l4.049-22.591l0.204-1.135
	h-24.435l1.218,7.086h0.001h0.008l2.883,16.64h-7.71v6.973h17.971v7.88h1.474v-7.88h41.216v7.88h1.474v-7.88h20.098v-6.973h-4.961
	V205.706z"></path>
</svg>