<?xml version="1.0" standalone="no"?>
<svg version="1.1" id="Layer_1" xmlns="http://www.w3.org/2000/svg" xmlns:xlink="http://www.w3.org/1999/xlink" x="0px" y="0px" viewBox="0 0 595.28 595.28" enable-background="new 0 0 595.28 595.28" xml:space="preserve">
<path id="color_x5F_6" fill="#F2B559" d="M120.315,335.297c0,1.247-1.021,2.268-2.296,2.268c-1.247,0-2.268-1.021-2.268-2.268
	c0-1.248,1.02-2.268,2.268-2.268C119.294,333.029,120.315,334.049,120.315,335.297L120.315,335.297z M133.411,342.27L133.411,342.27
	c-1.247-0.085-2.324,0.85-2.409,2.126c-0.113,1.247,0.85,2.324,2.098,2.409s2.353-0.85,2.438-2.098
	C135.622,343.46,134.687,342.355,133.411,342.27L133.411,342.27z"></path>
<path id="color_x5F_5" fill="#ffede1" d="M204.305,315.228c0.283-1.956,1.389-3.6,2.636-4.876c0,0.199,0.028,0.312,0.028,0.312
	s5.471-3.6,9.439,0c3.94,3.6,3.09,7.568,3.6,9.609c0.51,2.069,6.86,3.26,7.71,0c0.879-3.26-1.871-10.46,1.389-14.938
	c3.26-4.45,11.849-1.304,21.798,1.616c4.479,1.332,12.302,1.247,20.296-0.454c0.454,3.515,1.276,12.359-0.737,20.126
	c-2.58,9.978-11.509,14.003-11.509,14.003s1.389,11.31-11.14,12.104c-12.529,0.766-15.959-12.019-15.959-12.019
	s-1.729,0-8.504-3.005s-7.398-10.12-7.398-10.12s-3.345,0.68-7.2-0.539C204.901,325.857,203.597,320.018,204.305,315.228
	L204.305,315.228z M393.887,278.916L393.887,278.916c-6.435,2.665-14.088,5.811-14.088,5.811s10.063-7.795,13.408-13.89
	s-0.397-10.687-7.682-7.229c-7.285,3.43-14.06,14.74-14.06,14.74s0.539-6.803,3.203-12.643c2.636-5.839-0.255-10.914-4.054-11.509
	c-3.77-0.595-5.754,2.069-8.05,10.545c-2.324,8.504-6.35,16.243-6.52,15.024c-0.17-1.191-3.713-3.345-5.499-4.791
	c-1.814-1.474-9.354-0.34-7.398,5.301c1.984,5.669,8.844,4.479,7.824,8.079s-44.249,29.452-44.249,29.452l9.978,33.704
	l51.874-49.238c0,0,10.375,3.005,17.745,1.474c7.398-1.559,7.739-3.09,5.159-5.159c-2.58-2.041-9.779-2.523-9.779-2.523
	s17.773-5.981,19.134-10.12C402.22,281.835,400.321,276.251,393.887,278.916L393.887,278.916z M252.778,415.205L252.778,415.205
	c-11.934-6.094-39.997-11.083-64.006-7.37c-24.038,3.685-25.767,5.641-25.767,5.641s-3.515,14.428-1.758,18.879
	c1.758,4.479,6.917,4.649,34.044,4.139s50.117,1.531,54.567,7.2c4.479,5.669,3.43,7.909,3.43,11.168c0,3.26-0.68,10.205,2.92,10.545
	c3.628,0.34,4.904,0.17,7.909,0.936c3.005,0.794,3.43,0.255,6.69,0s6.009,0.454,7.483-1.36c1.446-1.814,1.106-13.295-0.624-21.714
	C275.965,434.85,264.712,421.3,252.778,415.205L252.778,415.205z"></path>
<path id="color_x5F_4" fill="#ffb785" d="M217.361,436.716c-0.255-0.012-0.51-0.023-0.766-0.034
	C216.852,436.693,217.106,436.704,217.361,436.716z M216.125,436.664c-6.452-0.257-13.489-0.308-20.834-0.17
	c-4.042,0.076-7.586,0.136-10.714,0.17H216.125z M115.525,345.36l5.754-0.822l-3.146-5.641L115.525,345.36z M127.855,343.63
	l-5.499-2.948l1.105,3.572L127.855,343.63z M127.997,334.871l-6.576,1.304l7.823,3.6L127.997,334.871z M127.715,347.712l0.679-0.736
	l-4.167-0.284l0.324,1.02h2.398H127.715z M206.971,310.663c0,0-0.014-0.102-0.028-0.284c0.003,0.178,0.026,0.286,0.026,0.286
	S206.971,310.663,206.971,310.663z M334.274,419.287c0,0-0.454-0.765-2.041-0.68c-1.559,0.085-2.013,2.268-1.559,4.592
	c0.454,2.353,4.932,4.337,4.932,4.337S333.537,422.348,334.274,419.287z M554.639,452.169h-23.555v-15.505H289.911v-62.135
	l28.375-17.632c0,0-7.909-26.513-11.407-38.562l9.821,33.175l51.874-49.238c0,0,10.375,3.005,17.745,1.474
	c7.398-1.559,7.739-3.09,5.159-5.159c-2.58-2.041-9.779-2.523-9.779-2.523s17.773-5.981,19.134-10.12
	c1.387-4.109-0.512-9.693-6.946-7.028c-6.435,2.665-14.088,5.811-14.088,5.811s10.063-7.795,13.408-13.89
	c3.345-6.095-0.397-10.687-7.682-7.229c-7.285,3.43-14.06,14.74-14.06,14.74s0.539-6.803,3.203-12.643
	c2.636-5.839-0.255-10.914-4.054-11.509c-3.77-0.595-5.754,2.069-8.05,10.545c-2.324,8.504-6.35,16.243-6.52,15.024
	c-0.17-1.191-3.713-3.345-5.499-4.791c-1.814-1.474-9.354-0.34-7.398,5.301c1.984,5.669,8.844,4.479,7.824,8.079
	c-1.019,3.595-44.129,29.38-44.246,29.45c-0.904-3.121-1.478-5.156-1.478-5.298c0-0.68-36.794,19.106-36.794,19.107
	c-0.265,0.467-0.545,0.909-0.832,1.337c1.181-1.766,2.206-3.864,2.843-6.327c2.012-7.763,1.192-16.602,0.738-20.12
	c9.731-2.051,19.689-6.468,24.096-13.585c8.022-12.925,11.34-31.24,0.001-40.395c-11.339-9.155-23.925-6.179-30.331,5.5
	s-6.179,15.789-16.469,17.178c-10.29,1.361-16.47-1.162-24.038,2.977c-7.54,4.11-6.52,13.436-6.52,13.436s-0.368,0.057-0.992,0.227
	c-2.069,0.567-6.86,2.438-8.447,8.022c-1.724,5.998-1.638,9.488-1.562,10.49c-1.247,1.276-2.353,2.92-2.635,4.875
	c-0.708,4.79,0.596,10.629,4.449,11.819c3.855,1.219,7.2,0.539,7.2,0.539s0.623,7.115,7.398,10.12
	c1.333,0.591,2.464,1.063,3.432,1.444c-0.582-0.057-14.595-1.361-21.09,3.801c-6.633,5.244-27.014,30.642-31.805,43.483
	c-4.819,12.813-11.679,21.742-12.586,23.103c-0.31,0.453,0.903,1.808,2.653,3.447c-0.8,0.326-0.951,0.492-0.951,0.492
	s-3.515,14.428-1.758,18.879c1.217,3.1,4.068,4.135,14.697,4.31c-0.041,0-0.086-0.001-0.127-0.001h-71.348v15.505H87.574
	c-54-23.471-38.834-154.545,71.887-154.545c35.773,0,46.403-26.588,86.627-95.357c42.832-73.247,172.687-40.848,189.666,16.158
	c16.98,57.032-14.57,92.211,30.331,133.653s59.443,22.847,77.641,47.083C561.924,423.398,554.639,452.169,554.639,452.169z
	 M136.983,345.842l17.603-3.515l-15.619-0.168l10.261-9.864l-12.784,7.994l0.879-7.257l1.644-0.34h-1.616l1.049-8.759l-2.948,8.731
	l-6.35-0.057l-1.871-3.827l6.378-6.123l-7.172,4.479l-0.765-1.616l0.454,1.843l-5.301,3.288l1.956-16.356l-5.528,16.441l-7.2-14.854
	l3.572,14.287l-13.351-6.18l13.238,9.836l-17.178,2.381l16.441,1.134l-10.233,11.055l11.622-8.249l-0.992,5.527l-1.219,0.17
	l1.162,0.085l-1.701,9.609l3.798-9.468l7.2,0.482l0.653,1.161h-4.535c0,0,0.709,2.977,1.871,5.698
	c0.156,0.373,0.308,0.965,0.454,1.708l-2.695,2.913l2.855-2.02c0.823,5.041,1.325,14.824,0.52,17.723
	c-0.992,3.572-5.017,6.435-6.576,11.424c-1.587,5.017,7.71,51.505,7.71,51.505h4.28h1.587h4.252c0,0,9.298-46.488,7.739-51.505
	c-1.588-4.989-5.585-7.852-6.577-11.424c-1.021-3.572,0-17.603,1.134-20.324c0.206-0.483,0.397-0.973,0.574-1.454l6.427,11.461
	l-4.11-13.096l12.104,6.463L136.983,345.842z M328.435,257.769c0.227-0.793,5.272-19.814,27.666-18.879
	c0.737,0.085,1.389-0.539,1.417-1.304c0.028-0.765-0.539-1.389-1.304-1.417c-24.661-1.134-30.387,20.721-30.444,20.948
	c-0.17,0.737,0.284,1.474,1.021,1.644c0.113,0.028,0.198,0.057,0.312,0.057C327.727,258.818,328.294,258.393,328.435,257.769z
	 M362.563,245.75c0.057-0.765-0.539-1.389-1.304-1.445c-24.632-1.077-30.358,20.749-30.415,20.947
	c-0.198,0.737,0.255,1.502,0.992,1.672c0.113,0.028,0.227,0.057,0.34,0.057c0.595,0,1.162-0.425,1.332-1.049
	c0.198-0.822,5.272-19.814,27.638-18.878C361.911,247.111,362.535,246.515,362.563,245.75z M364.151,414.638l-26.617,0.001
	c0,0-1.191-0.539-1.191,0.737c0,0-3.43-1.701-6.548,1.105c-2.75,2.494-1.842,9.127,0.567,10.771
	c2.381,1.673,5.981,2.495,5.981,2.495s2.75,4.422,5.528,5.527c2.75,1.105,11.679,2.466,15.449,0
	C361.09,432.78,365.427,426.969,364.151,414.638z M419.483,304.853c-3.033,22.195-22.677,23.754-23.527,23.811
	c-0.737,0.057-1.304,0.708-1.276,1.446c0.057,0.737,0.652,1.304,1.389,1.304c0.028,0,0.057-0.028,0.085-0.028
	c0.227,0,22.706-1.701,26.05-26.164c0.113-0.737-0.397-1.446-1.162-1.531C420.305,303.578,419.596,304.088,419.483,304.853z
	 M389.039,324.95c0.227,0,22.706-1.729,26.05-26.164c0.113-0.766-0.397-1.446-1.162-1.559c-0.765-0.085-1.446,0.425-1.559,1.19
	c-3.033,22.167-22.677,23.754-23.528,23.811c-0.737,0.028-1.304,0.68-1.276,1.446c0.058,0.738,0.653,1.276,1.39,1.276
	C388.982,324.95,389.011,324.95,389.039,324.95z M394.595,411.549h104.372v-11.65H394.595V411.549z M505.374,424.39H401.002v11.679
	h104.372V424.39z M512.007,412.144H407.635v11.679h104.372V412.144z M231.856,340.711c0,0-0.543-0.001-2.207-0.527
	C231.285,340.704,231.844,340.712,231.856,340.711L231.856,340.711z M229.181,340.03c0.114,0.038,0.219,0.073,0.324,0.107
	C229.402,340.104,229.293,340.068,229.181,340.03z M135.196,333.454l-5.187,1.021l2.863,5.896L135.196,333.454z M126.636,329.372
	l-3.288,3.175l4.082,0.028L126.636,329.372z"></path>
<path id="color_x5F_3" fill="#e66724" d="M419.483,304.853c0.113-0.765,0.822-1.275,1.559-1.162
	c0.765,0.085,1.275,0.794,1.162,1.531c-3.344,24.463-25.823,26.164-26.05,26.164c-0.028,0-0.057,0.028-0.085,0.028
	c-0.737,0-1.332-0.567-1.389-1.304c-0.028-0.738,0.539-1.389,1.276-1.446C396.806,328.607,416.45,327.048,419.483,304.853z
	 M394.595,411.549h104.372v-11.65H394.595V411.549z M330.844,265.252c-0.198,0.737,0.255,1.502,0.992,1.672
	c0.113,0.028,0.227,0.057,0.34,0.057c0.595,0,1.162-0.425,1.332-1.049c0.198-0.822,5.272-19.814,27.638-18.878
	c0.765,0.057,1.389-0.539,1.417-1.304c0.057-0.765-0.539-1.389-1.304-1.445C336.627,243.228,330.901,265.054,330.844,265.252z
	 M388.954,324.95c0.028,0,0.057,0,0.085,0c0.227,0,22.706-1.729,26.05-26.164c0.113-0.766-0.397-1.446-1.162-1.559
	c-0.765-0.085-1.446,0.425-1.559,1.19c-3.033,22.167-22.677,23.754-23.528,23.811c-0.737,0.028-1.304,0.68-1.276,1.446
	C387.622,324.412,388.217,324.95,388.954,324.95z M326.791,258.761c0.113,0.028,0.198,0.057,0.312,0.057
	c0.624,0,1.191-0.425,1.332-1.049c0.227-0.793,5.272-19.814,27.666-18.879c0.737,0.085,1.389-0.539,1.417-1.304
	c0.028-0.765-0.539-1.389-1.304-1.417c-24.661-1.134-30.387,20.721-30.444,20.948C325.6,257.854,326.054,258.591,326.791,258.761z
	 M289.911,436.664v1.191c0,0-8.816,2.239-13.833,0.879c-0.034-0.073-0.077-0.149-0.113-0.222c0.82,1.693,1.409,3.295,1.702,4.756
	c0.567,2.778,0.992,5.896,1.247,8.901h252.17v-15.505H289.911z M275.755,438.099c-0.204-0.406-0.415-0.814-0.645-1.228
	C275.339,437.286,275.552,437.694,275.755,438.099z M216.182,436.664h-31.691c-3.345,0.028-6.208,0.028-8.674,0h-71.348v15.505
	h148.932c0.029-2.155-0.368-4.451-3.543-8.476C246.627,439.583,233.531,437.372,216.182,436.664z"></path>
<path id="color_x5F_2" fill="#b45cba" d="M305.247,312.506c0,0.681,13.039,44.391,13.039,44.391l-28.375,17.632v63.326
	c0,0-8.816,2.239-13.833,0.879c-3.855-8.135-13.323-18.454-23.301-23.528c-11.934-6.094-39.997-11.083-64.006-7.37
	c-17.065,2.607-22.876,4.365-24.803,5.159c-1.757-1.644-2.976-3.004-2.665-3.458c0.907-1.361,7.767-10.29,12.586-23.103
	c4.791-12.841,25.172-38.239,31.805-43.483c6.633-5.272,21.118-3.798,21.118-3.798c3.912,1.559,5.046,1.559,5.046,1.559
	s3.43,12.784,15.959,12.019c12.529-0.793,11.14-12.104,11.14-12.104s5.896-2.665,9.496-9.014
	C268.453,331.612,305.247,311.826,305.247,312.506L305.247,312.506z M154.586,342.327L154.586,342.327l-17.603,3.515l13.096,10.942
	l-12.104-6.463l4.11,13.096l-8.362-14.911l-6.69,16.668l2.75-15.392l-3.742,2.665l0.425,1.332l-0.652-1.162l-7.654,5.414l6.661-7.2
	l-2.409-4.28l-7.2-0.482l-3.798,9.468l1.701-9.609l-1.162-0.085l1.219-0.17l0.992-5.527l-11.622,8.249l10.233-11.055l-16.441-1.134
	l17.178-2.381l-13.238-9.836l13.351,6.18l-3.572-14.287l7.2,14.854l5.528-16.441l-1.956,16.356l5.301-3.288l-0.454-1.843
	l0.765,1.616l7.172-4.479l-6.378,6.123l1.871,3.827l6.35,0.057l2.948-8.731l-1.049,8.759h1.616l-1.644,0.34l-0.879,7.257
	l12.784-7.994l-10.261,9.864L154.586,342.327z M123.348,332.547L123.348,332.547l4.082,0.028l-0.794-3.203L123.348,332.547z
	 M116.29,333.823L116.29,333.823l3.969,1.842c0.028-0.142,0.057-0.255,0.057-0.368c0-1.248-1.021-2.268-2.296-2.268
	C117.339,333.029,116.715,333.341,116.29,333.823L116.29,333.823z M115.751,335.297L115.751,335.297c0,1.247,1.02,2.268,2.268,2.268
	c0.765,0,1.446-0.369,1.871-0.964l-3.657-2.693C115.95,334.276,115.751,334.758,115.751,335.297L115.751,335.297z M121.279,344.538
	L121.279,344.538l-3.146-5.641l-2.608,6.463L121.279,344.538z M123.461,344.254L123.461,344.254l4.394-0.624l-5.499-2.948
	L123.461,344.254z M128.394,346.976L128.394,346.976l-4.167-0.284l1.134,3.572L128.394,346.976z M129.244,339.775L129.244,339.775
	l-1.247-4.904l-6.576,1.304L129.244,339.775z M130.009,334.475L130.009,334.475l2.863,5.896l2.324-6.917L130.009,334.475z
	 M133.723,346.777L133.723,346.777l-2.551-1.389c0.312,0.793,1.049,1.36,1.928,1.417
	C133.326,346.833,133.524,346.805,133.723,346.777L133.723,346.777z M135.537,344.708L135.537,344.708
	c0.085-1.247-0.85-2.353-2.126-2.438c-1.219-0.085-2.268,0.793-2.409,2.012l2.92,2.438
	C134.8,346.437,135.452,345.671,135.537,344.708L135.537,344.708z M364.151,414.638L364.151,414.638
	c1.276,12.331-3.061,18.142-6.831,20.636c-3.77,2.466-12.699,1.105-15.449,0c-2.778-1.105-5.528-5.527-5.528-5.527
	s-3.6-0.822-5.981-2.495c-2.409-1.644-3.317-8.277-0.567-10.771c3.118-2.806,6.548-1.105,6.548-1.105
	c0-1.276,1.191-0.737,1.191-0.737L364.151,414.638L364.151,414.638z M335.606,427.536L335.606,427.536c0,0-2.069-5.188-1.332-8.249
	c0,0-0.454-0.765-2.041-0.68c-1.559,0.085-2.013,2.268-1.559,4.592C331.128,425.552,335.606,427.536,335.606,427.536
	L335.606,427.536z M401.002,424.39L401.002,424.39v11.679h104.372V424.39H401.002z"></path>
<path id="color_x5F_1" fill="#011627" d="M124.821,350.831l-3.966,4.287c-0.146-0.743-0.298-1.335-0.454-1.708
	c-1.162-2.721-1.871-5.698-1.871-5.698h4.535L124.821,350.831z M216.41,310.663c3.94,3.6,3.09,7.568,3.6,9.609
	c0.51,2.069,6.86,3.26,7.71,0c0.879-3.259-1.871-10.459,1.389-14.938c3.259-4.45,11.848-1.304,21.798,1.616
	c9.95,2.948,36.369-1.077,44.391-14.032c8.022-12.925,11.34-31.24,0.001-40.395c-11.339-9.155-23.925-6.179-30.331,5.5
	s-6.179,15.789-16.469,17.178c-10.29,1.361-16.47-1.162-24.038,2.977c-7.54,4.11-6.52,13.436-6.52,13.436s-0.368,0.057-0.992,0.227
	c-2.069,0.567-6.86,2.438-8.447,8.022c-2.07,7.2-1.531,10.8-1.531,10.8S212.441,307.063,216.41,310.663z M133.95,373.734
	c-1.021-3.572,0-17.603,1.134-20.324c0.206-0.483,0.397-0.973,0.574-1.454l-1.935-3.45l-6.69,16.668l2.75-15.392l-3.742,2.665
	l0.425,1.332l-0.652-1.162l-4.799,3.394c0.823,5.041,1.325,14.824,0.52,17.723c-0.992,3.572-5.017,6.435-6.576,11.424
	c-1.587,5.017,7.71,51.505,7.71,51.505h4.28h1.587h4.252c0,0,9.298-46.488,7.739-51.505
	C138.939,380.169,134.942,377.306,133.95,373.734z M407.635,412.144v11.679h104.372v-11.679H407.635z M127.715,347.712h-0.766
	h-2.398l0.81,2.552L127.715,347.712z"></path>
</svg>