<?xml version="1.0" standalone="no"?>
<svg version="1.1" id="Layer_1" xmlns="http://www.w3.org/2000/svg" xmlns:xlink="http://www.w3.org/1999/xlink" x="0px" y="0px" viewBox="0 0 595.28 595.28" enable-background="new 0 0 595.28 595.28" xml:space="preserve">
<path id="color_x5F_5" fill="#ffede1" d="M311.55,297.066c1.871,3.203,2.381,7.313,2.041,10.743c-0.312,3.345-1.814,4.309-3.6,2.806
	c-0.624,1.049-1.304,1.814-1.871,2.127c-1.871,0.992-3.855,0-6.746-1.446c-2.863-1.417-3.373-0.681-4.507-1.984
	c-1.105-1.275-0.737-2.948-3.742-4.195s-3.26-2.749-2.381-6.378c0.113-0.453,0.34-0.879,0.652-1.332
	c-5.754-3.855-37.871-41.329-37.871-41.329c4.28-1.105,12.614-3.571,18.255-7.427l23.301,41.329c0,0,2.296,0.113,5.216,0.709
	c0.765-0.539,1.389-1.021,1.701-1.446c1.559-2.041,17.291-37.871,18.709-41.131c4.167,2.665,9.241,5.074,11.424,5.5
	c1.559,0.312,2.523-0.227,3.09-0.992l0.822,0.51c0,0.028,0,0.057,0,0.113l-25.03,37.361
	C311.012,290.604,311.154,293.693,311.55,297.066z M185.267,268.975c-0.255,0-7.143-2.239-14.003-5.159
	c-1.871,16.725-6.151,51.761-9.666,59.67c-4.677,10.517-4.167,14.683-3.175,18.851c0.992,4.166,2.835,7.823,8.674,6.973
	c5.811-0.822,8.334-4.309,7.313-8.986c-0.992-4.677-2.665-7.171-0.652-8.674c1.984-1.502,3.997,0.341,4.819-2.494
	c0.85-2.835-4.167-4.678-5.669-6.491c-1.134-1.417,9.156-25.54,13.975-36.567C186.117,276.742,185.465,268.975,185.267,268.975z
	 M248.083,441.718l4.479-0.113l2.495,0.341l-0.567-0.709c0,0,0.879,0.085,1.559,0.227l1.105-6.52h-10.091L248.083,441.718z
	 M333.661,393.16l-1.842,35.717c0.964-0.34,2.098-0.312,2.098-0.312c-1.247,3.175,0.425,4.96,3.628,3.175
	c3.203-1.786,3.628-2.835,3.572-2.637l9.524-41.017c-2.693,0.737-5.669,1.644-9.043,2.749
	C338.536,391.856,335.928,392.622,333.661,393.16z M210.07,443.334c0.68-0.142,1.559-0.227,1.559-0.227l-0.595,0.708l2.523-0.34
	l4.45,0.113l1.049-6.774h-10.091L210.07,443.334z M232.577,162.165c-4.082,1.503-8.249,3.742-15.165,1.729
	c-6.917-1.984-9.156-4.734-11.65-5.329c-2.495-0.567-2.495,1.162-2.495,1.162s0.482,7.937,0,11.679
	c-0.51,3.742-7.002,2.664-7.087-1.843c-0.085-4.479-2.438-7.483-2.438-7.483s-2.296-1.474-4.649-0.652
	c-1.191,0.539-2.324,1.758-2.409,4.479c-0.17,4.592,6.576,6.491,8.391,6.746c1.843,0.255,2.523,9.496,10.687,12.586v14.655
	c0,0,0.085,4.932,3.657,6.774c3.6,1.814,6.491-1.275,7.427-4.252v-13.011c0,0,3.487,2.58,9.411,0.907
	c5.924-1.645,10.176-4.989,12.246-16.668c0.624-3.458,1.021-6.491,0.992-9.212c-0.312,0.057-0.567,0.113-0.737,0.141
	C236.177,165,236.659,160.663,232.577,162.165z M366.741,206.499c-1.616-2.013,1.134-12.132,1.134-12.132s5.131-0.737,6.123-2.495
	c1.02-1.757,1.389-3.26,1.389-3.26s5.244,2.126,7.88-1.134c2.608-3.231,3.373-9.496,0-9.978c-3.402-0.511-5.499,3.231-7.002,3.6
	c-1.502,0.397-4.252,1.134-10.772-2.749c-6.491-3.855-10.233-10.999-17.745-12.246c0,0-3.005-0.482-4.507,5.386
	c-1.474,5.868-0.113,20.495,2.891,24.747c3.005,4.252,13.493,1.502,13.493,1.502s0.992,6.889-1.616,8.362
	c-2.636,1.502-4.394,1.502-4.394,1.502s2.381,7.626,6.208,9.751c3.798,2.127,11.31-8.73,11.31-8.73S368.385,208.483,366.741,206.499
	z M387.774,432.449l-1.984-37.588c-2.098-0.879-4.309-2.013-6.633-3.43c-4.082-2.551-7.597-4.167-11.424-4.876l10.715,46.12
	c-0.057-0.199,0.369,0.85,3.572,2.636c3.232,1.786,4.876,0,3.628-3.175C385.648,432.137,386.782,432.108,387.774,432.449z
	 M426.75,321.501c-3.742-3.771-5.159-7.683-6.661-13.182c-1.417-5.187-8.957-51.505-9.751-56.551
	c-6.151,2.353-13.011,3.231-14.797,3.43l-0.283,2.552c0.057,0.708,0.085,1.587,0.17,2.579c2.409,8.022,17.376,57.657,17.15,58.733
	c-0.227,1.162-0.737,2.523-1.162,5.414c-0.397,2.92,2.665,4.593,3.43,3.176c0.737-1.418,1.729-3.572,2.58,0.992
	c0.822,4.592,3.742,10.602,7.994,9.58c4.252-0.991,9.411-6.831,8.334-8.9C432.675,327.227,430.492,325.242,426.75,321.501z
	 M116.527,242.669c-2.778,0-4.167,1.36-5.556,4.139c-1.361-2.778-2.75-4.139-5.528-4.139c-3.061,0-5.556,2.467-5.556,5.528
	c0,5.556,5.556,11.111,11.083,16.667c5.556-5.556,11.112-11.111,11.112-16.667C122.083,245.136,119.588,242.669,116.527,242.669z
	 M294.287,366.855c-2.693,0-4.054,1.36-5.414,4.053c-1.332-2.692-2.693-4.053-5.386-4.053c-2.976,0-5.414,2.409-5.414,5.414
	c0,5.386,5.414,10.8,10.8,16.186c5.414-5.386,10.8-10.8,10.8-16.186C299.673,369.265,297.264,366.855,294.287,366.855z
	 M475.478,309.396c-2.693,0-4.054,1.361-5.386,4.054c-1.361-2.692-2.721-4.054-5.414-4.054c-2.976,0-5.386,2.438-5.386,5.414
	c0,5.387,5.386,10.801,10.8,16.187c5.386-5.386,10.8-10.8,10.8-16.187C480.892,311.835,478.454,309.396,475.478,309.396z
	 M478.171,191.957c0-2.976-2.409-5.414-5.386-5.414c-2.693,0-4.054,1.361-5.414,4.054c-1.332-2.692-2.693-4.054-5.386-4.054
	c-2.976,0-5.414,2.438-5.414,5.414c0,5.387,5.414,10.801,10.8,16.187C472.785,202.758,478.171,197.344,478.171,191.957z"></path>
<path id="color_x5F_4" fill="#e66724" d="M315.312,243.806 M315.018,243.436c0.084,0.114,0.175,0.229,0.274,0.347
	C315.193,243.665,315.103,243.549,315.018,243.436z M314.962,243.359c-0.067-0.095-0.128-0.187-0.184-0.279
	C314.834,243.172,314.894,243.264,314.962,243.359z M314.709,242.968c-0.044-0.077-0.08-0.152-0.115-0.226
	C314.629,242.816,314.665,242.891,314.709,242.968z M335.829,264.882c-0.091,4.186-0.211,8.838-0.366,13.455
	C335.621,273.72,335.74,269.067,335.829,264.882z M314.421,242.265c-0.01-0.046-0.01-0.088-0.016-0.133
	C314.411,242.177,314.411,242.22,314.421,242.265z M314.529,242.604c-0.025-0.061-0.042-0.12-0.06-0.18
	C314.488,242.483,314.504,242.542,314.529,242.604z M335.779,392.615c-0.151,0.042-0.303,0.084-0.451,0.124
	C335.474,392.699,335.63,392.655,335.779,392.615z M336.816,392.323c0.363-0.104,0.735-0.213,1.114-0.327
	C337.549,392.111,337.18,392.218,336.816,392.323z M339.77,391.428c-0.474,0.151-0.931,0.291-1.383,0.429
	C338.839,391.719,339.295,391.579,339.77,391.428z M335.451,432.443c-1.762,0.102-2.469-1.498-1.534-3.878c0,0-0.002,0-0.002,0
	h0.001C332.98,430.946,333.687,432.546,335.451,432.443z M385.648,432.136c0.026,0.066,0.043,0.128,0.067,0.193
	C385.691,432.264,385.674,432.202,385.648,432.136L385.648,432.136L385.648,432.136z M378,390.73
	c0.381,0.226,0.766,0.459,1.157,0.701C378.765,391.186,378.382,390.957,378,390.73z M395.087,255.255c0,0,0.134,1.911,0.324,5.011
	c0.008,0.024,0.016,0.048,0.016,0.064c0.568,1.901,1.837,6.109,3.44,11.445c-1.602-5.342-2.87-9.553-3.439-11.446
	c-0.085-0.992-0.113-1.871-0.17-2.579l0.282-2.542C395.251,255.24,395.087,255.255,395.087,255.255z M384.126,436.015
	c-0.54-0.031-1.185-0.231-1.91-0.606C382.941,435.784,383.586,435.984,384.126,436.015z M343.082,311.242
	c2.72,0.402,5.912,0.764,9.493,1.182C348.996,312.003,345.803,311.642,343.082,311.242z M264.417,252.5
	c0.292-0.121,0.583-0.247,0.875-0.373C265.001,252.253,264.709,252.379,264.417,252.5z M261.162,253.751
	c-0.268,0.096-0.533,0.188-0.798,0.279C260.628,253.938,260.894,253.846,261.162,253.751z M266.374,251.643
	c-0.27,0.124-0.54,0.247-0.812,0.367C265.834,251.89,266.104,251.767,266.374,251.643z M261.401,253.664
	c0.98-0.353,1.978-0.735,2.977-1.148C263.38,252.93,262.38,253.312,261.401,253.664z M266.696,251.494
	c0.264-0.124,0.525-0.249,0.786-0.377C267.222,251.245,266.959,251.37,266.696,251.494z M192.509,318.157
	c1.24,0.148,2.8,0.321,4.618,0.493c0.57,0.054,1.166,0.108,1.785,0.162c0.464,0.04,0.941,0.08,1.431,0.118
	c-0.49-0.039-0.967-0.078-1.431-0.118c-0.619-0.054-1.215-0.108-1.785-0.162C195.309,318.477,193.749,318.305,192.509,318.157z
	 M267.8,250.958c0.262-0.132,0.524-0.264,0.782-0.4C268.324,250.694,268.062,250.826,267.8,250.958z M268.837,250.419
	c0.803-0.431,1.578-0.885,2.316-1.361C270.415,249.534,269.64,249.988,268.837,250.419z M373.195,388.24
	c-0.375-0.161-0.75-0.313-1.124-0.455C372.446,387.928,372.82,388.078,373.195,388.24z M190.53,317.907
	c0.517,0.069,1.18,0.154,1.979,0.25C191.71,318.061,191.047,317.976,190.53,317.907z M412.799,250.71
	c0.149-0.072,0.298-0.143,0.445-0.216C413.097,250.567,412.948,250.638,412.799,250.71z M414.236,249.969
	c0.103-0.058,0.204-0.117,0.306-0.175C414.44,249.852,414.34,249.911,414.236,249.969z M341.603,390.833
	c2.549-0.835,4.87-1.556,7.014-2.177C346.468,389.27,344.144,389.994,341.603,390.833z M375.551,389.364
	c-0.147-0.077-0.295-0.154-0.442-0.228C375.256,389.21,375.404,389.287,375.551,389.364z M377.267,390.302
	c-0.129-0.074-0.257-0.145-0.386-0.218C377.01,390.156,377.138,390.227,377.267,390.302z M259.011,254.482
	c-0.276,0.09-0.548,0.177-0.816,0.261C258.462,254.659,258.736,254.571,259.011,254.482z M374.447,388.81
	c-0.267-0.128-0.533-0.251-0.799-0.37C373.914,388.56,374.18,388.682,374.447,388.81z M260.053,254.136
	c-0.262,0.089-0.521,0.175-0.778,0.26C259.532,254.311,259.792,254.225,260.053,254.136z M411.477,251.307
	c0.182-0.077,0.362-0.156,0.542-0.236C411.839,251.151,411.659,251.229,411.477,251.307z M384.429,458.357
	c-58.459,24.288-118.807,17.704-170.884-5.567c4.35,0.061,7.717-0.074,7.977-0.585c0.709-1.474-0.397-5.073-0.652-5.697
	c-0.283-0.652-2.693-2.438-2.693-2.438l-4.45-0.283l-2.523,0.227l0.22-0.252l2.133-0.287l4.45,0.113l1.049-6.774h-10.091l1.105,6.52
	c0.68-0.142,1.559-0.227,1.559-0.227l-0.212,0.253c-0.645,0.049-1.894,0.176-1.999,0.427c-0.142,0.34-1.701,2.183-5.187,3.459
	c-0.427,0.157-0.945,0.288-1.524,0.398c-38.944-19.558-72.625-48.31-96.47-79.91c-60.009-79.484-44.362-225.469,20.268-230.627
	c27.281-2.188,50.059,1.392,70.009,7.853c-2.455,5.425-5.143,5.417-7.422,8.531c-2.324,3.175,0,7.937,0,7.937
	c0.588-0.206,1.173-0.268,1.719-0.245c-0.546-0.023-1.13,0.039-1.718,0.245c-1.191,0.539-2.324,1.758-2.409,4.479
	c-0.17,4.592,6.576,6.491,8.391,6.746c1.843,0.255,2.523,9.496,10.687,12.586v14.654c0,0-12.019-2.267-18.369,1.474
	c-6.378,3.742-28.63,47.367-29.877,52.753c-0.807,3.467,10.834,8.676,19.291,11.923c-1.758-0.67-3.649-1.421-5.543-2.227
	c-1.871,16.725-6.151,51.761-9.666,59.67c-4.677,10.517-4.167,14.683-3.175,18.851c0.992,4.166,2.835,7.823,8.674,6.973
	c5.811-0.822,8.334-4.309,7.313-8.986c-0.992-4.677-2.665-7.171-0.652-8.674c1.984-1.502,3.997,0.341,4.819-2.494
	c0.85-2.835-4.167-4.678-5.669-6.491c-1.134-1.417,9.15-25.525,13.97-36.557c1.117,14.042,2.385,31.622,2.385,31.622h0
	l16.498,119.084h18l3.487-84.671l15.165,82.687h19.332l-7.484-122.088c0,0-0.001,0-0.001,0l-3.515-56.014
	c0,0,3.191-0.654,7.371-1.961c-1.76,0.551-3.35,0.99-4.592,1.311c0,0,32.117,37.474,37.871,41.329
	c-0.312,0.453-0.539,0.879-0.652,1.332c-0.879,3.629-0.624,5.131,2.381,6.378s2.637,2.92,3.742,4.195
	c1.134,1.303,1.644,0.567,4.507,1.984c2.891,1.446,4.875,2.438,6.746,1.446c0.567-0.313,1.247-1.078,1.871-2.127
	c1.786,1.503,3.288,0.539,3.6-2.806c0.34-3.43-0.17-7.54-2.041-10.743c-0.396-3.373-0.538-6.462-0.537-6.462l11.144-16.634
	c0.282,0.253,0.564,0.533,0.845,0.759c3.939,3.288,8.048,5.243,12.355,6.52c-0.419,10.953-1.075,21.067-2.094,23.357
	c-0.994,2.211-0.27,3.647,1.843,4.68c-5.244,23.132-15.193,67.887-15.193,75.001c0,8.155,1.322,11.903,13.748,8.881l-1.841,35.704
	c-0.566,0.205-1.078,0.545-1.276,1.11c-0.539,1.56-0.879,3.686-2.154,5.67c-1.304,2.012-8.476,2.012-11.679,3.033
	c-3.203,1.049-4.082,4.081-3.657,4.592c0.397,0.51,10.545-1.219,13.209-0.907c2.665,0.283,5.329,0.17,6.123-1.304
	c0.794-1.446,1.077-2.75,2.126-3.316c1.049-0.596,2.608-0.511,2.75-0.143c0.113,0.369,0.964,5.159,0.964,5.159h3.6
	c0,0,0.255-8.192,0.567-9.808c0.284-1.645-1.304-3.686-1.276-3.855c0.003-0.012,0.005-0.019,0.004-0.022
	c0.001,0.002,0.001,0.008-0.003,0.022l9.52-41.001c9.431-2.501,15.32-2.599,21.214-0.4c-1.36-0.504-2.718-0.887-4.118-1.147
	l10.715,46.12c-0.004-0.013-0.005-0.02-0.004-0.023c-0.001,0.003,0.001,0.01,0.004,0.023c0.028,0.17-1.531,2.211-1.247,3.855
	c0.284,1.615,0.539,9.836,0.539,9.836h3.628c0,0,0.822-4.791,0.964-5.188c0.113-0.369,1.701-0.453,2.75,0.142
	c1.021,0.567,1.332,1.871,2.126,3.316c0.794,1.474,3.458,1.587,6.123,1.304c2.665-0.283,12.784,1.418,13.209,0.907
	c0.396-0.48-0.483-3.541-3.686-4.562c-3.203-1.049-10.375-1.049-11.65-3.062c-1.304-1.984-1.644-4.11-2.183-5.669
	c-0.205-0.582-0.742-0.926-1.329-1.129c0.027,0.009,0.055,0.015,0.082,0.024l-1.984-37.588c-0.071-0.03-0.145-0.066-0.217-0.096
	c7.973,3.324,14.428,2.602,18.671-2.768c5.357-6.745,4.676-13.123,1.332-21.627c-2.835-7.228-8.475-49.03-10.062-61.168
	c1.937-4.036,1.121-26.393,0.349-41.032c0.387,7.208,0.781,16.281,0.841,24.134c2.889,0.341,5.722,0.511,8.441,0.511
	c3.955,13.35,7.546,25.716,7.434,26.247c-0.227,1.162-0.737,2.523-1.162,5.414c-0.397,2.92,2.665,4.593,3.43,3.176
	c0.737-1.418,1.729-3.572,2.58,0.992c0.822,4.592,3.742,10.602,7.994,9.58c4.252-0.991,9.411-6.831,8.334-8.9
	c-1.079-2.097-3.262-4.082-7.004-7.823c-3.742-3.771-5.159-7.683-6.661-13.182c-1.417-5.187-8.957-51.505-9.751-56.551
	c-0.005,0.002-0.009,0.003-0.014,0.005c0.017-0.006,0.033-0.013,0.05-0.019c-0.011,0.004-0.022,0.009-0.033,0.013
	c0.51,3.26,3.883,23.896,6.548,39.401c2.098-0.652,4.054-1.53,5.868-2.693c13.008-8.246,29.987-28.486,12.242-52.241
	c-17.745-23.754-32.003-21.231-37.502-32.003c-5.499-10.743,6.746-20.749,0-35.234c-1.108-2.385-2.867-4.466-5.06-6.277
	c81.653-26.965,117.101-0.706,135.482,59.709C550.539,296.753,491.72,413.74,384.429,458.357z M122.082,248.197
	c0.001-3.061-2.494-5.528-5.555-5.528c-2.778,0-4.167,1.36-5.556,4.139c-1.361-2.778-2.75-4.139-5.528-4.139
	c-3.061,0-5.556,2.467-5.556,5.528c0,5.556,5.556,11.111,11.083,16.667C116.526,259.308,122.082,253.753,122.082,248.197z
	 M275.606,447.869c-0.963-1.134-10.289-0.992-13.719-2.409c-3.402-1.417-4.904-3.345-5.017-3.685
	c-0.053-0.128-0.403-0.236-0.819-0.321l1.103-6.51h-10.091l1.02,6.773h-0.001c0,0-2.466,1.701-2.778,2.325
	c-0.283,0.623-1.531,4.166-0.879,5.641c0.68,1.502,26.391,0.964,28.857,0.51C275.72,449.74,276.57,448.974,275.606,447.869z
	 M299.673,372.269c0-3.004-2.409-5.414-5.386-5.414c-2.693,0-4.054,1.36-5.414,4.053c-1.332-2.692-2.693-4.053-5.386-4.053
	c-2.976,0-5.414,2.409-5.414,5.414c0,5.386,5.414,10.8,10.8,16.186C294.287,383.069,299.673,377.655,299.673,372.269z
	 M456.571,191.957c0,5.387,5.414,10.801,10.8,16.187c5.414-5.386,10.8-10.8,10.8-16.187c0-2.976-2.409-5.414-5.386-5.414
	c-2.693,0-4.054,1.361-5.414,4.054c-1.332-2.692-2.693-4.054-5.386-4.054C459.009,186.543,456.571,188.981,456.571,191.957z
	 M480.892,314.81c0-2.975-2.438-5.414-5.414-5.414c-2.693,0-4.054,1.361-5.386,4.054c-1.361-2.692-2.721-4.054-5.414-4.054
	c-2.976,0-5.386,2.438-5.386,5.414c0,5.387,5.386,10.801,10.8,16.187C475.478,325.611,480.892,320.197,480.892,314.81z
	 M314.357,262.483c-7.71-16.242-10.743-40.733-2.608-47.735c10.744-9.27,22.252-16.272,25.257-26.759
	c0.251-0.877,0.428-1.699,0.574-2.499c-3.086,1.494-6.206,3.025-9.39,4.625c0,0-2.92,1.343-8.189,2.278
	c-0.198,0.219-0.315,0.329-0.315,0.329h-1.793c-4.393,0.604-10.074,0.845-16.805,0h-3.541c-0.225-0.196-0.44-0.419-0.654-0.643
	c-8.692-1.602-18.865-5.042-30.102-11.659c-8.783-5.179-17.76-10.698-27.237-16.016c-0.172,0.042-0.33,0.078-0.465,0.106
	c0.12-0.024,0.255-0.051,0.405-0.078c0.029,2.721-0.368,5.754-0.992,9.212c-2.07,11.679-6.322,15.023-12.246,16.668
	c-5.924,1.673-9.411-0.907-9.411-0.907v9.864l1.162-0.057c0,0,21.572-1.899,26.901,4.11c5.357,6.01,31.096,34.413,31.096,34.413
	s5.753-0.99-0.002,7.004c-1.062,1.475-2.594,2.813-4.383,4.016c0.052-0.035,0.108-0.068,0.159-0.104l23.301,41.329
	c0,0,2.296,0.113,5.216,0.709c0.765-0.539,1.389-1.021,1.701-1.446 M341.142,310.935c0.048,0.008,0.098,0.016,0.146,0.024
	C341.24,310.951,341.19,310.943,341.142,310.935z M394.956,309.836c0.042-0.024,0.094-0.047,0.132-0.071
	c0.009-0.004,0.016-0.017,0.024-0.022c-0.009,0.006-0.017,0.017-0.026,0.023C395.049,309.789,394.997,309.812,394.956,309.836z
	 M342.816,311.202c-0.235-0.035-0.467-0.071-0.695-0.106C342.348,311.132,342.582,311.167,342.816,311.202z M395.383,309.443
	c-0.04,0.062-0.08,0.121-0.122,0.169C395.303,309.564,395.344,309.507,395.383,309.443z M204.938,158.452
	c-1.672-0.049-1.672,1.275-1.672,1.275s0.482,7.937,0,11.679c-0.223,1.637-1.591,2.352-3.066,2.26
	c1.476,0.092,2.844-0.623,3.067-2.26c0.482-3.742,0-11.679,0-11.679S203.267,158.403,204.938,158.452z M233.909,161.855"></path>
<path id="color_x5F_3" fill="#ffb785" d="M395.087,255.255L395.087,255.255c0,0,13.011-1.19,20.494-6.095
	c0,0-17.32-34.781-22.167-38.154c-4.819-3.401-24.973-3.23-24.973-3.23l-0.085,0.027c1.191,0.652,2.409,0.794,2.693,0.794
	c0.028,0,0.028,0,0.028,0c0.028,0.028,0.057,0.028,0.057,0.028s-7.512,10.857-11.31,8.73c-3.827-2.125-6.208-9.751-6.208-9.751
	s0.595,0,1.587-0.283c-2.466-0.17-6.009-0.312-8.192,0.255c-3.628,0.936-32.627,31.039-32.627,34.385
	c0,3.345,13.748,10.885,17.745,11.65c3.487,0.68,3.912-2.75,3.94-3.742c-0.057,4.705-0.51,49.578-2.806,54.737
	c-2.523,5.612,5.981,6.236,20.324,7.937c14.343,1.673,37.843-0.481,41.499-2.777C398.744,307.469,395.087,255.255,395.087,255.255
	L395.087,255.255z M325.752,139.743L325.752,139.743c-7.824,3.175-10.176,3.175-9.666-0.51c0.51-3.657,7.483-2.155,13.011-6.321
	c5.499-4.167-0.68-12.501-5.357-8.958c-4.649,3.544-6.151,7.966-8.646,4.62c-2.523-3.316-1.191-6.661,1.332-15.165
	c2.495-8.504,1.332-19.332-4.479-20.324c-5.783-1.021-7.03,12.161-4.507,24.491c2.551,12.331-0.68,17.83-4.677,8.334
	s-3.855-11.339-8.022-9.496s-0.652,8.504,5.187,15.817c5.811,7.342,2.154,12.188-6.35,2.183c-8.532-10.006-14.825-6.01-4.649,3.316
	c10.148,9.354,12.983,13.21,12.983,13.21h12.331c0,0,0.68-1.701,5.499-3.374c4.847-1.644,5.187,0,10.687-3.316
	C335.928,140.905,333.576,136.568,325.752,139.743L325.752,139.743z"></path>
<path id="color_x5F_2" fill="#b45cba" d="M276.005,237.735c0,0-25.739-28.403-31.096-34.413
	c-5.329-6.009-26.901-4.11-26.901-4.11l-1.162,0.057v3.146c-0.936,2.977-3.827,6.066-7.427,4.252
	c-3.572-1.842-3.657-6.774-3.657-6.774s-12.019-2.267-18.369,1.474c-6.378,3.742-28.63,47.367-29.877,52.753
	c-1.247,5.358,27.241,14.882,27.751,14.882c0.482,0,3.997,48.728,3.997,48.728l0,0l0,0c0,0,3.016,0.46,7.863,0.92
	c0.57,0.054,1.166,0.108,1.785,0.162c0.928,0.08,1.91,0.158,2.937,0.233c0.342,0.025,0.69,0.049,1.042,0.073
	c3.877,0.261,8.345,0.453,13.084,0.453c1.292,0,2.605-0.014,3.931-0.046c0.884-0.021,1.774-0.049,2.668-0.086
	c0.447-0.018,0.895-0.039,1.344-0.061c0.898-0.045,1.799-0.099,2.701-0.161s1.806-0.135,2.708-0.218
	c0.451-0.041,0.902-0.085,1.353-0.131c0.901-0.093,1.801-0.196,2.697-0.31c2.24-0.286,4.458-0.643,6.623-1.081
	c0.866-0.175,1.724-0.364,2.571-0.566c4.236-1.011,8.214-2.37,11.69-4.168l-3.515-56.014c0,0,19.503-3.996,25.257-11.99
	C281.758,236.745,276.005,237.735,276.005,237.735z M238.076,237.737c0,4.309-2.806,7.795-6.293,7.795
	c-3.458,0-6.292-3.486-6.293-7.795v-6.945h12.586V237.737z"></path>
<g id="color_x5F_1" fill="#011627">
	<g>
		<path fill="#0F2437" d="M404.244,391.997c-5.33,6.747-14.145,6.18-25.087-0.566c-10.913-6.776-17.745-7.144-37.559-0.596
			c-19.843,6.576-21.685,3.09-21.685-6.548c0-7.114,9.95-51.874,15.194-75.005c3.232,1.588,9.78,2.239,18.482,3.26
			c14.343,1.673,37.842-0.481,41.499-2.777c0.17-0.085,0.312-0.283,0.425-0.567c1.587,12.133,7.228,53.943,10.063,61.172
			C408.92,378.874,409.601,385.252,404.244,391.997z M259.676,144.165c1.418-15.25-19.332-24.35-27.328-18.34
			c-8.022,6.01-5.839,13.323-13.833,12.586c-8.022-0.766-19.332,0.481-21.855,6.236c-2.494,5.754-5.244,5.669-7.568,8.844
			s0,7.937,0,7.937c2.353-0.822,4.649,0.652,4.649,0.652s2.353,3.004,2.438,7.483c0.085,4.507,6.577,5.585,7.087,1.843
			c0.482-3.742,0-11.679,0-11.679s0-1.729,2.495-1.162c2.494,0.595,4.733,3.345,11.65,5.329c6.916,2.013,11.083-0.226,15.165-1.729
			c4.082-1.502,3.6,2.835,6.18,2.409C241.336,164.149,258.259,159.416,259.676,144.165L259.676,144.165z M402.854,442.285
			c3.203,1.021,4.082,4.082,3.686,4.562c-0.425,0.511-10.544-1.19-13.209-0.907s-5.329,0.17-6.123-1.304
			c-0.794-1.445-1.105-2.749-2.126-3.316c-1.049-0.595-2.637-0.511-2.75-0.142c-0.142,0.397-0.964,5.188-0.964,5.188h-3.628
			c0,0-0.255-8.221-0.539-9.836c-0.284-1.644,1.275-3.685,1.247-3.855c-0.056-0.199,0.369,0.85,3.572,2.636
			c3.231,1.786,4.875,0,3.628-3.175c0,0,2.834-0.113,3.373,1.418c0.539,1.559,0.879,3.685,2.183,5.669
			C392.479,441.236,399.651,441.236,402.854,442.285L402.854,442.285L402.854,442.285z M218.177,444.07c0,0,2.41,1.786,2.693,2.438
			c0.255,0.624,1.361,4.223,0.652,5.697c-0.737,1.447-26.39-0.113-28.828-0.651c-2.466-0.567-3.259-1.361-2.239-2.438
			c0.992-1.077,10.318-0.595,13.776-1.87c3.486-1.276,5.045-3.119,5.187-3.459s2.381-0.453,2.381-0.453l-0.595,0.68l2.523-0.227
			L218.177,444.07L218.177,444.07L218.177,444.07z M261.887,445.46c3.43,1.417,12.756,1.275,13.719,2.409
			c0.964,1.105,0.114,1.871-2.324,2.324c-2.466,0.454-28.177,0.992-28.857-0.51c-0.652-1.475,0.596-5.018,0.879-5.641
			c0.312-0.624,2.778-2.325,2.778-2.325l4.479-0.113l2.495,0.341l-0.567-0.709c0,0,2.239,0.198,2.381,0.539
			C256.983,442.115,258.485,444.043,261.887,445.46L261.887,445.46L261.887,445.46z M337.544,431.74
			c3.203-1.786,3.628-2.835,3.572-2.637c-0.028,0.169,1.56,2.21,1.276,3.855c-0.312,1.616-0.567,9.808-0.567,9.808h-3.6
			c0,0-0.851-4.79-0.964-5.159c-0.142-0.368-1.701-0.453-2.75,0.143c-1.049,0.566-1.332,1.87-2.126,3.316
			c-0.794,1.474-3.458,1.587-6.123,1.304c-2.664-0.312-12.812,1.417-13.209,0.907c-0.425-0.511,0.454-3.543,3.657-4.592
			c3.203-1.021,10.375-1.021,11.679-3.033c1.275-1.984,1.615-4.11,2.154-5.67c0.538-1.53,3.373-1.417,3.373-1.417
			C332.668,431.74,334.341,433.525,337.544,431.74L337.544,431.74L337.544,431.74z M434.999,236.234
			c17.745,23.755,0.766,43.995-12.242,52.241c-1.814,1.163-3.77,2.041-5.868,2.693c-2.665-15.505-6.038-36.141-6.548-39.401
			c1.871-0.709,3.685-1.587,5.244-2.608c0,0-17.32-34.781-22.167-38.154c-4.819-3.401-24.973-3.23-24.973-3.23h-0.085
			c-0.567-0.284-1.134-0.709-1.616-1.276c-1.616-2.013,1.134-12.132,1.134-12.132s5.131-0.737,6.123-2.495
			c1.02-1.757,1.389-3.26,1.389-3.26s5.244,2.126,7.88-1.134c2.608-3.232,3.373-9.497,0-9.978c-3.402-0.51-5.5,3.232-7.002,3.6
			c-1.503,0.397-4.252,1.134-10.772-2.749c-6.491-3.855-10.233-10.999-17.745-12.246c0,0-3.005-0.482-4.507,5.386
			c-1.474,5.868-0.114,20.495,2.891,24.747s13.493,1.502,13.493,1.502s0.992,6.888-1.616,8.362
			c-2.637,1.502-4.394,1.502-4.394,1.502s0.595,0,1.587-0.283c-2.466-0.17-6.009-0.311-8.192,0.255
			c-3.629,0.936-32.627,31.039-32.627,34.385c0,1.53,2.834,3.911,6.321,6.15c-0.539,1.248-3.204,7.285-6.35,14.372
			c-7.71-16.242-10.743-40.733-2.608-47.735c10.744-9.27,22.252-16.272,25.257-26.759c3.005-10.489-2.239-14.995,2.013-24.01
			c4.223-8.985,11.735-10.233,11.735-10.233c9.496-2.749,39.997,0.737,46.743,15.251c6.746,14.485-5.499,24.491,0,35.234
			C402.996,215.003,417.254,212.48,434.999,236.234L434.999,236.234L434.999,236.234z M323.002,274.729
			c-0.283-0.227-0.567-0.51-0.851-0.764l13.89-20.722c-0.085,5.755-0.283,17.292-0.68,28.007
			C331.052,279.973,326.942,278.018,323.002,274.729L323.002,274.729L323.002,274.729z M395.399,260.216
			c0,0.028,0.029,0.085,0.028,0.114c1.219,4.082,5.669,18.794,9.723,32.485c-2.721,0-5.556-0.17-8.447-0.511
			C396.618,281.108,395.853,267.416,395.399,260.216L395.399,260.216L395.399,260.216z M242.572,316.91
			c4.236-1.011,8.214-2.37,11.69-4.168l7.484,122.088h-19.332l-15.165-82.687l-3.487,84.671h-18L189.264,317.73l0,0
			c0,0,3.016,0.46,7.863,0.92c0.57,0.054,1.166,0.108,1.785,0.162c0.928,0.08,1.91,0.158,2.937,0.233
			c0.342,0.025,0.69,0.049,1.042,0.073c3.877,0.261,8.345,0.453,13.084,0.453c1.292,0,2.605-0.014,3.931-0.046
			c0.884-0.021,1.774-0.049,2.668-0.086c0.447-0.018,0.895-0.039,1.344-0.061c0.898-0.045,1.799-0.099,2.701-0.161
			c0.902-0.063,1.806-0.135,2.708-0.218c0.451-0.041,0.902-0.085,1.353-0.131c0.901-0.093,1.801-0.196,2.697-0.31
			c2.24-0.286,4.458-0.643,6.623-1.081C240.867,317.3,241.724,317.112,242.572,316.91z M319.686,192.722h-22.139
			c-9.411-8.191-9.014-41.782-9.014-41.782h39.77C330.344,182.887,319.686,192.723,319.686,192.722z M225.49,230.792h12.586v6.945
			c0,4.309-2.806,7.795-6.293,7.795c-3.458,0-6.292-3.486-6.293-7.795V230.792z"></path>
	</g>
	<line fill="none" stroke="#000000" stroke-width="0.3" x1="188.059" y1="69.955" x2="188.059" y2="105.955"></line>
	<line fill="none" stroke="#000000" stroke-width="0.3" x1="134.059" y1="123.955" x2="170.059" y2="123.955"></line>
	<line fill="none" stroke="#000000" stroke-width="0.3" x1="134.059" y1="452.804" x2="170.059" y2="452.804"></line>
	<line fill="none" stroke="#000000" stroke-width="0.3" x1="188.059" y1="506.804" x2="188.059" y2="470.804"></line>
	<line fill="none" stroke="#000000" stroke-width="0.3" x1="442.644" y1="69.955" x2="442.644" y2="105.955"></line>
	<line fill="none" stroke="#000000" stroke-width="0.3" x1="496.644" y1="123.955" x2="460.644" y2="123.955"></line>
	<line fill="none" stroke="#000000" stroke-width="0.3" x1="496.644" y1="452.804" x2="460.644" y2="452.804"></line>
	<line fill="none" stroke="#000000" stroke-width="0.3" x1="442.644" y1="506.804" x2="442.644" y2="470.804"></line>
</g>
</svg>