<?xml version="1.0" standalone="no"?>
<svg version="1.1" id="Layer_1" xmlns="http://www.w3.org/2000/svg" xmlns:xlink="http://www.w3.org/1999/xlink" x="0px" y="0px" viewBox="0 0 595.28 595.28" enable-background="new 0 0 595.28 595.28" xml:space="preserve">
<path id="color_x5F_8" fill="#FFFFFF" d="M206,173.702l17.563,3.439H207c-0.031-0.147-0.05-0.292-0.086-0.44
	C206.641,175.559,206.338,174.578,206,173.702z M459.081,233.569c0,0-0.648-4.897-7.944-4.793h-0.001
	c-0.527-1.441-1.281-2.818-2.367-3.936c-3.476-3.578-8.533-1.814-10.592-0.866c0.048,0.054,0.102,0.105,0.149,0.16
	c2.796,3.247,7.259,8.579,11.801,14.209h2.047h31.289L459.081,233.569z M432.92,212.397c-4.191-1.834-9.43,3.013-9.43,3.013
	c0.396-1.306,0.544-2.644,0.491-3.953c0,0,0.368-3.072-2.951-5.6c-1.489-1.134-3.562-2.279-5.941-2.979
	c-1.769,2.971-4.466,5.44-4.466,5.44s0.032-0.176,0.093-0.486c-0.005,0.025-0.012,0.058-0.016,0.081
	c-0.203,0.352-0.385,0.686-0.537,1.007c-0.734,1.542-1.046,3.521-0.073,5.25c0.002,0,19.43,1.004,27.561,9.239
	C439.11,218.951,436.807,214.097,432.92,212.397z M168.633,160.626c2.646-5.604-0.156-12.141-5.137-14.32
	c-4.981-2.179-11.207,3.58-11.207,3.58c0.471-1.551,0.646-3.142,0.584-4.698c0,0,0.438-3.651-3.507-6.656
	c-3.945-3.005-11.328-6.096-18.54-3.177c-6.447,2.609-9.858,5.352-11.14,9.373c-0.017-0.079-0.033-0.159-0.051-0.238
	c-0.133,0.578-0.237,1.156-0.323,1.72c0,0,0,0.001,0,0.001c-0.304,1.675-0.477,3.483-0.576,5.138
	c-0.961-0.93-4.772-4.112-10.9-2.997c-4.077,0.141-7.152,3.148-7.152,3.148c-0.962,0.772-1.738,1.621-2.349,2.511
	c-2.225-3.02-5.062-5.216-7.795-6.798c-3.801-5.025-8.552-0.539-8.552-0.539l-0.001,0.001c-1.94-0.824-4.18-1.259-6.214-0.369
	c-4.981,2.179-7.783,8.717-5.137,14.32c0,0-8.405-4.981-13.698,0.467c-3.079,3.17-3.94,8.074-4.126,11.629l-24.383,2.508
	c-0.274,0.635-0.54,1.272-0.803,1.911h25.265h8.618h23.124h10.684h0.644h4.973h37.398h4.973h0.644h2.727
	c1.177-5.378,3.588-8.868,7.299-11.012c8.101-4.681,13.322,0.54,16.711,1.8c1.047,0.39,2.43,0.692,3.841,0.926
	c2.352-2.575,6.166-3.949,10.05-4.432c-0.571-1.214-1.302-2.356-2.249-3.33C177.039,155.645,168.633,160.626,168.633,160.626z
	 M142.042,301.575c-1.598,0.926-3.258,2.21-4.56,3.977c-0.358-0.52-0.811-1.017-1.374-1.469c0,0-1.799-1.759-4.183-1.842
	c-3.585-0.653-5.814,1.209-6.376,1.753c-0.058-0.968-0.159-2.026-0.337-3.006c0,0,0-0.001,0-0.001
	c-0.05-0.33-0.112-0.668-0.189-1.006c-0.011,0.046-0.02,0.093-0.03,0.139c-0.75-2.352-2.745-3.956-6.516-5.483
	c-4.219-1.708-8.538,0.1-10.845,1.858c-2.308,1.758-2.052,3.893-2.052,3.893c-0.037,0.911,0.066,1.841,0.341,2.748
	c0,0-3.642-3.369-6.556-2.094c-2.914,1.275-4.553,5.099-3.005,8.377c0,0-4.917-2.914-8.013,0.273
	c-0.755,0.777-1.28,1.734-1.646,2.736h-0.001c-5.072-0.072-5.522,3.332-5.522,3.332l-16.95,3.319H85.98h5.041h13.527h6.25h0.377
	h2.909h15.326c5.49-7.447,10.919-14.433,14.359-18.798C143.194,300.45,142.6,300.837,142.042,301.575z M371.531,213.161
	c-3.198-4.228-7.196-0.454-7.196-0.454l-0.001,0.001c-1.632-0.694-3.517-1.059-5.228-0.311c-4.191,1.834-6.549,7.335-4.322,12.05
	c0,0-7.073-4.191-11.526,0.393c-2.591,2.667-3.316,6.794-3.472,9.785l-36.146,3.719h36.213h7.251h12.775
	c5.637-9.236,11.243-17.766,13.214-18.642c1.1-0.489,2.686-0.994,4.446-1.477C375.758,216.033,373.618,214.37,371.531,213.161z"></path>
<path id="color_x5F_7" fill="#FEF79C" d="M286.567,325.494c10.481,0,18.978-8.497,18.978-18.978
	c0-10.481-8.497-18.977-18.978-18.977c-10.481,0-18.978,8.497-18.978,18.977C267.589,316.998,276.086,325.494,286.567,325.494z
	 M287.579,309.385l0.565,0.33c2.685,1.413,3.015,3.203,3.015,4.522c0.047,2.732-1.554,4.145-3.58,4.475V309.385z M287.579,320.501
	c5.087-0.612,8.337-3.768,8.384-8.573c0-4.38-3.297-6.688-6.736-8.101l-1.649-0.66v-9.279c3.203,0.565,4.522,3.344,5.228,5.558
	l1.507-0.424c-0.329-2.732-0.659-4.334-1.036-6.029c-0.471-0.047-0.942-0.189-1.602-0.377c-1.131-0.377-2.732-0.612-4.098-0.612
	v-2.528c8.957,0.524,16.06,7.952,16.06,17.041s-7.103,16.516-16.06,17.041V320.501z M285.742,302.413
	c-2.072-0.895-3.627-2.119-3.627-4.333c0-1.931,1.178-3.863,3.627-4.192V302.413z M285.742,289.465v2.68
	c-5.181,0.707-8.008,4.051-8.008,8.149c0,3.674,2.638,6.076,6.594,7.819l1.413,0.612v10.033c-4.333-0.565-6.312-4.899-7.065-7.018
	l-1.507,0.424c0.33,2.214,0.8,5.323,1.13,6.5c0.942,0.565,3.674,1.931,7.442,1.978v2.927c-9.046-0.43-16.249-7.899-16.249-17.052
	C269.494,297.364,276.696,289.895,285.742,289.465z M368.779,468.083h-18.751h-50.312H276.47h-1.402h-10.82h-81.37h-10.82h-1.402
	H147.41H97.097h-18.75c0,0-2.709-23.065,8.805-34.918c11.515-11.854,29.803-1.016,29.803-1.016
	c-5.757-12.192,0.339-26.416,11.176-31.158c5.088-2.226,10.773-0.645,15.373,1.659l-16.771,30.892
	c0.092,0.056,0.164,0.101,0.164,0.101c0.657,3.154,3.551,5.717,4.242,6.291l29.119-36.968c5.945,3.443,12.118,8.221,16.96,14.791
	c1.331-1.935,3.018-3.783,5.111-5.463l1.634,44.047c2.968,2.101,7.495,1.75,7.495,1.75s0.011,0.016,0.017,0.024l6.414-52.671
	c13.333-2.427,21.626,4.497,23.716,6.521c0.215-3.601,0.591-7.535,1.253-11.18c0-0.001,0-0.002,0.001-0.003
	c0.187-1.228,0.415-2.484,0.703-3.743c0.04,0.173,0.073,0.345,0.11,0.518c2.789-8.749,10.21-14.716,24.237-20.393
	c15.691-6.351,31.756,0.374,40.339,6.912s7.631,14.481,7.631,14.481c0.136,3.387-0.245,6.847-1.27,10.222
	c0,0,13.547-12.531,24.384-7.789c10.837,4.741,16.934,18.966,11.176,31.158c0,0,18.288-10.837,29.803,1.016
	C371.489,445.018,368.779,468.083,368.779,468.083z"></path>
<path id="color_x5F_6" fill="#FEBE40" d="M303.639,306.517c0,9.089-7.103,16.516-16.06,17.04v-3.057
	c5.087-0.612,8.337-3.768,8.384-8.573c0-4.38-3.297-6.688-6.736-8.101l-1.649-0.66v-9.279c3.203,0.565,4.522,3.344,5.228,5.558
	l1.507-0.424c-0.33-2.732-0.659-4.333-1.036-6.029c-0.471-0.047-0.942-0.189-1.602-0.377c-1.131-0.377-2.732-0.612-4.098-0.612
	v-2.528C296.537,290.001,303.639,297.428,303.639,306.517z M291.159,314.236c0-1.319-0.33-3.109-3.015-4.522l-0.565-0.33v9.326
	C289.605,318.381,291.206,316.968,291.159,314.236z M282.115,298.08c0,2.214,1.554,3.438,3.627,4.333v-8.526
	C283.293,294.218,282.115,296.149,282.115,298.08z M269.494,306.517c0,9.153,7.203,16.622,16.249,17.052v-2.927
	c-3.768-0.047-6.5-1.413-7.442-1.978c-0.33-1.178-0.801-4.286-1.13-6.5l1.507-0.424c0.754,2.12,2.732,6.453,7.065,7.018v-10.033
	l-1.413-0.612c-3.957-1.743-6.594-4.145-6.594-7.819c0-4.098,2.826-7.442,8.008-8.149v-2.68
	C276.696,289.895,269.494,297.364,269.494,306.517z M286.567,334.309c-25.28-0.599-30.79-19.285-27.196-33.299
	c3.295-12.852,12.271-16.707,17.196-20.549c1.724,0.576,4.305,0.861,6.249,0.93c3.153,0.113,3.941-4.866,3.716-7.725
	c-0.225-2.859-1.351-5.337-3.266-5.449c-1.914-0.113-3.265-0.338-4.954-1.239c-0.609-0.325-1.062-0.548-1.398-0.703
	c-3.22-4.878-7.854-7.488-7.854-7.488c0.988-2.156,2.785-2.336,5.66-1.168c2.875,1.168,5.75,2.515,7.007-2.066
	c0.477-1.739,2.659-2.609,4.841-2.609c2.182,0,4.363,0.87,4.841,2.609c1.258,4.582,4.133,3.234,7.007,2.066
	c2.875-1.168,4.671-0.988,5.66,1.168c0,0-10.122,5.69-10.84,15.991c-0.549,7.874,15.813,7.839,20.529,26.232
	C317.356,315.024,311.846,333.71,286.567,334.309z M305.544,306.517c0-10.481-8.497-18.978-18.978-18.978
	s-18.978,8.497-18.978,18.978c0,10.481,8.497,18.978,18.978,18.978S305.544,316.998,305.544,306.517z M215.509,383.38
	c-5.137-2.983-10.267-4.092-14.452-3.94l-3.167,26.005c13.333-2.427,21.626,4.497,23.716,6.521c0.215-3.601,0.591-7.535,1.253-11.18
	c0-0.001,0-0.002,0.001-0.003c0.186-1.222,0.413-2.472,0.699-3.725C222.284,391.486,219.918,385.94,215.509,383.38z
	 M223.673,397.559c0.001-0.004,0.003-0.008,0.005-0.013c-0.017-0.079-0.04-0.157-0.058-0.236
	C223.638,397.393,223.655,397.476,223.673,397.559z M160.259,402.967c5.945,3.443,12.118,8.221,16.96,14.791
	c1.331-1.935,3.018-3.783,5.111-5.463l-1.323-35.668L160.259,402.967z M388.379,458.13c-0.281,0.313-0.795,0.561-1.857,0.682
	c-0.531,0.06-0.963,0.083-1.312,0.083c0.35,0,0.782-0.023,1.312-0.083C387.584,458.691,388.098,458.443,388.379,458.13z
	 M449.557,439.119c0,0,2.657-9.315-0.304-20.658c-0.251-3.285-0.452-6.569-0.538-9.811c1.994-0.403,19.963-4.322,24.034-15.472
	c4.312-11.809,11.924-12.268,11.924-12.268s-14.03,0.759-22.629,9.212c-7.665,7.534-12.398,16.38-13.338,18.215
	c-0.09-3.699-0.034-7.341,0.263-10.87c1.2-14.29,11.63-27.054,19.858-35.034c1.799-0.784,10.988-4.98,19.031-12.223
	c8.96-8.07,10.569-22.028,10.569-22.028s-0.922,7.571-12.97,11.157c-9.08,2.703-14.1,14.523-16.023,20.185
	c-1.876,1.731-3.918,3.74-5.972,5.981c-4.315,4.711-9.248,11.098-12.542,18.449c0.224-3.357,0.519-12.253-1.67-21.5
	c-2.778-11.734-14.251-19.845-14.251-19.845s6.199,4.44,3.563,16.731c-2.395,11.165,9.663,23.516,11.892,25.686
	c-1.633,3.881-2.792,8.014-3.152,12.301c-0.411,4.902-0.37,10-0.111,15.151c-2.331-5.363-6.108-10.886-12.114-15.891
	c-0.089-0.074-0.181-0.138-0.271-0.211l-0.153,53.51h-12l-11.198-62.416c-3.808-0.243-7.463-0.026-10.799,0.426l-7.737,61.99h-2.086
	l-0.745,7.242c0,0-1.001-0.825-1.256-0.067c-0.032,0.095-0.059,0.189-0.085,0.283c0.027-0.094,0.054-0.188,0.085-0.283
	c0.255-0.758,1.256,0.067,1.256,0.067s0.301,0.989,0.301,1.311s-0.499,9.643-0.499,9.643H368.78l0,0.002h57.256
	c0,0-0.499-9.322-0.499-9.643c0-0.321,0.301-1.311,0.301-1.311s0.766-0.632,1.129-0.282c-0.362-0.35-1.129,0.282-1.129,0.282
	l-0.745-7.242h7.369l-0.388,8.805c0,0,3.018,3.204,4.079,4.048c1.061,0.844,7.218,1.165,9.596,1.768
	c2.378,0.603,3.057,2.049,3.269,2.813c0.212,0.763,0.212,0.763,0.212,0.763h44.902C496.389,428.382,449.557,439.119,449.557,439.119
	z M368.998,464.946c0.342-0.169,0.722-0.324,1.182-0.44c2.378-0.603,8.534-0.924,9.596-1.768c1.061-0.844,4.079-4.048,4.079-4.048
	s0.172,0.113,0.694,0.171c-0.522-0.058-0.694-0.171-0.694-0.171l0,0l-0.388-8.805h-1.551l-4.538-72.327
	c-3.72-4.996-8.803-9.71-15.037-12.946c0.005,0.165,0.028,0.346,0.035,0.512c-7.408-3.941-17.036-5.859-29.378-3.106
	c-0.025,0.007-0.049,0.013-0.073,0.02c-1.414,0.411-2.743,0.887-3.997,1.418l-0.203,0.532c-7.096,3.758-20.597,13.207-21.096,30.906
	c0,0-5.012,0.922-11.748,3.663v0c0.136,3.387-0.245,6.847-1.27,10.222c0,0,13.547-12.531,24.384-7.789
	c10.837,4.741,16.934,18.966,11.176,31.158c0,0,18.288-10.837,29.803,1.016C368.89,442.343,369.277,458.236,368.998,464.946z
	 M223.559,397.059c0.019,0.084,0.043,0.168,0.061,0.251c-0.019-0.09-0.037-0.18-0.057-0.27
	C223.562,397.046,223.561,397.053,223.559,397.059z M429.405,458.813c-0.331-0.038-0.604-0.088-0.834-0.15
	C428.801,458.725,429.074,458.775,429.405,458.813c2.123,0.241,2.668-0.122,2.668-0.122h0
	C432.072,458.691,431.527,459.054,429.405,458.813z M388.551,457.884c0.092-0.171,0.145-0.354,0.198-0.541
	C388.695,457.53,388.642,457.713,388.551,457.884z"></path>
<path id="color_x5F_5" fill="#ffede1" d="M383.467,449.885h7.369l-0.745,7.242c0,0-1.001-0.825-1.256-0.067
	c-0.255,0.758-0.189,1.51-2.312,1.751c-2.123,0.241-2.668-0.122-2.668-0.122l0,0L383.467,449.885z M425.837,457.129
	c0,0,1.001-0.825,1.256-0.067s0.189,1.51,2.312,1.751c2.123,0.241,2.668-0.122,2.668-0.122l0,0l0.388-8.805h-7.369L425.837,457.129z
	 M180.433,349.984l0-0.001c-0.105,0.059-0.207,0.112-0.313,0.172c-0.582,0.33-1.134,0.619-1.696,0.922l0.003,0.014
	c-8.638,4.662-15.017,6.171-21.771,5.377l2.978,16.472l-32.9,60.602c0.092,0.056,0.164,0.101,0.164,0.101
	c0.657,3.154,3.551,5.717,4.242,6.291l49.867-63.307l2.958,79.715c2.968,2.101,7.495,1.75,7.495,1.75s0.011,0.016,0.017,0.024
	l11.827-97.119l-0.583-13.884C195.613,344.697,189.759,344.767,180.433,349.984z M156.234,283.985
	c0.06-2.057-0.004-4.145-0.24-6.243c-0.232-2.064-0.476-4.145-0.717-6.232l-10.748-13.556l9.061-6.467
	c-0.199-7.509,0.363-14.571,2.55-20.552c-3.744,4.931-8.642,8.051-12.565,9.935c-7.447,7.859-13.918,15.221-13.918,17.085
	C129.658,263.487,156.234,283.985,156.234,283.985z M190.879,211.015c1.379-1.239,3.151-1.033,6.302-1.446
	c3.151-0.413,4.135-4.028,4.529-6.506c0.394-2.479,1.477-2.375,2.658-3.511c1.181-1.136,0.295-3.718,0-5.99
	c-0.295-2.272,2.068-6.609,1.477-10.637c-0.591-4.028-2.855-5.783-2.855-5.783s-2.658,5.37-8.271,7.642
	c-5.612,2.272-6.892,5.577-6.892,5.577s0-5.267-2.264-6.609c-2.265-1.343-4.923,1.136-4.825,4.957c0.099,3.821,3.348,6.3,3.84,7.952
	c0.492,1.652-1.139,5.37-6.301,7.332c-1.712,0.651-2.919,1.409-3.779,2.134c3.851,2.341,10.305,6.175,15.306,8.7
	C189.942,213.232,190.24,211.59,190.879,211.015z M162.874,221.86c-1.757,2.659-4.034,5.519-6.733,9.075
	c0.533-0.574,1.056-1.174,1.555-1.83C159.763,226.381,161.483,224.05,162.874,221.86z M283.265,268.216
	c-1.914-0.113-3.265-0.338-4.954-1.239c-1.689-0.901-2.21-1.037-2.21-1.037s-1.619,0.474-1.844,2.276
	c-0.225,1.802,0.338,9.233,0.45,10.81c0.113,1.576,4.954,2.252,8.107,2.365c3.153,0.113,3.941-4.866,3.716-7.725
	C286.306,270.806,285.18,268.329,283.265,268.216z M413.75,188.28c-3.048,0.372-2.763,6.103-2.763,6.103s-2.722-0.948-3.299-5.031
	c-0.428-3.025-3.464-3.546-9.525-4.66c-6.062-1.113-7.917-4.701-7.917-4.701c-3.428,0-8.366,9.958-8.799,10.846
	c0.041,0.459,0.087,0.919,0.14,1.38c1.732,15.092,5.616,13.282,8.536,16.391c2.216,2.359,1.352,4.866-0.205,6.872l0.001,0
	c0,0-3.008,8.668,8.741,9.107c11.585,0.433,11.431-10.42,11.431-10.42c-0.972-1.729-0.661-3.707,0.073-5.25
	c0.153-0.321,0.334-0.655,0.537-1.007c0.318-1.629,1.632-7.835,3.875-11.466C417.172,192.239,416.798,187.908,413.75,188.28z
	 M456.666,294.515l-9.769-2.425l-3.891,25.071l-0.123-0.039c0,0-0.124,0.247-1.856,1.732c-1.732,1.484-3.47,1.715-4.082,2.227
	c-0.612,0.512-0.866,1.113,0,1.423c0.866,0.309,3.835-0.124,4.577-0.433c0.742-0.309-1.608,7.175-2.289,8.165
	c-0.68,0.99-1.856,1.051-2.103,1.732c-0.247,0.68,3.526,2.969,5.752,3.031c2.227,0.062,4.763-0.68,5.691-2.103
	c0.928-1.423,1.175-7.979,1.175-8.35c0-0.371-0.825-5.52-0.825-5.52L456.666,294.515z M263.921,260.954
	c-2.861,0.498-4.043,0.498-4.665,0.187c-0.622-0.311,0.622-0.933,1.43-1.057c0.809-0.124,3.172-1.306,3.483-2.239
	c0.311-0.933-0.684-1.493-0.871-1.493c-0.187,0-4.167,2.177-5.971,2.239c-1.804,0.062-4.043,5.1-4.043,5.1l-45.271-10.652
	c0,0-15.962-25.801-25.313-30.798c-4.67-2.496-20.14-2.927-16.369,13.443c2.748,11.928,36.444,31.031,37.563,31.404
	c1.12,0.373,50.198,2.761,50.198,2.761s3.079,0.744,5.784,1.725c2.706,0.981,9.609-0.232,10.635-2.098
	c1.026-1.866,0.871-8.583-0.249-9.516C269.145,259.026,266.782,260.456,263.921,260.954z M294.478,269.537
	c-0.654,1.584-1.111,3.333-1.244,5.241c-0.034,0.493-0.002,0.955,0.089,1.393l26.958,0.575l-0.559-10.521L294.478,269.537z"></path>
<path id="color_x5F_4" fill="#e66724" d="M390.122,208.61c2.216,2.359,1.351,4.866-0.205,6.872c0.307-0.396,0.574-0.816,0.809-1.245
	c-1.304-0.317-2.846-0.443-4.641-0.116c-3.431,0.119-6.018,2.649-6.018,2.649c-0.432,0.347-0.813,0.714-1.159,1.093h0
	c-0.472,0.121-0.936,0.244-1.39,0.369c0.007-0.002,0.014-0.004,0.022-0.006c-1.781-2.192-3.921-3.855-6.009-5.064
	c-3.198-4.228-7.196-0.454-7.196-0.454l-0.001,0.001c-1.632-0.694-3.517-1.059-5.228-0.311c-4.191,1.834-6.549,7.335-4.322,12.05
	c0,0-7.073-4.191-11.526,0.393c-2.591,2.667-3.316,6.794-3.472,9.785l-36.146,3.719h36.213h7.251h12.775
	c0.001-0.002,0.002-0.004,0.003-0.005c-7.102,11.635-14.254,24.393-14.254,24.393l-25.986,1.975l0.081,1.518l-25.243,3.312
	c2.878-6.971,9.595-10.75,9.595-10.75c-0.988-2.156-2.785-2.336-5.66-1.168c-2.875,1.168-5.75,2.515-7.007-2.066
	c-0.477-1.739-2.659-2.609-4.841-2.609c-2.182,0-4.363,0.87-4.841,2.609c-1.258,4.582-4.132,3.234-7.007,2.066
	c-2.875-1.168-4.672-0.988-5.66,1.168c0,0,4.634,2.609,7.854,7.488c-0.594-0.275-0.812-0.334-0.812-0.334s-1.619,0.474-1.844,2.276
	c-0.225,1.802,0.338,9.233,0.45,10.81c0.043,0.605,0.786,1.076,1.859,1.435c-4.925,3.843-13.901,7.697-17.196,20.549
	c-3.593,14.014,1.917,32.701,27.196,33.299c25.28-0.599,30.79-19.285,27.196-33.299c-4.421-17.241-19.074-18.29-20.44-24.839
	l26.958,0.576l0.075,1.421l36.817,0.69l17.156-13.877l-0.455,56.414l-0.019,0.026l0.017,0.266l0.002-0.288l-0.019,2.36
	c0.263,0.057,0.533,0.105,0.799,0.159c-0.215-0.044-0.436-0.082-0.65-0.128l3.373,53.77c-3.72-4.996-8.803-9.71-15.037-12.946
	c0.005,0.165,0.028,0.346,0.035,0.512c-7.408-3.941-17.036-5.859-29.378-3.106c-0.025,0.007-0.049,0.013-0.073,0.02
	c-1.414,0.411-2.743,0.887-3.997,1.418l-0.203,0.532c-7.096,3.758-20.597,13.207-21.096,30.906c0,0-5.012,0.922-11.748,3.663
	c0-0.002,0.951-7.944-7.631-14.481c-8.583-6.538-24.648-13.263-40.339-6.912c-14.02,5.675-21.44,11.639-24.232,20.38
	c-0.017-0.079-0.04-0.157-0.058-0.236c-0.019-0.09-0.037-0.18-0.057-0.27c-0.001,0.006-0.002,0.012-0.004,0.018
	c-1.276-5.572-3.641-11.119-8.05-13.679c-5.137-2.983-10.267-4.092-14.452-3.94l2.246-18.444l-0.583-13.873
	c4.669,1.586,9.875,4.227,16.977,7.198c16.276,6.808,25.488-2.449,26.096-11.722c0.001-0.001,0.001-0.001,0.002-0.002
	c0.043-0.651,0.043-1.302,0.001-1.948c-0.023-0.346-0.056-0.691-0.104-1.033c-1.405-10.07-17.564-22.482-28.805-31.85
	c-11.241-9.367-18.359-17.682-18.359-17.682c-1.255-10.516-0.429-18.709,0.948-25.467c-0.008-0.005-0.017-0.01-0.026-0.015
	c2.524,1.493,4.21,2.406,4.445,2.485c1.12,0.373,50.198,2.761,50.198,2.761s3.079,0.744,5.784,1.725
	c2.706,0.981,9.609-0.232,10.635-2.098c1.026-1.866,0.871-8.583-0.249-9.516c-1.119-0.933-3.483,0.498-6.344,0.995
	c-2.861,0.498-4.043,0.498-4.665,0.187c-0.622-0.311,0.622-0.933,1.43-1.057c0.809-0.124,3.172-1.306,3.483-2.239
	c0.311-0.933-0.684-1.493-0.871-1.493s-4.167,2.177-5.971,2.239c-1.804,0.062-4.043,5.1-4.043,5.1l-45.271-10.652
	c0,0-1.606-2.595-4.094-6.295c0.33-1.93,0.478-3.777,0.331-5.601c-0.703-8.697-12.458-23.732-14.581-26.385
	c0.043,0.022,0.09,0.048,0.134,0.069c0.138-1.595,0.437-3.237,1.076-3.812c1.379-1.239,3.151-1.033,6.302-1.446
	c3.151-0.413,4.135-4.028,4.529-6.506c0.394-2.479,1.477-2.375,2.658-3.511c1.181-1.136,0.295-3.718,0-5.99
	c-0.112-0.863,0.16-2.025,0.507-3.354c0.002-0.004,3.618-5.966,2.125-13.067h16.563L206,173.702c0,0,0,0,0,0
	c-1.816-4.713-4.751-5.989-10.902-8.341c-2.636-1.008-6.614-1.424-10.519-0.938c0,0,0.001,0,0.001,0
	c-0.571-1.214-1.302-2.356-2.249-3.33c-5.292-5.448-13.698-0.467-13.698-0.467c2.646-5.604-0.156-12.141-5.137-14.32
	c-4.981-2.179-11.207,3.58-11.207,3.58c0.471-1.551,0.646-3.142,0.584-4.698c0,0,0.438-3.651-3.507-6.656
	c-3.945-3.005-11.328-6.096-18.54-3.177c-6.447,2.609-9.858,5.352-11.14,9.373c-0.017-0.079-0.033-0.159-0.051-0.238
	c-0.133,0.578-0.237,1.156-0.323,1.72c0,0,0,0.001,0,0.001c-0.304,1.675-0.477,3.483-0.576,5.138
	c-0.961-0.93-4.772-4.112-10.9-2.997c-4.077,0.141-7.152,3.148-7.152,3.148c-0.962,0.772-1.738,1.621-2.349,2.511
	c-2.225-3.02-5.062-5.216-7.795-6.798c-3.801-5.025-8.552-0.539-8.552-0.539l-0.001,0.001c-1.94-0.824-4.18-1.259-6.214-0.369
	c-4.981,2.179-7.783,8.717-5.137,14.32c0,0-8.405-4.981-13.698,0.467c-3.079,3.17-3.94,8.074-4.126,11.629l-24.383,2.508
	c7.604-17.626,19.401-33.841,35.944-47.666c77.456-64.73,142.993-9.777,207.673,33.467c32.248,21.56,67.466,18.938,103.017,13.328
	c-0.502,3.125-0.355,6.29,2.562,7.364c2.35,0.866,3.785,9.184,3.785,9.184s0.021-0.043,0.034-0.07
	c0.041,0.459,0.087,0.919,0.14,1.38C383.318,207.311,387.202,205.5,390.122,208.61z M400.659,387.896
	c3.336-0.452,6.991-0.67,10.799-0.426l-6.337-35.321L400.659,387.896z M143.769,300.284L143.769,300.284
	c-0.002,0.002-0.003,0.004-0.005,0.006C143.766,300.288,143.768,300.286,143.769,300.284z M156.656,356.468
	c-4.667-0.548-9.511-2.185-15.411-4.674c-14.748-6.222-34.466,8.623-30.41-3.393c1.344-0.479,2.924-1.011,4.656-1.533
	c-1.731,0.522-3.311,1.054-4.656,1.533c0.066-0.196,0.121-0.378,0.2-0.589c0.136-0.363,0.3-0.754,0.476-1.156
	c2.79-6.374,10.398-17.402,17.899-27.575h-15.326h-2.909h-0.377h-6.25H91.022H85.98H64.229l16.95-3.319c0,0,0.451-3.405,5.522-3.332
	h0.001c0.366-1.002,0.891-1.959,1.646-2.736c3.096-3.187,8.013-0.273,8.013-0.273c-1.548-3.278,0.091-7.102,3.005-8.377
	c2.914-1.275,6.556,2.094,6.556,2.094c-0.275-0.908-0.378-1.838-0.341-2.748c0,0-0.256-2.136,2.052-3.893
	c2.307-1.758,6.627-3.566,10.845-1.858c3.771,1.526,5.766,3.131,6.516,5.483c0.01-0.046,0.019-0.093,0.03-0.139
	c0.078,0.338,0.139,0.676,0.189,1.006c0,0,0,0,0,0.001c0.178,0.98,0.279,2.037,0.337,3.006c0.562-0.544,2.792-2.406,6.376-1.753
	c2.385,0.083,4.183,1.842,4.183,1.842c0.563,0.452,1.016,0.948,1.374,1.469c1.302-1.766,2.961-3.051,4.56-3.977
	c0.558-0.738,1.152-1.125,1.727-1.291c2.254-2.86,3.657-4.599,3.657-4.599l8.808-11.7v0c-0.002-0.002-26.576-20.499-26.576-26.031
	c0-1.863,6.47-9.226,13.918-17.084c0.001,0,0.001-0.001,0.002-0.001c-3.811,1.83-6.703,2.493-6.703,2.493
	s14.582-14.762,10.802-38.166c-2.049-12.682-2.39-21.693-0.998-28.053h-2.727h-0.644h-4.973h-37.398h-4.973h-0.644H84.635H61.511
	h-8.618H27.627c-23.2,56.319-4.213,126.556,39.71,179.544c23.903,28.836,31.749,52.76,32.698,70.954
	c8.815-0.285,16.92,4.51,16.92,4.51c-5.758-12.192,0.339-26.417,11.176-31.158c5.088-2.226,10.773-0.645,15.373,1.659
	l-16.771,30.892l32.9-60.602L156.656,356.468C156.656,356.468,156.656,356.468,156.656,356.468z M480.653,169.926
	c-21.284-6.226-43.501-5.076-65.979-1.964c2.891,3.53,1.559,4.643,4.023,8.072c2.845,3.959,4.206,11.257,1.361,14.721
	c-2.845,3.464-2.598,7.051-4.189,10.639c-0.224,0.506-0.496,1.003-0.787,1.491c0.002-0.003,0.003-0.005,0.005-0.008
	c2.379,0.7,4.453,1.845,5.941,2.979c3.319,2.529,2.951,5.6,2.951,5.6c0.053,1.31-0.095,2.648-0.491,3.953
	c0,0,5.239-4.846,9.43-3.013c3.887,1.7,6.19,6.554,4.729,11.011c0.182,0.185,0.357,0.375,0.527,0.567
	c2.059-0.948,7.116-2.712,10.592,0.866c1.086,1.118,1.841,2.495,2.367,3.936h0.001c7.295-0.104,7.944,4.793,7.944,4.793
	l24.383,4.775h-31.289h-2.047c7.916,9.813,16.074,20.537,16.074,22.738c0,3.464-7.67,33.896-7.67,33.896l-1.866-0.463l-7.742,24.509
	c0,0.001,0.825,5.149,0.825,5.52s-0.247,6.928-1.175,8.35c-0.928,1.423-3.464,2.165-5.691,2.103c-2.227-0.062-6-2.35-5.752-3.031
	c0.247-0.68,1.423-0.742,2.103-1.732c0.68-0.99,3.031-8.474,2.289-8.165c-0.742,0.309-3.711,0.742-4.577,0.433
	c-0.866-0.309-0.612-0.911,0-1.423c0.612-0.512,2.35-0.742,4.082-2.227c1.732-1.484,1.856-1.732,1.856-1.732l0.123,0.039
	l3.891-25.071l7.012,1.741l-7.858-1.951l3.412-23.723l-17.513-10.001l2.971,61.428l0.106,0.128l-0.006,1.954l0.006,0.116
	c0,0-0.006,0.001-0.006,0.001l-0.365,128.102l0.153-53.51c0.09,0.073,0.181,0.137,0.271,0.211
	c6.005,5.005,9.783,10.528,12.114,15.891c-0.258-5.151-0.3-10.249,0.111-15.151c0.36-4.286,1.519-8.419,3.152-12.301
	c-2.23-2.17-14.288-14.521-11.892-25.686c2.636-12.291-3.563-16.731-3.563-16.731s11.472,8.111,14.251,19.845
	c2.189,9.248,1.894,18.144,1.67,21.5c3.294-7.351,8.227-13.738,12.542-18.449c2.054-2.241,4.096-4.249,5.972-5.981
	c1.923-5.663,6.943-17.483,16.023-20.185c12.048-3.587,12.97-11.157,12.97-11.157s-1.61,13.958-10.569,22.028
	c-8.043,7.243-17.233,11.439-19.031,12.223c-8.228,7.98-18.658,20.745-19.858,35.034c-0.297,3.529-0.354,7.172-0.263,10.87
	c0.939-1.835,5.673-10.681,13.338-18.215c8.599-8.453,22.629-9.212,22.629-9.212s-7.612,0.459-11.924,12.268
	c-4.071,11.15-22.04,15.069-24.034,15.472c0.086,3.243,0.287,6.526,0.538,9.811c2.961,11.342,0.304,20.658,0.304,20.658
	s42.88-9.806,44.571,24.173c10.664-6.17,27.274-20.255,48.89-52.438C582.732,351.726,575.414,197.647,480.653,169.926z
	 M153.591,251.487l-9.061,6.467l10.748,13.556C154.497,264.761,153.762,257.958,153.591,251.487z"></path>
<path id="color_x5F_3" fill="#ffb785" d="M373.873,321.686l-0.017-0.266l0.019-0.026L373.873,321.686z M435.022,321.783
	c-0.252,0.051-36.121,7.368-61.017,2.005l7.911,126.097h11.006l12.199-97.737l17.535,97.737h12L435.022,321.783z M435.027,319.712
	l-0.106-0.128l0.101,2.083L435.027,319.712z M388.834,457.06c-0.255,0.758-0.189,1.51-2.312,1.751
	c-2.123,0.241-2.668-0.122-2.668-0.122s-3.017,3.204-4.079,4.048c-1.062,0.844-7.218,1.165-9.596,1.768
	c-2.378,0.603-3.057,2.049-3.269,2.813c-0.212,0.763-0.212,0.763-0.212,0.763h23.193c0,0,0.499-9.322,0.499-9.643
	c0-0.322-0.301-1.311-0.301-1.311S389.089,456.302,388.834,457.06z M449.017,467.32c-0.212-0.763-0.892-2.21-3.269-2.813
	c-2.378-0.603-8.534-0.924-9.596-1.768c-1.062-0.844-4.079-4.048-4.079-4.048s-0.545,0.363-2.668,0.122
	c-2.123-0.241-2.057-0.993-2.312-1.751c-0.255-0.758-1.256,0.067-1.256,0.067s-0.301,0.989-0.301,1.311
	c0,0.321,0.499,9.643,0.499,9.643h23.193C449.229,468.083,449.229,468.083,449.017,467.32z M196.65,462.838
	c-2.327-0.615-5.191-4.746-5.191-4.746s-4.597,0.359-7.563-1.795c0,0-0.814,0.13-0.814,0.262c0,0.132,0,10.977,0,10.977h1.405
	c0,0-0.044-3.601,0.395-4.084c0.439-0.483,2.679,1.8,3.337,2.766c0.659,0.966,14.886,0.351,14.886,0.351s0.746-1.581-0.659-2.81
	C201.041,462.531,198.978,463.453,196.65,462.838z M131.941,447.06c-1.309-2.02-0.651-7.004-0.651-7.004s-3.644-2.825-4.392-6.413
	c0,0-0.69-0.451-0.779-0.354c-0.089,0.098-7.38,8.126-7.38,8.126l1.04,0.945c0,0,2.388-2.695,3.038-2.757
	c0.65-0.062,0.772,3.134,0.61,4.291c-0.162,1.158,10.783,10.268,10.783,10.268s1.615-0.668,1.402-2.523
	C135.399,449.785,133.251,449.08,131.941,447.06z M219.686,346.48c-9.572-6.581-19.865-9.7-28.245-8.547
	c-3.82,0.524-8.772,2.786-14.015,5.181c-7.21,3.293-14.667,6.704-19.472,5.715c-3.189-0.65-5.792-1.578-8.547-2.56
	c-4.506-1.605-9.166-3.266-16.502-3.599c-7.272-0.336-15.843,2.071-21.394,3.987c-0.176,0.402-0.34,0.793-0.476,1.156
	c-0.079,0.21-0.133,0.393-0.199,0.589c5.377-1.917,14.531-4.669,22.005-4.329c7.126,0.325,11.686,1.95,16.094,3.521
	c2.681,0.955,5.452,1.943,8.738,2.614c0.659,0.135,1.356,0.196,2.086,0.196c5.09,0,11.767-3.049,18.251-6.012
	c5.146-2.351,10.007-4.571,13.622-5.068c8.036-1.099,17.97,1.928,27.258,8.314c4.094,2.813,10.892,2.978,17.744,0.428
	c3.575-1.331,6.683-3.215,9.162-5.469c0.043-0.651,0.043-1.302,0.001-1.948c-2.472,2.536-5.769,4.656-9.652,6.102
	C229.812,349.105,223.352,349.001,219.686,346.48z"></path>
<path id="color_x5F_2" fill="#b45cba" d="M466.202,261.082c0,3.464-7.67,33.896-7.67,33.896l-12.481-3.099l3.412-23.724
	l-17.513-10.001l3.077,63.627c0,0-36.182,7.419-61.171,1.975l0.474-58.778l-17.156,13.877l-36.817-0.69l-0.715-13.46l25.986-1.975
	c0,0,23.012-41.05,27.465-43.03c4.453-1.979,16.824-4.221,16.824-4.221s-3.008,8.668,8.741,9.107
	c11.585,0.433,11.431-10.42,11.431-10.42s20.568,1.059,28.238,9.966S466.202,257.619,466.202,261.082z M245.795,342.597
	c0-0.007,0-0.014,0-0.021c0,0.007-0.002,0.015-0.002,0.022C245.794,342.598,245.795,342.597,245.795,342.597z M245.795,342.576
	c0.041-0.644,0.043-1.288,0.001-1.927C245.838,341.288,245.837,341.932,245.795,342.576z M132.905,342.669
	c7.336,0.333,11.996,1.994,16.502,3.599c2.755,0.982,5.358,1.91,8.547,2.56c4.805,0.989,12.263-2.422,19.472-5.715
	c5.242-2.396,10.195-4.657,14.015-5.181c8.38-1.153,18.672,1.966,28.245,8.547c3.666,2.521,10.126,2.625,16.458,0.27
	c3.883-1.446,7.18-3.566,9.652-6.102c-0.023-0.346-0.056-0.691-0.104-1.033c-1.405-10.07-17.564-22.482-28.805-31.849
	c-11.241-9.367-18.359-17.682-18.359-17.682c-1.255-10.516-0.429-18.709,0.948-25.467c-9.47-5.599-30.972-19.505-33.144-28.934
	c-3.771-16.37,11.699-15.939,16.369-13.443c6.387,3.413,15.857,16.53,21.219,24.503c0.33-1.93,0.478-3.778,0.331-5.601
	c-0.773-9.563-14.912-26.794-14.912-26.794c-6.721-3.213-16.574-9.4-16.574-9.4s-2.612,3.108-6.234,8.287
	c-0.883,5.18-3.977,9.47-8.835,15.869c-0.498,0.656-1.022,1.256-1.555,1.83c-4.655,12.731-1.998,30.325-0.146,46.808
	c0.236,2.098,0.3,4.186,0.24,6.243l-8.808,11.7c0,0-29.745,36.873-35.915,50.971C117.062,344.741,125.633,342.334,132.905,342.669z
	 M218.89,347.638c-9.288-6.386-19.222-9.413-27.258-8.314c-3.615,0.497-8.476,2.717-13.622,5.068
	c-6.484,2.963-13.161,6.012-18.251,6.012c-0.73,0-1.427-0.062-2.086-0.196c-3.286-0.671-6.058-1.659-8.738-2.614
	c-4.409-1.571-8.968-3.196-16.094-3.521c-7.474-0.34-16.628,2.412-22.005,4.329c-4.056,12.015,15.662-2.829,30.409,3.393
	c14.988,6.323,23.185,7.26,38.875-1.639c15.691-8.899,21.545-3.377,39.578,4.166c16.276,6.808,25.488-2.449,26.096-11.722
	c-2.478,2.253-5.585,4.138-9.16,5.468C229.782,350.616,222.984,350.451,218.89,347.638z"></path>
<path id="color_x5F_1" d="M420.059,190.754c-2.845,3.464-2.598,7.051-4.189,10.639c-1.591,3.588-5.247,6.923-5.247,6.923
	s1.353-7.665,3.951-11.871c2.598-4.206,2.223-8.537-0.825-8.165c-3.048,0.372-2.763,6.103-2.763,6.103s-2.722-0.948-3.299-5.031
	c-0.428-3.025-3.464-3.546-9.525-4.66c-6.062-1.113-7.917-4.701-7.917-4.701c-3.588,0-8.834,10.916-8.834,10.916
	s-1.434-8.318-3.785-9.184c-3.641-1.341-2.969-5.938-2.103-9.649c0.866-3.711,2.598-9.402,10.763-8.907
	c8.165,0.495,9.526,1.361,12.495-0.99c2.969-2.35,9.154-1.113,14.226,3.959c5.072,5.072,2.845,5.938,5.691,9.897
	C421.543,179.992,422.904,187.291,420.059,190.754z M195.098,165.362c-5.258-2.01-15.851-1.669-20.568,3.494
	c-1.411-0.234-2.794-0.536-3.841-0.926c-3.389-1.26-8.609-6.481-16.711-1.8c-8.101,4.681-10.082,15.662-6.301,39.066
	c3.781,23.404-10.802,38.166-10.802,38.166s11.884-2.705,19.265-12.426c7.381-9.721,11.648-14.265,10.567-23.627
	c-1.08-9.361-3.189-20.655-2.109-25.876c1.08-5.221,6.089-7.741,6.089-7.741l0.916,0.146c-2.653,6.533-3.609,15.949-2.241,20.55
	c1.745,5.868,3.229,10.569,3.229,10.569l1.904,1.171c0.86-0.725,2.067-1.484,3.779-2.134c5.162-1.962,6.794-5.68,6.302-7.332
	c-0.492-1.652-3.742-4.131-3.84-7.952c-0.098-3.821,2.56-6.3,4.825-4.957c2.264,1.342,2.264,6.609,2.264,6.609
	s1.28-3.305,6.892-5.577c5.612-2.272,8.271-7.642,8.271-7.642s2.265,1.756,2.855,5.783c0.366,2.498-0.403,5.114-0.97,7.284l0,0
	c0,0,3.784-6.21,2.039-13.506C205.17,169.406,202.392,168.151,195.098,165.362z" fill="#011627"></path>
</svg>