<?xml version="1.0" standalone="no"?>
<svg version="1.1" id="Layer_1" xmlns="http://www.w3.org/2000/svg" xmlns:xlink="http://www.w3.org/1999/xlink" x="0px" y="0px" width="595.276px" height="595.276px" viewBox="0 0 595.276 595.276" enable-background="new 0 0 595.276 595.276" xml:space="preserve">
<path id="color_x5F_7" fill-rule="evenodd" clip-rule="evenodd" fill="#E96257" d="M223.142,303.718
	c-1.322,5.929-7.209,9.669-13.138,8.347c-5.928-1.322-9.668-7.209-8.346-13.138L223.142,303.718L223.142,303.718z M448.542,208.082
	c0.58,5.073-3.068,9.662-8.14,10.242c-5.073,0.581-9.663-3.067-10.243-8.14L448.542,208.082L448.542,208.082z"></path>
<path id="color_x5F_6" fill-rule="evenodd" clip-rule="evenodd" fill="#1ACEBD" d="M66.513,419.208
	c-2.351-2.074-4.411-4.558-6.064-7.421c-3.68-6.375-4.725-13.553-3.472-20.269c0.123-0.606,0.501-1.131,1.036-1.44
	c0.536-0.309,1.179-0.374,1.766-0.178c6.442,2.274,12.136,6.767,15.817,13.142c0.867,1.503,1.589,3.05,2.168,4.626
	c0.579-1.576,1.3-3.123,2.168-4.626c3.68-6.375,9.374-10.868,15.817-13.142c0.586-0.196,1.229-0.131,1.765,0.178
	c0.536,0.309,0.913,0.834,1.037,1.44c1.252,6.716,0.208,13.894-3.473,20.269c-1.653,2.863-3.712,5.347-6.064,7.421H66.513z
	 M440.398,455.694c0,0.001,0,0.002,0,0.003c0,4.425-3.587,8.012-8.012,8.012c-17.934,0-61.137,0-79.071,0
	c-4.425,0-8.012-3.587-8.012-8.012c0-0.001,0-0.002,0-0.003c0-4.425,3.587-8.012,8.012-8.012c17.934,0,61.137,0,79.071,0
	C436.811,447.682,440.398,451.269,440.398,455.694L440.398,455.694z M280.047,426.238h12.769c7.125,0,13.861,2.292,19.37,6.291
	l28.132-26.185h-18.475c-3.779,0-7.403-1.501-10.076-4.173c-2.672-2.673-4.173-6.297-4.173-10.076v-5.668l-17.198,13.981
	l-28.339-32.721c-0.598,1.302-1.619,2.404-2.954,3.093c-0.337,0.172-0.673,0.342-1.008,0.51v53.427l-45.416-3.146
	c-8.284-11.106-20.219-27.179-30.598-41.169c-14.691-3.325-26.73-8.853-34.796-13.309l-0.144,0.173c0,0,0,0-0.001,0.001
	c-8.925,10.889-9.424,26.416-1.214,37.855c10.276,14.32,23.973,33.405,32.898,45.842c5.742,8,14.986,12.745,24.834,12.745h54.437
	v-7.523c0-2.255,0.896-4.418,2.49-6.013c1.595-1.595,3.758-2.491,6.014-2.491h13.448L280.047,426.238L280.047,426.238z
	 M52.494,444.838v4.709c0,3.756,1.492,7.358,4.148,10.014s6.258,4.148,10.014,4.148h22.215c3.756,0,7.358-1.492,10.014-4.148
	s4.148-6.258,4.148-10.014v-4.709H52.494L52.494,444.838z M508.079,321.22v-53.827c0-4.364-1.733-8.55-4.819-11.635
	c-3.086-3.086-7.271-4.82-11.635-4.819c-0.001,0-0.002,0-0.003,0c-4.364-0.001-8.549,1.733-11.635,4.819
	c-3.086,3.085-4.819,7.271-4.819,11.635v73.849C487.394,336.632,498.53,329.793,508.079,321.22z M194.761,316.167
	c0,2.373,1.927,4.299,4.299,4.299c2.373,0,4.299-1.926,4.299-4.299c0-2.372-1.926-4.298-4.299-4.298
	C196.688,311.869,194.761,313.795,194.761,316.167z M350.292,299.54h36.815v-30.697c0-8.085,3.314-15.482,8.733-20.802
	l-17.681,16.602l8.051-31.765l-19.836-11.305l-29.384,46.898C339.733,279.64,344.276,290.105,350.292,299.54L350.292,299.54z
	 M397.188,246.798l-0.001-0.022l-0.399,0.375l0.191-0.171L397.188,246.798L397.188,246.798z"></path>
<path id="color_x5F_5" fill-rule="evenodd" clip-rule="evenodd" fill="#FFD2BB" d="M280.047,447.682v-21.444h12.769
	c13.763,0,26.077,8.55,30.887,21.444l0,0H280.047z M195.564,313.667h-2.482c-4.011-5.342-5.988-12.213-4.982-19.35
	c1.336-9.483,2.78-19.732,3.842-27.271c0.938-6.654,6.164-11.886,12.817-12.829c9.115-1.293,21.523-3.054,28.29-4.014
	c3.083-0.437,6.193,0.596,8.401,2.792c2.295,2.282,5.288,5.257,7.604,7.559c2.266,2.253,3.311,5.459,2.807,8.614
	c-1.194,7.476-3.518,22.021-5.564,34.835c-2.168,13.575-14.828,22.898-28.434,20.941c-2.511-0.361-5.067-0.729-7.59-1.092
	c-3.637-0.523-6.992-1.772-9.938-3.578c1.751-0.544,3.024-2.178,3.024-4.107c0-2.372-1.926-4.298-4.299-4.298
	C197.62,311.869,196.344,312.578,195.564,313.667L195.564,313.667L195.564,313.667z M223.142,303.718
	c-1.322,5.929-7.209,9.669-13.138,8.347c-5.928-1.322-9.668-7.209-8.346-13.138L223.142,303.718z M462.209,203.766v38.145
	c-10.347,7.397-29.938,9.111-36.569,2.322v-13.04h-4.235c-5.869,0-11.498-2.331-15.648-6.481c-4.15-4.15-6.481-9.779-6.481-15.647
	V160.89h49.828l0.472,3.861c0.689,5.649,3.316,10.806,7.326,14.657c2.349-1.838,5.305-2.934,8.516-2.934
	c7.635,0,13.834,6.198,13.834,13.833c0,7.636-6.199,13.834-13.834,13.834C464.314,204.141,463.239,204.011,462.209,203.766
	L462.209,203.766z M390.536,225.287l-4.326,7.591l-19.836-11.305c0,0-0.846-4.405-1.552-8.082c-0.601-3.124,0.115-6.357,1.978-8.936
	c2.555-3.538,6.272-8.685,8.979-12.434c1.974-2.732,5.689-3.538,8.617-1.869l2.825,1.609l-11.694,20.518
	c-1.034,1.815-0.402,4.125,1.413,5.16L390.536,225.287L390.536,225.287z M448.542,208.082c0.58,5.073-3.068,9.662-8.14,10.242
	c-5.073,0.581-9.663-3.067-10.243-8.14L448.542,208.082L448.542,208.082z"></path>
<path id="color_x5F_4" fill-rule="evenodd" clip-rule="evenodd" fill="#00CEC9" d="M399.276,160.89v22.144
	c-5.463-2.83-15.755-11.153-15.282-33.588c0.036-4.014,3.208-7.297,7.219-7.47c8.356-0.426,22.507-1.587,30.5-5.298
	c9.988-4.637,38.553-13.802,53.208,15.299c0,0,15.117,4.525,2.044,30.713c-2.477-3.745-6.725-6.216-11.547-6.216
	c-3.211,0-6.167,1.096-8.516,2.934c-4.01-3.851-6.637-9.008-7.326-14.657l-0.472-3.861L399.276,160.89L399.276,160.89z"></path>
<path id="color_x5F_3" fill-rule="evenodd" clip-rule="evenodd" fill="#E84393" d="M140.445,363.02
	c1.778,1.144,4.075,2.545,6.84,4.073l-0.144,0.173c0,0,0,0-0.001,0.001c-8.925,10.889-9.424,26.416-1.214,37.855
	c10.276,14.32,23.973,33.405,32.898,45.842c5.741,8,14.985,12.744,24.834,12.745h-71.65
	C132.914,425.486,134.915,389.941,140.445,363.02L140.445,363.02z M410.533,447.682h-35.365v-57.069
	c0-4.69,1.863-9.187,5.179-12.503c3.316-3.316,7.813-5.179,12.503-5.179h0.001c4.69,0,9.187,1.863,12.503,5.179
	c3.316,3.316,5.179,7.813,5.179,12.503L410.533,447.682L410.533,447.682z M103.033,444.838H52.494v-21.425
	c0-1.115,0.443-2.185,1.232-2.974c0.789-0.788,1.858-1.231,2.974-1.231c9.516,0,32.611,0,42.128,0c1.115,0,2.185,0.443,2.973,1.231
	c0.789,0.789,1.232,1.859,1.232,2.974V444.838z M258.095,371.289v53.428l-45.416-3.146c-8.284-11.106-20.219-27.179-30.598-41.169
	C203.234,385.19,229.886,385.41,258.095,371.289z M475.168,309.291v31.951c-1.667,0.629-3.355,1.216-5.061,1.76v-29.213
	c0-1.543-0.25-3.061-0.729-4.498H475.168z M475.168,272.117h-88.061v-3.274c0-14.548,10.729-26.868,25.14-28.866l13.393-1.857v6.113
	c6.631,6.789,26.222,5.075,36.569-2.322v-3.747l20.226,2.337c12.064,1.393,21.683,10.068,24.675,21.327
	c-0.813-2.261-2.119-4.339-3.85-6.07c-3.086-3.086-7.271-4.82-11.635-4.819c-0.001,0-0.002,0-0.003,0
	c-4.364-0.001-8.549,1.733-11.635,4.819c-3.086,3.085-4.819,7.271-4.819,11.635V272.117L475.168,272.117z M165.039,262.967
	c1.597-11.425,4.017-22.904,7.557-33.883c7.385-8.114,17.354-13.729,28.43-15.666c-9.25,16.183-13.876,35.286-16.382,53.903
	c-1.286-1.539-3.131-2.618-5.277-2.899c-3.377-0.443-7.361-0.967-11.079-1.455C167.2,262.825,166.108,262.827,165.039,262.967
	L165.039,262.967z"></path>
<path id="color_x5F_2" fill-rule="evenodd" clip-rule="evenodd" fill="#FBC02D" d="M507.317,463.709H89.559l-0.011-0.017
	c3.51-0.167,6.841-1.635,9.337-4.131c2.656-2.656,4.148-6.258,4.148-10.014v-26.134c0-1.115-0.443-2.185-1.232-2.974
	c-0.788-0.788-1.858-1.231-2.973-1.231h-9.814c2.352-2.074,4.411-4.558,6.064-7.421c3.681-6.375,4.725-13.553,3.473-20.269
	c-0.124-0.606-0.501-1.131-1.037-1.44s-1.179-0.374-1.765-0.178c-6.443,2.274-12.137,6.767-15.817,13.142
	c-0.868,1.503-1.589,3.05-2.168,4.626c-0.579-1.576-1.301-3.123-2.168-4.626c-3.183-5.513-7.871-9.618-13.247-12.099
	c-3.72-28.187,0.841-59.95,27.21-86.319c22.308-22.308,46.417-30.187,69.766-42.875l-0.397,3.234
	c-0.051,0.038-0.102,0.077-0.153,0.116c-2.407,1.848-3.981,4.577-4.376,7.585l-1.098,8.368l18.48,2.426l1.652-12.577
	c0.248-1.893-0.266-3.806-1.428-5.32c-1.069-1.392-2.606-2.341-4.318-2.678c0.2,0.017,0.401,0.038,0.601,0.064
	c3.718,0.488,7.702,1.012,11.079,1.455c4.538,0.596,7.734,4.757,7.138,9.295c-0.834,6.355-1.993,15.181-2.88,21.938
	c-0.347,2.642-1.729,5.038-3.842,6.661c-1.476,1.133-3.223,1.824-5.042,2.02c0.915,2.441,1.831,4.882,2.776,7.311
	c0.49,1.191,1.699,2.007,2.998,2.02h15.049c-0.506,0.707-0.803,1.569-0.803,2.5c0,0.932,0.297,1.794,0.803,2.5h-15.073
	c-3.32-0.032-6.452-2.17-7.669-5.299l-3.58-9.468l-3.249-0.427c-4.077-0.535-7.774-2.668-10.278-5.928
	c-0.233-0.304-0.454-0.616-0.663-0.934l0.002,0.004v-0.001l-1.553,12.677c0,0-12.773,37.315-16.414,47.951
	c-0.568,1.657,0.018,3.491,1.441,4.513c0.55,0.372,1.19,0.797,1.917,1.265c-5.53,26.921-7.531,62.465-8.437,100.689h339.755
	c0,0,0-3.686,0-7.523c0-2.255-0.896-4.418-2.491-6.013s-3.758-2.491-6.013-2.491h-52.726v-41.338h45.325
	c3.779,0,7.403-1.501,10.076-4.173c2.672-2.673,4.173-6.297,4.173-10.076v-49.093c14.187-4.526,27.06-12.005,37.896-21.714
	c14.36,35.426,28.438,61.703,28.438,82.547C536.441,443.124,507.521,463.565,507.317,463.709L507.317,463.709z M375.168,447.682
	v-41.338h-34.85l-28.132,26.185c5.131,3.726,9.197,8.934,11.517,15.153l0,0H375.168z M212.312,212.744
	c38.668-57.347,85.181-70.612,122.394-68.857c14.875,0.701,31.432,4.782,47.992,11.328c-29.264,18.504-48.714,51.151-48.714,88.304
	c0,20.608,5.984,39.83,16.308,56.021h-28.449c-3.779,0-7.403,1.501-10.076,4.173c-2.672,2.672-4.173,6.297-4.173,10.076v72.638
	l-17.198,13.981l-28.339-32.721c0.522-1.134,0.723-2.42,0.529-3.716c-2.073-13.895-8.18-54.68-8.18-54.68s2.51-18.961,5.239-39.576
	c1.788-13.509-1.968-27.167-10.412-37.862c-8.444-10.695-20.858-17.518-34.413-18.913c-0.001,0-0.002,0-0.003,0
	C213.979,212.853,213.144,212.788,212.312,212.744L212.312,212.744z M392.85,334.798c4.401,0,7.974,3.573,7.974,7.974
	s-3.573,7.974-7.974,7.974c-4.4,0-7.973-3.573-7.973-7.974S388.45,334.798,392.85,334.798z M475.168,309.291h-5.79
	c-0.692-2.082-1.863-3.997-3.444-5.578c-2.673-2.672-6.297-4.173-10.076-4.173h-68.751v-27.423h88.061V309.291z M152.709,285.562
	l18.48,2.426l-0.178,1.356c-0.455,3.469-3.637,5.913-7.107,5.457c-1.798-0.236-3.762-0.494-5.58-0.732
	c-3.655-0.48-6.229-3.832-5.749-7.487L152.709,285.562L152.709,285.562z M129.24,170.993c24.581-17.844,52.451-21.43,62.198-8.003
	s-2.296,38.815-26.877,56.659s-52.451,21.43-62.198,8.003C92.616,214.225,104.66,188.837,129.24,170.993z M394.258,179.514
	c1.817,1.656,3.584,2.777,5.018,3.52v26.031c0,2.742,0.509,5.432,1.475,7.943l-4.193,7.357c-1.034,1.815-3.344,2.448-5.159,1.414
	c-3.944-2.248-10.515-5.993-14.459-8.24c-1.815-1.035-2.447-3.345-1.413-5.16L394.258,179.514L394.258,179.514z"></path>
<path id="color_x5F_1" fill-rule="evenodd" clip-rule="evenodd" fill="#0984E3" d="M432.386,447.682h30.873
	c2.255,0,4.418,0.896,6.013,2.491s2.491,3.758,2.491,6.013c0,3.837,0,7.523,0,7.523H430h2.386c4.425,0,8.012-3.587,8.012-8.012
	c0-0.001,0-0.002,0-0.003C440.398,451.269,436.811,447.682,432.386,447.682L432.386,447.682z M353.315,463.709h-95.22v-7.523
	c0-2.255,0.896-4.418,2.49-6.013c1.595-1.595,3.758-2.491,6.014-2.491h86.716c-4.425,0-8.012,3.587-8.012,8.012
	c0,0.001,0,0.002,0,0.003C345.303,460.122,348.89,463.709,353.315,463.709L353.315,463.709z M375.168,406.344h-53.325
	c-3.779,0-7.403-1.501-10.076-4.173c-2.672-2.673-4.173-6.297-4.173-10.076c0-20.44,0-57.866,0-78.306
	c0-3.779,1.501-7.404,4.173-10.076c2.673-2.672,6.297-4.173,10.076-4.173c30.79,0,103.225,0,134.015,0
	c3.779,0,7.403,1.501,10.076,4.173c2.672,2.672,4.173,6.297,4.173,10.076c0,20.44,0,57.866,0,78.306
	c0,3.779-1.501,7.403-4.173,10.076c-2.673,2.672-6.297,4.173-10.076,4.173h-45.325v-15.731c0-4.69-1.863-9.187-5.179-12.503
	c-3.316-3.316-7.813-5.179-12.503-5.179h-0.001c-4.69,0-9.187,1.863-12.503,5.179c-3.316,3.316-5.179,7.813-5.179,12.503V406.344z
	 M200.335,320.274c2.946,1.806,6.301,3.055,9.938,3.578c2.523,0.363,5.079,0.731,7.59,1.092
	c13.606,1.957,26.266-7.366,28.434-20.941c2.046-12.814,4.37-27.359,5.564-34.835c0.504-3.155-0.541-6.361-2.807-8.614
	c-2.316-2.302-5.309-5.277-7.604-7.559c-2.208-2.196-5.318-3.229-8.401-2.792c-6.767,0.96-19.175,2.721-28.29,4.014
	c-6.653,0.943-11.879,6.175-12.817,12.829c-1.062,7.539-2.506,17.788-3.842,27.271c-1.006,7.137,0.971,14.007,4.982,19.35h-12.567
	c-1.298-0.012-2.507-0.828-2.998-2.02c-0.629-1.618-1.8-4.707-2.782-7.31c1.821-0.195,3.571-0.887,5.048-2.021
	c2.113-1.623,3.495-4.019,3.842-6.661c0.887-6.757,2.046-15.583,2.88-21.938c0.314-2.392-0.426-4.68-1.861-6.396
	c2.506-18.617,7.132-37.72,16.382-53.903c4.45-0.779,9.079-0.964,13.791-0.478c0.001,0,0.002,0,0.003,0
	c13.555,1.395,25.969,8.218,34.413,18.913c8.444,10.695,12.2,24.353,10.412,37.862c-2.729,20.615-5.239,39.576-5.239,39.576
	s6.107,40.785,8.18,54.68c0.416,2.781-0.984,5.519-3.483,6.809c-57.674,29.532-109.052-1.213-120.575-9.025
	c-1.423-1.022-2.009-2.856-1.441-4.513c3.641-10.636,16.414-47.951,16.414-47.951l1.553-12.677c0.208,0.317,0.429,0.628,0.661,0.931
	c2.504,3.26,6.201,5.393,10.278,5.928l3.249,0.427l3.58,9.468c1.217,3.129,4.349,5.267,7.669,5.299h15.073
	c0.78,1.089,2.056,1.799,3.496,1.799C199.504,320.466,199.932,320.399,200.335,320.274L200.335,320.274z M392.85,334.798
	c4.401,0,7.974,3.573,7.974,7.974s-3.573,7.974-7.974,7.974c-4.4,0-7.973-3.573-7.973-7.974S388.45,334.798,392.85,334.798z
	 M469.815,143.944c42.279,13.35,72.966,52.907,72.966,99.575c0,30.844-13.405,58.582-34.702,77.701v-53.827
	c0-1.916-0.334-3.796-0.969-5.565c-2.992-11.259-12.611-19.934-24.675-21.327l-20.226-2.337v-34.398
	c1.03,0.245,2.105,0.375,3.209,0.375c7.635,0,13.834-6.198,13.834-13.834c0-2.813-0.842-5.432-2.287-7.617
	c13.073-26.189-2.044-30.713-2.044-30.713C473.363,148.884,471.648,146.223,469.815,143.944L469.815,143.944z M384.068,154.364
	c0.719,13.427,5.615,20.982,10.19,25.15l-7.037,12.347l-2.825-1.609c-2.928-1.669-6.643-0.863-8.617,1.869
	c-2.707,3.749-6.424,8.896-8.979,12.434c-1.863,2.579-2.579,5.812-1.978,8.936c0.706,3.677,1.552,8.082,1.552,8.082l-29.384,46.898
	c-1.964-7.996-3.006-16.353-3.006-24.952C333.984,205.789,354.042,172.707,384.068,154.364L384.068,154.364z M158.928,264.983
	l1.015-8.286c1.31-10.694,5.903-20.197,12.653-27.613c-3.518,10.91-5.929,22.314-7.527,33.667
	C162.863,262.882,160.726,263.65,158.928,264.983L158.928,264.983z M400.751,217.008l-4.193,7.357
	c-1.034,1.815-3.344,2.448-5.159,1.414l-0.863-0.492l-4.326,7.591l-8.051,31.765l17.677-16.598c0.312-0.307,0.631-0.607,0.958-0.899
	l0.393-0.37l0.001,0.022c4.132-3.577,9.302-6.023,15.059-6.821l13.393-1.857v-6.927h-4.235c-5.869,0-11.498-2.331-15.648-6.481
	C403.547,222.501,401.852,219.871,400.751,217.008L400.751,217.008z M153.301,281.052l1.098-8.368
	c0.395-3.008,1.969-5.737,4.376-7.585c2.407-1.849,5.449-2.665,8.458-2.27c0.001,0,0.001,0,0.001,0
	c1.893,0.248,3.609,1.238,4.771,2.752s1.676,3.427,1.428,5.32l-1.652,12.577L153.301,281.052L153.301,281.052z M152.709,285.562
	l18.48,2.426l-0.178,1.356c-0.455,3.469-3.637,5.913-7.107,5.457c-1.798-0.236-3.762-0.494-5.58-0.732
	c-3.655-0.48-6.229-3.832-5.749-7.487L152.709,285.562L152.709,285.562z"></path>
</svg>